<?xml version="1.0" standalone="no"?>
<!DOCTYPE svg PUBLIC "-//W3C//DTD SVG 1.1//EN" "http://www.w3.org/Graphics/SVG/1.1/DTD/svg11.dtd" >
<svg xmlns="http://www.w3.org/2000/svg" xmlns:xlink="http://www.w3.org/1999/xlink" version="1.1">
<metadata>
Created by FontForge 20170731 at Wed Sep 29 08:07:04 2021
 By Aleksey,,,
Copyright(c)adeviostudio
</metadata>
<defs>
<font id="BornywaleRegular" horiz-adv-x="1005" >
  <font-face 
    font-family="Bornywale"
    font-weight="400"
    font-stretch="normal"
    units-per-em="2048"
    panose-1="0 0 0 0 0 0 0 0 0 0"
    ascent="1638"
    descent="-410"
    x-height="953.5"
    cap-height="1192"
    bbox="-270.087 -521.39 2573 2023.39"
    underline-thickness="102"
    underline-position="-307"
    unicode-range="U+000A-FB00"
  />
<missing-glyph horiz-adv-x="1079" 
d="M102 1434h875v-1434h-875v1434zM160 1393l379 -633l381 633h-760zM514 717l-369 614v-1231zM541 674l-379 -631h758zM565 717l371 -621v1239z" />
    <glyph glyph-name="ee.liga" unicode="ee" horiz-adv-x="1955" 
d="M580 99q73 -8 130 23q87 49 113 145q13 51 49 63q31 10 45.5 -18t-3.5 -77q-43 -113 -131 -175q-33 -23 -71.5 -37.5t-70 -19t-58.5 -6t-42 0.5l-15 1q-89 6 -161.5 35t-117 71.5t-77 93t-48 99.5t-24 89.5t-9.5 65.5l-1 25q-7 280 134 412.5t404 102.5
q106 -12 182 -73.5t105.5 -140.5t21 -163.5t-57.5 -142.5q-50 -58 -139 -85.5t-161 -5.5q-66 18 -105 58.5t-18 86.5q8 19 25 25t36 -6t28 -41q22 -72 96 -63q67 9 126 73q61 67 60 142q-1 81 -66 142q-67 63 -145 52q-100 -14 -152 -151q-21 -56 -32 -127
q-14 -78 -9.5 -160.5t21 -151t53 -113.5t85.5 -49zM1508 99q85 -11 153 36.5t92 130.5q11 51 47 63q31 10 46 -18q14 -28 -2 -76q-29 -78 -79.5 -130.5t-102 -72.5t-99 -29t-77.5 -7l-30 3q-89 6 -161.5 35t-116.5 71.5t-77 93t-48 99.5t-23.5 89.5t-9.5 65.5l-1 25
q-7 281 134.5 414.5t403.5 100.5q107 -11 183.5 -71.5t103 -141.5t21.5 -163t-59 -144t-141 -76q-40 -12 -118.5 -16.5t-136.5 -2.5l-59 1q8 -76 26.5 -132.5t40.5 -83.5t42.5 -43t33.5 -18zM1736 573q24 48 18.5 98t-32.5 86t-66.5 63t-83 29.5t-81.5 -15.5
q-54 -29 -85.5 -77t-39 -99.5t-10 -108t1.5 -101.5q11 -1 30 -1.5t72 3.5t99 15t97 39t80 69z" />
    <glyph glyph-name="cc.liga" unicode="cc" horiz-adv-x="1966" 
d="M1610 153q39 4 66.5 22t41.5 39.5t26.5 42t30.5 32t44 7.5q27 -4 38.5 -19t9.5 -34t-12.5 -42t-22 -40t-23.5 -32q-63 -80 -157.5 -106t-225.5 -24q-253 12 -363 218q-45 89 -57.5 250t15.5 261q26 103 67.5 159.5t128.5 86.5q103 34 243.5 38t223.5 -21
q138 -42 186 -174q28 -77 -37 -96q-25 -8 -49.5 8.5t-33.5 50.5q-51 130 -201 130q-102 0 -145 -50.5t-49 -148.5q-24 -294 49 -435q38 -66 93 -97t113 -26zM812 762q-9 5 -13 11.5t-4 10.5v3q14 45 -12 74t-65 39t-83 10q-102 0 -145 -50.5t-49 -148.5q-24 -294 49 -435
q38 -66 93.5 -97t113.5 -26q39 4 66.5 22t41 39.5t26 42t30.5 32t44 7.5q34 -5 44 -25.5t0 -48.5t-23.5 -50.5t-29.5 -42.5q-63 -80 -158 -106t-226 -24q-253 12 -363 218q-45 89 -57.5 250t15.5 261q26 102 68 159t129 87q127 42 280 39q63 -3 114.5 -13.5t98 -32t67 -60.5
t9.5 -93q-6 -34 -18.5 -48t-42.5 -4z" />
    <glyph glyph-name="ll.liga" unicode="ll" horiz-adv-x="1036" 
d="M825 153q11 -19 49 -19q45 0 64.5 -30.5t3.5 -63.5t-58 -39q-11 0 -44 -2t-49.5 -2t-46 2t-57.5 7q-164 31 -164 197q0 159 -1.5 471t-1.5 469q0 35 24.5 59t59.5 24h127q35 0 59.5 -24t24.5 -59q0 -622 2 -931q0 -43 8 -59zM383 212q0 -46 9 -59q5 -9 13 -13.5t19 -8
t18 -7.5q31 -21 27 -69q-4 -20 -13 -32t-25 -17t-27.5 -6t-33.5 -1q-52 -3 -115 7q-75 14 -121 61.5t-46 135.5v940q0 35 24 59.5t57 24.5h130q34 0 59 -24.5t25 -59.5v-931z" />
    <glyph glyph-name="mm.liga" unicode="mm" horiz-adv-x="2662" 
d="M594 1006q53 6 92 -10.5t57 -45t28.5 -58t12.5 -50.5l1 -21q37 104 96.5 148t161.5 42q65 -1 111.5 -29.5t66.5 -68.5t30.5 -80.5t10.5 -68.5v-28q-8 -597 -8 -671q0 -31 -18 -48t-36 -19l-19 -2q-31 1 -47 20t-16 38l-1 18q2 55 4.5 140.5t6 259.5t1.5 241
q-1 42 -12 73.5t-27 47t-31.5 25t-26.5 11.5l-11 1q-48 1 -81.5 -17.5t-49 -52t-22 -67.5t-6.5 -77q0 -437 -3 -562q-1 -31 -8 -52.5t-17 -29.5t-20 -12t-17 -3l-7 1q-30 -2 -50.5 7.5t-29 24.5t-12.5 30.5t-4 26.5l1 11q0 58 0.5 180.5t0.5 222.5t-1 179q-1 45 -11.5 78
t-24.5 48.5t-27.5 24.5t-23.5 10l-9 1q-51 1 -92 -16.5t-65 -45.5t-36 -49t-18 -41q0 -201 -3 -606q0 -35 -24 -59.5t-57 -24.5h-132q-35 0 -59.5 24.5t-24.5 59.5q0 140 1.5 421.5t1.5 422.5q0 35 24 59.5t57 24.5h132q35 0 59.5 -24.5t24.5 -59.5v-76q27 46 58.5 79
t56.5 46.5t46.5 20.5t32.5 7h12zM1905 1006q53 6 92 -10.5t57.5 -45t29 -58t12.5 -50.5l1 -21q39 105 98 148.5t160 41.5q65 -1 111.5 -29.5t66.5 -68.5t30 -80.5t10 -68.5v-28q-7 -597 -7 -671q0 -31 -18 -48t-36 -19l-17 -2q-32 1 -48 20t-16 38v18q2 55 4 140.5
t5.5 259.5t2.5 241q-1 42 -13 73.5t-27.5 47t-31 25t-25.5 11.5l-11 1q-48 1 -81.5 -17.5t-49.5 -51.5t-22.5 -67.5t-6.5 -77.5q0 -479 -2 -562q-2 -49 -20 -73t-35 -24l-16 1q-29 -2 -49 7.5t-28.5 24.5t-13 30.5t-3.5 26.5v11q0 511 -2 582q-1 45 -10.5 78t-23 48.5
t-27 24.5t-23.5 10l-9 1q-42 1 -77.5 -11.5t-57.5 -30t-39.5 -40.5t-25 -39t-12.5 -31q0 -336 -2 -606q0 -35 -24.5 -59.5t-59.5 -24.5h-132q-35 0 -59.5 24.5t-24.5 59.5q0 140 1.5 421.5t1.5 422.5q0 35 24 59.5t59 24.5h133q35 0 59 -24.5t24 -59.5v-76q27 46 58.5 79
t56 46.5t45.5 20.5t33 7h11z" />
    <glyph glyph-name="oo.liga" unicode="oo" horiz-adv-x="2072" 
d="M977 657l2 -226q2 -79 -16.5 -152.5t-64.5 -139t-115 -96.5q-29 -22 -98 -33.5t-123 -12.5l-54 -1q-255 15 -361 221q-23 41 -36.5 85t-17.5 97.5t-4.5 88t2 101.5t2.5 92q2 74 27 132t63.5 92t74 52.5t73.5 28.5q41 11 97 14.5t140.5 3t101.5 -0.5q304 -20 307 -346z
M1981 632l3 -201q0 -122 -49 -228t-148 -160q-32 -17 -100.5 -29t-121.5 -15l-53 -3q-255 15 -361 221q-19 34 -31.5 73t-19 67.5t-8 75.5t-1.5 69.5t2.5 79t3.5 75.5q1 60 18.5 109.5t42.5 81.5t58 56.5t61.5 36.5t57.5 20q108 30 339 18q159 -5 232 -97.5t75 -249.5z
M1490 276q37 -66 93.5 -98t109.5 -26.5t97 47.5t56 112q51 233 -2 415q-46 157 -212 157q-101 0 -144.5 -50t-49.5 -147q-2 -69 -3.5 -137t12 -144.5t43.5 -128.5zM486 276q49 -88 127.5 -115t145.5 14.5t85 135.5q13 66 19.5 139t1 156t-25.5 144q-46 157 -211 157
q-101 0 -143.5 -49t-50.5 -147q-17 -312 52 -435z" />
    <glyph glyph-name="ss.liga" unicode="ss" horiz-adv-x="1746" 
d="M380 681q10 -42 42 -67.5t76.5 -37t91 -20.5t96.5 -26t82 -45q65 -56 73.5 -150t-40 -181.5t-136.5 -125.5q-106 -42 -236.5 -26.5t-217.5 78.5q-48 39 -78.5 98.5t-2.5 102.5q19 35 64 12q16 -9 24.5 -24t11.5 -29.5t18.5 -33.5t43.5 -35q33 -19 85.5 -28t104.5 -4.5
t89 34t38 81.5q1 30 -10 52.5t-26.5 36.5t-43.5 24.5t-52 15.5t-62 11q-126 21 -170 37q-124 46 -150 167q-6 30 -7 66q-2 67 22 133.5t67 109.5q7 5 17 15q79 79 263 96q61 5 124 -9t114 -47.5t66 -88.5t-20 -133q-8 -19 -28 -25t-40 6q-8 4 -8.5 13t3 17t9.5 19.5t8 16.5
q17 56 -32 88q-28 19 -69 20.5t-80.5 -15t-72 -44t-47.5 -69t-4 -86.5zM1196 681q10 -42 42 -67.5t76.5 -37t91 -20.5t96.5 -26t82 -45q65 -56 73.5 -150t-40 -181.5t-137.5 -125.5q-106 -42 -236.5 -26.5t-217.5 78.5q-48 39 -78.5 98.5t-2.5 102.5q19 35 64 12
q16 -9 24.5 -24t11.5 -29.5t18.5 -33.5t43.5 -35q33 -19 85.5 -28t104.5 -4.5t89 34t38 81.5q1 30 -10 52.5t-26.5 36.5t-43.5 24.5t-52 15.5t-62 11q-126 21 -170 37q-124 46 -150 167q-6 30 -7 66q-2 67 22 133.5t67 109.5q7 5 17 15q40 40 111 65.5t152 30.5
q98 2 178.5 -22.5t120.5 -78.5q11 -14 17.5 -33t7.5 -38t-8 -35t-29 -22q-23 -5 -34.5 9t-24.5 39t-32 38q-28 19 -68.5 20.5t-80 -15t-72 -44t-47.5 -69t-4 -86.5z" />
    <glyph glyph-name="gg.liga" unicode="gg" horiz-adv-x="1968" 
d="M727 1001h132q32 0 56.5 -24t24.5 -57q0 -143 -1 -470.5t-1 -470.5q0 -72 -2 -112t-9.5 -97.5t-27 -102t-50.5 -83.5q-34 -43 -88.5 -69.5t-115 -33.5t-122.5 6.5t-112.5 45t-84.5 88.5t-39 130q-1 27 9.5 41t21.5 14l11 1q15 -2 24 -10t12 -18.5t4 -20.5t0 -17l-1 -7
q4 -41 19 -69.5t33 -41t35.5 -18.5t28.5 -6h12q31 0 55.5 8t40.5 26t27.5 35t17.5 49t9.5 52t3 59t-1 56.5t-2.5 57.5v845q-38 36 -82 52t-68 14l-25 -2q-89 -10 -143 -78t-67 -163t-1.5 -196.5t44.5 -186.5q15 -39 41 -74t56.5 -52.5t58 -14t47.5 47t23 125.5q0 9 8 16
t17 9q23 4 33.5 -7t15.5 -47q8 -54 -8 -108.5t-49 -96.5t-81 -62.5t-99 -14.5t-108.5 55.5t-104.5 140.5q-54 105 -63 246.5t22.5 268.5t110 222t186.5 110q51 7 107.5 -0.5t86.5 -17.5t49 -19q26 47 74 47zM1667 1001h133q33 0 57 -24t24 -57q0 -144 -1.5 -471t-1.5 -470
q0 -73 -1.5 -112t-9 -97t-26 -102.5t-49.5 -83.5q-30 -37 -75 -62.5t-96 -35t-104.5 -7t-103 22.5t-89.5 52t-65 83t-29 114q-1 27 9 41t20 14l10 1q23 -3 33 -21.5t8 -35.5l-1 -16q4 -41 18.5 -69.5t32.5 -41t35.5 -18.5t28.5 -6h12q42 0 72.5 15.5t46.5 44.5t25 61
t10.5 75.5t0.5 78t-3 77.5t-2 65q-39 -26 -82.5 -40t-67.5 -15l-24 -1q-144 -15 -241.5 80t-122 243.5t-6.5 302.5t102 271t206 134q51 7 107.5 -0.5t86.5 -17.5t49 -19q26 47 74 47zM1586 141v646q-38 36 -81 52t-67 14l-24 -2q-72 -9 -123.5 -55.5t-74 -114.5t-29 -148
t10.5 -158t45.5 -142t74.5 -103.5t99 -39.5q126 0 169 51z" />
    <glyph glyph-name="nn.liga" unicode="nn" horiz-adv-x="1925" 
d="M906 701l2 -653q6 -17 -12.5 -34.5t-51.5 -17.5q-3 0 -8.5 0.5t-19 3t-24 8t-19 16.5t-7.5 26l12 541q1 5 2 14t1 35t-3 49.5t-14 53.5t-28.5 52t-49.5 39.5t-75 21.5h-18t-42.5 -8.5t-59 -24t-58 -52t-48.5 -87.5q0 -92 -1 -285.5t-1 -316.5q0 -33 -24.5 -58t-59.5 -25
h-127q-35 0 -59.5 25t-24.5 58l3 820q0 35 24 59.5t57 24.5h130q33 0 58 -24.5t25 -59.5v-61q25 66 88.5 103t152.5 39q137 1 208.5 -72t71.5 -210zM1834 701l2 -653q6 -17 -12 -34.5t-49 -17.5q-3 0 -9 0.5t-20 3t-24.5 8t-19.5 16.5t-8 26l12 541q1 5 2 14t1 35t-3 49.5
t-14 53.5t-28.5 52t-49.5 39.5t-75 21.5h-18t-42.5 -8.5t-59 -24t-58 -52t-48.5 -87.5q0 -92 -1 -285.5t-1 -316.5q0 -33 -24.5 -58t-59.5 -25h-127q-35 0 -59.5 25t-24.5 58l3 820q0 35 24 59.5t57 24.5h130q35 0 59 -24.5t24 -59.5v-61q25 65 89.5 102.5t151.5 39.5
q137 1 208.5 -72t71.5 -210z" />
    <glyph glyph-name="rr.liga" unicode="rr" horiz-adv-x="1298" 
d="M91 900q0 33 22.5 57t55.5 24h130q32 0 55.5 -23t23.5 -58v-167q14 35 48.5 81t76.5 81q52 42 74 21.5t9 -70.5q-4 -17 -14 -26t-24.5 -15.5t-22.5 -14.5q-80 -72 -147 -312v-401q0 -33 -24 -57t-57 -24h-130q-32 0 -55.5 24t-23.5 57zM695 981h130q32 0 55 -23t23 -58
v-167q23 65 105 145.5t143 75.5q44 -6 57 -43t-35 -65q-14 -8 -59.5 -26.5t-60.5 -32.5q-86 -79 -150 -309v-401q0 -33 -24 -57t-57 -24h-127q-33 0 -57 24t-24 57l2 823q0 33 23 57t56 24z" />
    <glyph glyph-name="tt.liga" unicode="tt" horiz-adv-x="1210" 
d="M1090 905h-108v-648v-77q3 -23 15 -32q14 -12 54 -12q43 0 61.5 -31.5t3 -64.5t-57.5 -36q-88 -9 -152 -3q-219 13 -219 204l-2 700h-79q-13 0 -22.5 8.5t-9.5 20.5v18q0 11 9.5 20t22.5 9h79v167q0 33 24 57t57 24h132q33 0 57 -24t24 -57l1 -85h1q0 10 1 -1v-81h108
q13 0 22.5 -9t9.5 -20v-18q0 -12 -9.5 -20.5t-22.5 -8.5zM505 905h-9v-648v-77v-14q1 -15 5 -22.5t14 -7.5q32 0 51.5 -19.5t20.5 -43.5t-16 -45.5t-48 -23.5q-53 -8 -103 -3q-219 19 -219 204l-2 700h-79q-13 0 -22.5 8.5t-9.5 20.5v18q0 11 9.5 20t22.5 9h79v167
q0 33 24 57t57 24h132q33 0 57 -24t24 -57l1 -85h1q0 10 1 -1v-81h9q13 0 22.5 -9t9.5 -20v-18q0 -12 -9.5 -20.5t-22.5 -8.5z" />
    <glyph glyph-name="ae.liga" unicode="ae" horiz-adv-x="2004" 
d="M1801 270q13 51 49 63q31 10 45.5 -18t-3.5 -77q-29 -78 -79.5 -130.5t-102 -72.5t-99 -29t-77.5 -6l-30 2q-89 6 -161.5 35t-116.5 71.5t-77 93t-48 99.5t-23.5 89.5t-9.5 65.5l-1 25q-7 281 135 415t403 101q107 -11 183.5 -71.5t103 -142t22 -163.5t-59 -144
t-141.5 -76q-40 -12 -118 -16t-136 -2l-58 1q7 -76 25.5 -132.5t40.5 -83.5t43 -43t34 -18l14 -3q85 -11 152.5 37t90.5 130zM1539 837q-53 -29 -84 -77t-38.5 -99t-10 -107.5t1.5 -101.5q11 -1 30 -1.5t72 3.5t99 15t96.5 39t78.5 69q20 40 20 82t-17.5 75t-45.5 61.5
t-63 42t-70.5 16t-68.5 -16.5zM1045 152q29 -10 15 -66q-8 -32 -30 -58.5t-49 -27.5q-142 0 -172 140q-44 -63 -112 -101.5t-146 -38.5q-319 3 -419 241q-54 120 -41.5 295t85.5 284q41 60 101.5 100.5t126.5 57t140.5 22t142.5 -5.5q62 -7 105.5 -24.5t77 -52.5t50 -93
t17.5 -141q0 -30 3 -219t-1 -218q-2 -24 3 -77q5 -35 25 -57q24 -24 34 23q1 3 3 6.5t13.5 8.5t27.5 2zM804 248q0 22 2 82.5t2 122.5t-4 122q-4 43 -8 71t-16 62t-30 53t-50 30t-75 7q-40 -4 -77.5 -27t-62.5 -61q-52 -83 -66 -202.5t15 -215.5q22 -76 66.5 -117t96.5 -43
t107 28t100 88z" />
    <glyph glyph-name="ff.liga" unicode="ff" horiz-adv-x="1302" 
d="M201 1015q0 55 19 95.5t48.5 62t73.5 33.5t83.5 15t89.5 1q60 0 86 -8q29 -7 43.5 -28t12 -43t-22 -39t-50.5 -17q-34 -1 -61 -8q-22 -5 -26 -24.5t-4 -88.5v-216h35q13 0 21 -8t8 -21v-18q0 -13 -8 -21t-21 -8h-35q-2 -199 -2 -594q0 -35 -24 -59.5t-57 -24.5h-130
q-33 0 -57 24.5t-24 59.5v594h-81q-13 0 -21.5 8t-8.5 21v18q0 13 8.5 21t21.5 8h81zM709 1015q0 37 8.5 67t22 51.5t36 37.5t44 26t52.5 16t56 8t59.5 2t57.5 -1t56.5 -2.5t49.5 -2.5q3 0 8 -1.5t16.5 -6t20 -11.5t14.5 -19.5t3 -28.5q-1 -1 0.5 -7t-2.5 -15.5t-9.5 -18.5
t-21.5 -15.5t-39 -6.5q-16 -1 -43 -1q-30 -1 -41.5 -1t-26 -5t-17.5 -8t-7 -19t-4 -28v-44v-5v-5v-5v-216h108q13 0 21 -8t8 -21v-18q0 -13 -8 -21t-21 -8h-108q-3 -298 -3 -594q0 -35 -24 -59.5t-57 -24.5h-130q-33 0 -57 24.5t-24 59.5v594h-79q-13 0 -22.5 8.5t-9.5 20.5
v18q0 12 9.5 20.5t22.5 8.5h79z" />
    <glyph glyph-name=".notdef" horiz-adv-x="1079" 
d="M102 1434h875v-1434h-875v1434zM160 1393l379 -633l381 633h-760zM514 717l-369 614v-1231zM541 674l-379 -631h758zM565 717l371 -621v1239z" />
    <glyph glyph-name=".null" horiz-adv-x="0" 
 />
    <glyph glyph-name=".null" horiz-adv-x="0" 
 />
    <glyph glyph-name="nonmarkingreturn" horiz-adv-x="682" 
 />
    <glyph glyph-name="controlLF" unicode="&#xa;" horiz-adv-x="0" 
 />
    <glyph glyph-name="controlCR" unicode="&#xd;" horiz-adv-x="0" 
 />
    <glyph glyph-name="space" unicode=" " horiz-adv-x="512" 
 />
    <glyph glyph-name="exclam" unicode="!" horiz-adv-x="411" 
d="M72 181q0 54 38 92t92 38t92.5 -38t38.5 -92t-38.5 -92.5t-92.5 -38.5t-92 38.5t-38 92.5zM153 1259h101q26 0 44.5 -22t18.5 -55q0 -381 -2 -717q0 -32 -18.5 -54.5t-44.5 -22.5h-101q-25 0 -44 23t-19 54l2 717q0 33 18.5 55t44.5 22z" />
    <glyph glyph-name="quotedbl" unicode="&#x22;" horiz-adv-x="706" 
d="M392 908q30 20 37.5 57t1.5 70t-1 66t30 48q45 28 100.5 24t76.5 -40q37 -59 14 -157q-22 -88 -86.5 -137.5t-146.5 -51.5q-7 -2 -18 -4.5t-36.5 3.5t-41.5 27q-1 2 -2.5 5.5t-1 14t6 21t23 25.5t44.5 29zM117 908q30 20 37.5 57t1.5 70t-1.5 66t29.5 48q45 28 101 24
t77 -40q37 -59 14 -157q-22 -88 -87 -137.5t-147 -51.5q-7 -2 -17.5 -4.5t-36 3.5t-41.5 27q-1 2 -2.5 5.5t-1 14t6 21t23 25.5t44.5 29z" />
    <glyph glyph-name="numbersign" unicode="#" horiz-adv-x="1361" 
d="M1263 1095h40q9 0 13 -7t-1 -16l-133 -275h91q23 0 23 -24v-37q0 -24 -23 -24h-133l-194 -394h210q9 0 15 -7.5t6 -16.5v-39q0 -9 -6 -16.5t-15 -7.5h-250l-126 -257q-12 -23 -35 -23h-40q-19 0 -11 23l126 257h-315l-87 -247q-2 -3 -5.5 -8.5t-16.5 -19t-28.5 -23.5
t-41.5 -17t-55 -5l-105 12l-16 7q-55 37 -7 184q12 37 30 80l16 37h-133q-9 0 -16 7.5t-7 16.5v39q0 9 7 16.5t16 7.5h166l152 394h-199q-9 0 -16 7t-7 17v37q0 10 7 16.5t16 6.5h229l138 318q1 2 4 5t12.5 12t20 16.5t27.5 15t34.5 11.5t41 3.5t47.5 -7.5q5 0 13 -1.5
t25 -12.5t26 -29t6.5 -56t-24.5 -90q-39 -97 -70 -185h390l133 276q5 9 15.5 16t19.5 7zM862 318l191 394h-380q-110 -310 -138 -394h327z" />
    <glyph glyph-name="dollar" unicode="$" horiz-adv-x="966" 
d="M397 753q10 -50 36 -80.5t62.5 -43.5t72.5 -19t79.5 -13.5t71.5 -20.5q104 -51 156 -151t12 -218q-32 -92 -103.5 -143t-155.5 -70q-4 -1 -9.5 -2t-9.5 -2q-5 -28 -29 -48t-55 -20q-26 0 -48 15.5t-31 40.5q-201 13 -294 140q-27 36 -39.5 66t-10.5 47t8 29t14 16l7 5
q19 10 35.5 -4t23.5 -33l8 -19q23 -40 67 -67.5t93 -39.5t99.5 -12.5t91.5 12.5q39 12 66.5 35.5t39.5 48.5t18.5 48t6.5 38v14q-3 67 -31 108t-66 52t-75 12t-62 -6l-26 -7q-80 -23 -148 -4t-117 65t-73.5 121.5t-16.5 165.5q11 138 100.5 213t222.5 91v16q0 35 24.5 59.5
t59.5 24.5t59.5 -24.5t24.5 -59.5v-16q112 -14 202.5 -59t117.5 -102q12 -38 6.5 -61t-18.5 -33l-14 -9q-23 -3 -37.5 8.5t-17.5 24.5l-3 13q-16 54 -67.5 81t-112 20t-115.5 -33t-85 -83t-15 -127z" />
    <glyph glyph-name="percent" unicode="%" horiz-adv-x="718" 
d="M622 1154h37q10 0 14 -7t0 -16l-535 -1098q-5 -9 -15.5 -16t-19.5 -7h-39q-9 0 -13 7t1 16l535 1098q13 23 35 23zM316 916q0 -54 -38.5 -92.5t-92.5 -38.5t-92.5 38.5t-38.5 92.5q0 53 38.5 90.5t92.5 37.5t92.5 -37.5t38.5 -90.5zM393 153q0 54 38.5 92t92.5 38t92 -38
t38 -92t-38 -92.5t-92 -38.5t-92.5 38.5t-38.5 92.5z" />
    <glyph glyph-name="ampersand" unicode="&#x26;" horiz-adv-x="856" 
d="M707 328l87 -159q11 -74 -5 -135q-2 -2 -4.5 -6t-12 -12t-19 -12t-23.5 -2.5t-27 11.5q1 5 2 14t-0.5 36t-6.5 52.5t-20 59t-39 60.5q-4 -4 -10.5 -11t-29.5 -26.5t-47 -36.5t-60.5 -34.5t-73.5 -27.5t-83 -9.5t-90 14.5q-8 3 -21.5 9t-47.5 33.5t-59 63t-44 101.5
t-15 146q2 4 -0.5 10.5t6 33t20.5 57.5t44.5 83.5t78.5 111.5q-5 11 -13 29.5t-21.5 72.5t-15.5 104.5t17 114.5t64 113q9 6 25.5 15t62.5 26t86.5 23.5t87.5 -5.5t76 -49q7 -7 18 -21t31.5 -57t27 -87t-11 -107.5t-67.5 -122.5l-140 -147l182 -247q6 7 14 20t18.5 54
t5.5 84v9q6 18 60 22q0 -1 7 0.5t16.5 -3t18.5 -11.5t14.5 -25.5t2.5 -44.5q-36 -152 -66 -185zM509 977q2 5 5 14t5 32t-3.5 42t-28.5 37.5t-62 24.5q-2 0 -6 -0.5t-15 -2.5t-21.5 -5.5t-24 -11.5t-24 -18.5t-20 -27.5t-13.5 -38t-3 -51t10 -65l37 -70zM338 536
q-14 -58 -15 -105t7 -72.5t18.5 -42.5t19.5 -22l8 -6q37 -20 68.5 -25t50.5 2t33 16.5t20 18.5l5 9l-198 246z" />
    <glyph glyph-name="quotesingle" unicode="'" horiz-adv-x="393" 
d="M220 937q-21 -3 -34 13.5t-18.5 40t-15 50.5t-22.5 39l1 2q-56 46 -40 121q4 32 29 66q35 44 74.5 40.5t68.5 -48.5q33 -51 40 -122.5t-15.5 -130t-67.5 -71.5z" />
    <glyph glyph-name="parenleft" unicode="(" horiz-adv-x="673" 
d="M524 1124q5 0 40 -5q25 -7 23.5 -27.5t-16.5 -28.5q-33 -4 -64 -19.5t-52 -34.5t-37.5 -37t-23.5 -30l-8 -12q-35 -76 -44 -247q-5 -74 -5.5 -159t1.5 -134l2 -48q-4 -328 91 -381q28 -15 51 -5q21 1 33.5 1t20 -5.5t14.5 -20.5q7 -13 0 -24.5t-18 -16.5l-10 -4
q-35 5 -105 13.5t-105 12.5q-76 31 -132 114t-82 191t-31.5 225t15.5 226.5t62 184.5q66 121 167 196.5t213 74.5z" />
    <glyph glyph-name="parenright" unicode=")" horiz-adv-x="675" 
d="M150 1124q112 1 212 -74t168 -197q52 -94 69 -239t-1 -286.5t-80.5 -259.5t-157.5 -156q-30 -4 -100.5 -12.5t-107.5 -13.5q-5 2 -12 5t-15 15t-1 25q10 21 20 24t45 1l20 -3q57 0 90 89q37 100 35 300q10 175 -2 341q-13 177 -45 247q-3 5 -8.5 13t-23.5 29t-38 38
t-51 33t-63 20q-17 8 -19 29t23 27q35 5 43 5z" />
    <glyph glyph-name="asterisk" unicode="*" horiz-adv-x="460" 
d="M224 1169q10 61 52 72q35 8 58 -21q30 -39 -8 -94l-4 -6q61 24 91 -13q22 -29 4 -63q-23 -42 -90 -33q52 -42 34 -86q-13 -32 -48 -35q-47 -4 -74 53q-1 3 -3 7q-10 -61 -53 -71q-36 -8 -59 22q-31 39 7 93q2 3 4 5q-60 -23 -89 14q-22 30 -4 63q23 43 89 35
q-50 40 -34 84q12 31 47 35q46 6 74 -49z" />
    <glyph glyph-name="plus" unicode="+" horiz-adv-x="735" 
d="M508 599h154q19 0 31.5 -13t12.5 -31q0 -20 -12.5 -33.5t-31.5 -13.5h-154v-86l-3 -218q0 -32 -22.5 -54.5t-54.5 -22.5h-124q-33 0 -55 22.5t-22 54.5v304h-156q-17 0 -30.5 14t-13.5 33q0 17 13.5 30.5t30.5 13.5h156v276q0 31 22.5 54t54.5 23h124q33 0 56.5 -22.5
t23.5 -54.5v-276z" />
    <glyph glyph-name="comma" unicode="," horiz-adv-x="415" 
d="M100 97q30 20 38 56.5t2.5 69.5t-1 66t28.5 48q47 28 102.5 24t77.5 -40q36 -63 14 -156q-22 -88 -87.5 -137.5t-148.5 -51.5q-7 -2 -17.5 -4.5t-35.5 3t-41 26.5q-1 2 -2.5 5.5t-1 14t6 21.5t22 26t43.5 29z" />
    <glyph glyph-name="hyphen" unicode="-" horiz-adv-x="745" 
d="M110 667h523q31 0 54 -22.5t23 -54.5v-51q0 -31 -23 -54t-54 -23h-523q-32 0 -54.5 23t-22.5 54v51q0 33 22.5 55t54.5 22z" />
    <glyph glyph-name="period" unicode="." horiz-adv-x="333" 
d="M35 88q0 54 38.5 92.5t92.5 38.5t92 -38.5t38 -92.5t-38 -92.5t-92 -38.5t-92.5 38.5t-38.5 92.5z" />
    <glyph glyph-name="slash" unicode="/" horiz-adv-x="579" 
d="M477 1256l-5 8q10 0 17 -11.5t1 -22.5l-302 -1220q-16 -26 -39 -26l-50 8q-9 0 -13 8t0 18l305 1220q4 11 15 18.5t22 7.5z" />
    <glyph glyph-name="zero" unicode="0" horiz-adv-x="1026" 
d="M926 217q-45 -168 -227 -216q-40 -9 -92.5 -11.5t-138.5 -0.5t-96 2q-294 27 -294 342q5 282 5 506q0 120 49.5 225.5t149.5 149.5q29 19 96 28.5t120 9.5h53q137 -9 221 -70t126 -149q27 -52 41 -224t10 -347t-23 -245zM410 84q100 -1 143 47t51 142q6 76 8 211.5
t-9 290t-37 205.5q-34 65 -88.5 97.5t-106.5 28.5t-96.5 -44.5t-58.5 -109.5q-20 -101 -25.5 -352t18.5 -360q42 -152 201 -156z" />
    <glyph glyph-name="one" unicode="1" horiz-adv-x="555" 
d="M151 1131q-13 20 -51 20q-48 1 -68 32.5t-3 65.5t61 40q7 0 36.5 2t41.5 2h36t45.5 -2.5t44.5 -6.5q171 -36 171 -206q0 -164 1.5 -488t1.5 -488q0 -36 -25 -62t-61 -26h-133q-36 0 -62 26t-26 62q0 644 -3 966q0 54 -7 63z" />
    <glyph glyph-name="two" unicode="2" horiz-adv-x="1077" 
d="M646 830q4 88 -20 155.5t-65 103t-90 52t-96.5 10t-83.5 -30.5q-21 -14 -32 -42t-14 -51.5t-15 -42t-35 -18.5q-26 0 -37.5 18t-9.5 43.5t10.5 51.5t21.5 43q50 67 152 98t221 25q102 -6 188 -35.5t136 -79.5q6 -9 23 -18q52 -54 81 -136t27 -166q-2 -78 -28 -135.5
t-56 -89t-91.5 -55.5t-96 -31.5t-108.5 -19.5q-5 -1 -8 -1.5t-7 -1t-8 -1.5q-241 -37 -241 -193h390q12 0 44.5 0.5t48.5 0.5t43.5 -2t42 -8t30.5 -15.5t23 -25.5t7 -38v-109q0 -36 -25 -60.5t-61 -24.5q-665 0 -848 2q-10 148 3.5 258t44 173.5t73.5 105t92.5 59.5
t100.5 29t98.5 20.5t85.5 26.5t62 55.5t27 100.5z" />
    <glyph glyph-name="three" unicode="3" horiz-adv-x="872" 
d="M597 624q112 -25 162 -107.5t40 -192.5q-18 -163 -119.5 -238t-255.5 -82q-92 -5 -193 12.5t-154 63.5q-35 32 -33.5 62.5t35.5 38.5q24 2 40.5 -5.5t20.5 -16.5l4 -9q10 -18 34.5 -32t57.5 -19t70 -2.5t71.5 19.5t62 44.5t42 76t10.5 110.5q-8 99 -69 173t-145 68
q-38 -2 -57 18t-5 41.5t57 21.5q52 -6 90 8.5t58.5 39t32.5 66.5t15.5 78t4.5 87q0 86 -59 147.5t-140 71.5q-46 5 -78 3t-52 -10t-31.5 -16.5t-15.5 -15.5l-4 -6q-2 -19 -9 -28t-13 -8h-6q-18 1 -24.5 13t-4.5 23l2 12q21 53 84.5 88t145.5 46.5t173 -2t167.5 -49
t127.5 -103.5t54 -156q6 -152 -40 -223t-154 -111z" />
    <glyph glyph-name="four" unicode="4" horiz-adv-x="899" 
d="M101 765q62 117 239 458q9 19 28 27t37 3.5t34 -16t20 -30.5t-6 -40q-40 -74 -199 -375q-7 -13 -20 -36q-39 -65 -26.5 -79.5t117.5 -12.5h184v473q0 34 2.5 55.5t11 35.5t17 20t29.5 8t38 1t53 -2.5t65 -1.5q34 0 58.5 -25t24.5 -61q0 -180 1.5 -541.5t1.5 -542.5
q0 -34 -24.5 -58.5t-58.5 -24.5h-134q-35 0 -59 24t-26 59v460q-185 5 -307 5q-157 0 -172 33t61 165q7 13 10 19z" />
    <glyph glyph-name="five" unicode="5" horiz-adv-x="888" 
d="M813 333q-4 -68 -27 -121.5t-57.5 -89t-82.5 -59.5t-99.5 -35t-110.5 -14q-91 -5 -191.5 12t-153.5 63q-35 32 -33.5 62.5t36.5 38.5q24 2 40.5 -5.5t20.5 -16.5l4 -8q10 -18 33 -32t54 -19.5t66 -3.5t68.5 19t61 45t45 76.5t19.5 110.5q1 72 -14 123.5t-43.5 79.5
t-59.5 42t-72 19q-61 5 -102.5 1t-66.5 -0.5t-36 32t-13 98.5q0 84 9 196.5t16 150.5q33 174 204 174q165 0 201 1t201 1q34 0 60 -26t26 -62v-133q0 -35 -26 -60.5t-60 -25.5q-5 0 -65.5 0.5t-114 0.5t-117.5 -1t-106 -4t-50 -8q-37 -23 -37 -166q83 39 167 50.5t161 -12
t134.5 -80t88.5 -163t22 -251.5z" />
    <glyph glyph-name="six" unicode="6" horiz-adv-x="1007" 
d="M679 7q-71 -13 -147.5 -7t-144 26.5t-129 71t-103.5 125.5q-75 137 -87.5 355t42.5 370q50 143 157 222t273 72q85 -3 155 -30t114.5 -69.5t71.5 -87.5t39 -92q17 -62 -10 -96q-23 -29 -54 -2q-13 11 -24 32q-50 88 -111 138.5t-118.5 55.5t-107.5 -48t-75 -163
q-28 -119 -15 -262q75 35 167 36.5t172.5 -27t136.5 -95.5t60 -160q3 -61 -12 -121t-46 -111.5t-84 -87.5t-120 -45zM415 543q22 -116 57 -182q25 -47 63.5 -75.5t80.5 -34.5q70 -8 128 56q56 62 54 134q-3 86 -93 116q-101 35 -290 -14z" />
    <glyph glyph-name="seven" unicode="7" horiz-adv-x="735" 
d="M83 1141q-27 -2 -43 8.5t-18 27.5t2.5 34.5t17 31t26.5 14.5q72 20 299 23t307 -11q29 -7 40.5 -24t0.5 -54q-37 -130 -157 -521t-171 -589q-11 -36 -42.5 -59.5t-65.5 -23.5h-153q-30 0 -23 68q3 27 18 111q51 273 281 971q-175 0 -319 -7z" />
    <glyph glyph-name="eight" unicode="8" horiz-adv-x="931" 
d="M854 474l2 -164q2 -89 -40.5 -167t-132.5 -112q-26 -16 -86.5 -24t-108.5 -9h-47q-221 10 -319 159q-19 30 -31 61t-15.5 71.5t-4 62t2 74t2.5 65.5q6 140 141 199q-109 52 -115 164q0 14 -2 72t-0.5 81.5t13 65t34.5 73.5q88 128 297 138q171 2 224 -28q58 -20 96 -61.5
t52.5 -87.5t12.5 -95l-3 -143q0 -125 -93 -179q116 -58 121 -216zM424 1108q-60 -84 -41 -272q8 -88 73 -111q15 0 42.5 -0.5t48.5 -0.5t38 1q5 -2 17 -3t18 -2q68 21 96 91q44 112 2 277q-15 58 -69.5 83.5t-119.5 8.5t-105 -72zM736 222q12 49 18 102t1.5 113t-22.5 105
q-30 95 -141 110h-17h-81q-108 -19 -116 -141q-20 -220 43 -312q32 -47 82 -70.5t97.5 -19.5t86 33.5t49.5 79.5z" />
    <glyph glyph-name="nine" unicode="9" horiz-adv-x="1042" 
d="M907 1091q27 -53 43.5 -229.5t15.5 -356.5t-18 -252q-11 -45 -29.5 -81t-45.5 -61t-54 -43t-66 -29t-69.5 -17t-76.5 -8.5t-75.5 -3t-78 0t-72.5 0.5q-94 7 -156 38t-94 88t-44 120.5t-13 154.5q0 18 18 28t40 10t40 -10t18 -28q5 -98 20 -149q45 -156 212 -156
q101 0 143 49.5t50 146.5q8 178 0 343q-40 0 -95 -3t-96 -5.5t-90 -2.5t-84.5 4t-70.5 17t-57 33.5t-35.5 55.5t-14.5 82q-2 131 25.5 221.5t88 146.5t147.5 82t212 30q254 -10 362 -216zM208 995q-4 -17 -13 -151q-3 -34 10 -57.5t40 -35t58.5 -17.5t74.5 -5.5t79 2.5t81 5
t72 3q-24 252 -45 292q-49 87 -127.5 114t-145.5 -14t-84 -136z" />
    <glyph glyph-name="colon" unicode=":" horiz-adv-x="374" 
d="M187 637q-56 0 -96 39.5t-40 95.5t40 95.5t96 39.5q55 0 95 -39.5t40 -95.5t-39.5 -95.5t-95.5 -39.5zM187 390q55 0 95 -40t40 -96t-39.5 -96t-95.5 -40t-96 40t-40 96t40 96t96 40z" />
    <glyph glyph-name="semicolon" unicode=";" horiz-adv-x="483" 
d="M396 430q46 -70 17 -229q-18 -93 -77.5 -144t-195.5 -81q-7 -2 -18 -4.5t-37.5 3.5t-43.5 27q-1 2 -2.5 5.5t-1 14.5t6 22t23.5 27t46 30q18 12 29.5 36.5t15 56t4.5 56.5t0 54t-1 34q3 72 21 98q25 33 109 29.5t105 -35.5zM262 711q-56 0 -96 40t-40 96t40 95.5t96 39.5
t95.5 -39.5t39.5 -95.5t-39.5 -96t-95.5 -40z" />
    <glyph glyph-name="less" unicode="&#x3c;" horiz-adv-x="729" 
d="M247 612l418 -355q3 0 6 -2.5t8.5 -20t-0.5 -57.5l-23 -107q-1 -2 -3.5 -4t-11.5 -7.5t-21 -8.5t-33 -2.5t-46 6.5l-467 334q-2 1 -5 3t-11 12t-11 26.5t-6 45.5t5 69q-1 4 -0.5 10.5t7.5 26t21 39.5t47.5 48t81.5 53l387 225q29 7 59 -33q-1 -2 1 -14t-6.5 -29
t-27.5 -22q-19 -6 -110 -61t-172 -107l-82 -52z" />
    <glyph glyph-name="equal" unicode="=" horiz-adv-x="813" 
d="M127 671q-33 0 -56.5 23.5t-23.5 56.5v53q0 33 23.5 56.5t56.5 23.5q191 0 541 -1q33 0 57 -24t24 -57v-53q0 -33 -24 -56.5t-57 -23.5zM684 344q33 0 56.5 -23.5t23.5 -56.5v-54q0 -33 -23.5 -56.5t-56.5 -23.5l-541 2q-33 0 -56.5 23.5t-23.5 56.5v53q0 33 23.5 56.5
t56.5 23.5q191 0 541 -1z" />
    <glyph glyph-name="greater" unicode="&#x3e;" horiz-adv-x="727" 
d="M184 939l467 -334q2 -1 5 -3t11 -12t11 -26.5t6 -45t-5 -68.5q0 -2 0.5 -5.5t-1.5 -14.5t-6.5 -22.5t-15.5 -28.5t-27 -33.5t-44 -35.5t-63 -37l-385 -226q-31 -8 -61 32q1 3 -0.5 15t7 29.5t26.5 23.5q19 5 110.5 59.5t174.5 105.5l82 52l2 16l-418 355q-3 0 -6 2.5
t-8.5 20t2.5 57.5l24 107q1 2 3.5 4t11.5 7.5t20.5 8.5t32 3t44.5 -6z" />
    <glyph glyph-name="question" unicode="?" horiz-adv-x="835" 
d="M297 106q0 53 38.5 91.5t92.5 38.5t92 -38.5t38 -91.5q0 -54 -38 -92.5t-92 -38.5t-92.5 38.5t-38.5 92.5zM381 1231q76 -3 139 -21.5t103.5 -45t71.5 -58t47 -62t26 -56t12 -40.5l3 -16q5 -11 5 -41t-5 -69t-18 -82t-31 -80t-47.5 -63t-64.5 -31q-43 -5 -72 -22.5
t-40 -38.5t-16.5 -41.5t-3.5 -33.5l1 -14q3 -31 -7.5 -49.5t-22.5 -21.5l-12 -3q-29 -2 -47 9t-22 23l-4 12q-31 153 63 285q39 54 58 109.5t11.5 119t-50.5 114.5q-32 39 -79.5 58.5t-92.5 15.5t-82 -23t-53.5 -60.5t-2.5 -93.5q3 -27 -2 -46t-14 -26.5t-18.5 -11.5
t-15.5 -4h-7q-24 -3 -39 19t-18 46l-3 23l2 56q9 53 33 96.5t55.5 70.5t67 47t69.5 29t61.5 14.5t44.5 5.5z" />
    <glyph glyph-name="at" unicode="@" horiz-adv-x="1165" 
d="M352 580q-1 65 26 137.5t82.5 127t122.5 53.5q139 -1 190.5 -80.5t10.5 -213.5l-5 -54q0 -3 1 -7t5 -16.5t9.5 -21.5t14.5 -22t21 -17.5t28.5 -8t37.5 6.5q57 29 84.5 88t25.5 127t-31 141t-77.5 132t-121 97.5t-153.5 39.5q-106 2 -203 -56.5t-160.5 -164t-73.5 -232.5
q-8 -85 9.5 -172.5t57 -164.5t106 -135.5t150.5 -82.5q56 -19 115 -16t109.5 20.5t90.5 60t60 103.5q1 3 4.5 8t16.5 13t29 7l6 -3t12.5 -9.5t13 -17t3 -26t-11.5 -35.5q-44 -80 -119.5 -131.5t-163 -63.5t-181 2.5t-176 70t-145 135t-92 202t-13.5 266.5q7 69 23.5 133
t55.5 139.5t94.5 131.5t148.5 96.5t211 47.5q91 1 171.5 -29.5t139 -83t102 -121t66.5 -143t27 -148.5q6 -112 -31.5 -194.5t-122.5 -120t-219 4.5q-32 -28 -77.5 -50t-76.5 -23q-89 -5 -156 78t-71 195zM656 459q-5 96 35 224q9 61 -23 93.5t-82 28.5q-65 -7 -103.5 -48
t-46.5 -95.5t3 -112t39 -99.5q18 -26 34.5 -41t32 -18t29 -0.5t29 15t26.5 23.5t27 30z" />
    <glyph glyph-name="A" unicode="A" horiz-adv-x="876" 
d="M636 618l-87 382q-28 -113 -99 -381zM655 537l-227 1q-48 -177 -86 -324q-3 -13 -10.5 -49.5t-13.5 -59t-18 -50t-31 -41.5t-45 -14h-128q-35 0 -61.5 25t-18.5 55l274 1043q20 80 80 80h128q30 0 55.5 -19.5t26.5 -45.5l4 1q262 -1012 272 -1079q3 -20 1.5 -33t-6 -20.5
t-9 -11t-8.5 -3.5l-4 -1q-21 -6 -36 3.5t-19 21.5l-4 12z" />
    <glyph glyph-name="B" unicode="B" horiz-adv-x="954" 
d="M651 555q106 -4 189 -91t79 -191q-2 -63 -29.5 -111.5t-73 -79t-103 -51t-124 -29.5t-131.5 -12t-129.5 -2.5t-114.5 2.5q-36 2 -52 2q-31 2 -53.5 24t-22.5 54q0 143 1 431t1 432v131v17.5v16.5v14t1 13t2 10t2.5 10t4.5 7q19 29 128.5 33t211.5 -7t144 -21
q82 -22 141 -63q57 -39 88.5 -98.5t32.5 -123t-19 -125.5t-66 -113t-108 -79zM720 850q-4 108 -87 154.5t-273 46.5q0 -34 2.5 -218t2.5 -237q195 -1 277 60t78 194zM365 112q43 0 94.5 -1.5t106.5 8t100.5 24.5t77 48t34.5 78t-7 80t-26 57t-45 36.5t-55.5 21.5t-67.5 10
t-70 2.5t-74 -1.5t-70 -1q2 -249 2 -362z" />
    <glyph glyph-name="C" unicode="C" horiz-adv-x="948" 
d="M436 1251q8 2 23 5t58 6.5t83.5 1t92.5 -15.5t93.5 -38.5t77.5 -73.5t52 -115q1 -3 1.5 -9t0 -20.5t-3 -26t-10 -21.5t-20.5 -11h-10q-19 6 -23 63v2q0 2 -1 5.5t-5.5 14.5t-10 21.5t-15 24t-21 24t-28.5 20t-36.5 14.5t-46 4.5t-55.5 -8.5q-5 -1 -13 -3t-31 -14.5
t-44.5 -31.5t-47 -56.5t-44.5 -85.5t-31.5 -124t-12.5 -167q-1 -6 -2.5 -17.5t-3.5 -46t-2 -68t3.5 -78.5t12 -84t25.5 -78.5t41 -67.5t61 -45t84 -17q2 0 6 -0.5t16.5 1.5t25 6.5t29 15t31 26.5t29.5 42.5t26 60.5q1 3 2 7t6.5 15t13.5 19t22.5 13.5t32.5 4.5q2 -1 5.5 -3
t10 -10.5t9.5 -20.5t0 -35t-14 -52q-5 -7 -14 -19.5t-39.5 -45.5t-63 -61t-83.5 -56.5t-102.5 -42.5t-117.5 -8.5t-131 36.5q-79 38 -132.5 88t-81.5 112.5t-40 126t-14 145.5q0 65 -2 133t6 137.5t20.5 135t41 124t68 104.5t101.5 77t142 41z" />
    <glyph glyph-name="D" unicode="D" horiz-adv-x="927" 
d="M516 1169q97 -15 161.5 -48.5t109.5 -100.5t63.5 -172.5t15.5 -260.5q-2 -78 -4 -128.5t-7.5 -108t-12.5 -92.5t-19 -74.5t-28.5 -62t-40.5 -46.5t-54 -36.5t-70 -24t-87.5 -17t-108.5 -7.5q-89 -2 -270 -2q-32 0 -55 22t-23 55q0 681 2 1024q0 80 132 94q65 5 150.5 0.5
t145.5 -14.5zM751 573q1 66 -2 118.5t-13 107t-27.5 95.5t-46.5 77t-69 58t-97 32.5t-128 6.5q0 -632 -2 -951q80 -2 138 6.5t101 31.5t70 56.5t44 88t24 118.5t8 155z" />
    <glyph glyph-name="E" unicode="E" horiz-adv-x="933" 
d="M168 1192h128q6 0 16 -2l560 -2q2 0 5.5 -0.5t12.5 -3t16 -7t14 -13t10 -19.5q0 -2 -1 -5t-5 -10.5t-10 -13t-17.5 -10t-25.5 -4.5q-54 2 -495 -6q0 -322 -1 -483l249 -1q2 0 5.5 -0.5t12.5 -3t16 -7t14 -13t10 -19.5q-1 -5 -4 -12.5t-18 -19.5t-38 -11q-39 1 -247 -5
v-431l497 -2q5 0 13.5 -1.5t24.5 -12t20 -28.5q0 -2 -1 -5t-5.5 -10.5t-10.5 -13t-17.5 -10t-25.5 -4.5q-45 1 -544 -8q-15 -6 -32 -6h-128q-33 0 -56.5 23.5t-23.5 56.5l2 1042q0 33 23.5 57t56.5 24z" />
    <glyph glyph-name="F" unicode="F" horiz-adv-x="884" 
d="M168 1192h128q13 0 26 -5l518 -2q5 0 13.5 -2t25 -12.5t20.5 -28.5q0 -2 -1 -5t-5.5 -10.5t-10.5 -13t-17.5 -10t-25.5 -3.5q-20 1 -463 -7v-467l205 -1q6 0 14.5 -2t24.5 -12.5t20 -28.5q0 -2 -1 -5t-5.5 -10.5t-10.5 -13t-17.5 -10t-25.5 -3.5q-11 0 -41.5 -0.5
t-80.5 -2t-83 -2.5v-466q-1 -33 -24.5 -56.5t-56.5 -23.5h-127q-33 0 -57 23.5t-24 56.5l2 1042q0 33 23.5 57t56.5 24z" />
    <glyph glyph-name="G" unicode="G" horiz-adv-x="948" 
d="M80 957q41 159 211 206q37 10 89 13.5t128.5 3t92.5 -0.5q70 -5 120.5 -25.5t81.5 -51.5t49.5 -78.5t25 -97t7.5 -115.5q-1 -13 -12 -22t-26.5 -11t-31 0t-26 11t-10.5 22q-9 103 -19 137q-42 143 -194 143q-95 0 -133.5 -45.5t-44.5 -136.5q-3 -74 -5 -200t11.5 -273
t39.5 -194q27 -49 66.5 -78t80 -34t78 7.5t66 49t38.5 88.5q1 6 3 23t3.5 34.5t2.5 34.5q5 73 -1 85q-7 13 -47 12q-68 -2 -73 -2q-33 0 -48 19.5t-2.5 40.5t48.5 23q164 1 185 -2q41 -5 49 -31q5 -15 4 -98v-31q2 -113 -42.5 -213.5t-137.5 -142.5q-28 -19 -91.5 -28.5
t-113.5 -10.5h-49q-234 9 -334 199q-26 49 -41.5 210.5t-14.5 326.5t17 233z" />
    <glyph glyph-name="H" unicode="H" horiz-adv-x="956" 
d="M736 1123q0 22 13.5 37.5t33 19.5t38.5 1t32.5 -18t13.5 -38v-1106q0 -19 -32.5 -27.5t-65 0t-33.5 29.5v516q-67 0 -363 -4q0 -77 -1.5 -232.5t-1.5 -233.5q0 -33 -22.5 -56t-55.5 -23h-127q-32 0 -55.5 23.5t-23.5 55.5l2 1030q0 33 23 56t56 23h127q33 0 56 -23
t23 -56v-474l363 -2v502z" />
    <glyph glyph-name="I" unicode="I" horiz-adv-x="462" 
d="M168 1192h128q33 0 56.5 -24t23.5 -57q0 -342 -2 -1042q0 -33 -23.5 -56.5t-56.5 -23.5h-128q-33 0 -56.5 23.5t-23.5 56.5l2 1042q0 33 23.5 57t56.5 24z" />
    <glyph glyph-name="J" unicode="J" horiz-adv-x="788" 
d="M506 1173h128q33 0 56.5 -23.5t23.5 -56.5q0 -416 -1 -766q0 -19 -9 -37q-5 -27 -14.5 -56t-37.5 -77.5t-65.5 -84t-103.5 -61t-147 -22.5h-14t-36 3t-53 9t-61 20.5t-63.5 34.5t-56.5 53.5t-45 75.5q-3 5 -5 14.5t4.5 34.5t29.5 47q2 2 6 3.5t15.5 2t22 -5.5t22.5 -26.5
t20 -54.5q1 -4 4 -10.5t16.5 -22.5t31.5 -28.5t52.5 -23t76.5 -10.5q2 0 6.5 0.5t16.5 5t23 12.5t24.5 25t23.5 40.5t17.5 62t8.5 85.5q1 5 1 14.5v13.5l2 729q1 33 24 56.5t56 23.5z" />
    <glyph glyph-name="K" unicode="K" horiz-adv-x="944" 
d="M168 1192h128q33 0 56.5 -24t23.5 -57q0 -360 -1 -541l393 563q13 18 28.5 25.5t27.5 2.5t20.5 -15t7 -27t-13.5 -34q-5 -8 -45 -67t-103.5 -153t-116.5 -172l350 -599q16 -34 6.5 -55.5t-36.5 -19.5t-44 31q-13 22 -336 555l-138 -205q-1 -55 -1 -165.5v-165.5
q0 -33 -23.5 -56.5t-56.5 -23.5h-128q-33 0 -56.5 23.5t-23.5 56.5l2 1042q0 33 23.5 57t56.5 24z" />
    <glyph glyph-name="L" unicode="L" horiz-adv-x="696" 
d="M651 84q38 0 52 -22t-2.5 -43.5t-51.5 -20.5q-15 0 -59 -1t-121.5 -3t-151.5 -3q-11 -3 -19 -3h-131q-33 0 -57 24t-24 58l2 1058q0 34 24 58.5t57 24.5h131q33 0 57 -24t24 -58q0 -693 -2 -1042z" />
    <glyph glyph-name="M" unicode="M" horiz-adv-x="1073" 
d="M923 1183q12 2 21 2.5t15.5 -1.5t11 -5t7 -7.5t4.5 -10.5t2.5 -13t0.5 -15v-17v-10v-1042q0 -22 -12 -36.5t-29.5 -17t-35 1.5t-29.5 19t-11 36q0 9 -1 172.5t-1.5 372.5t-0.5 329q-163 -307 -201 -396q-17 -40 -43.5 -46.5t-49.5 36.5q-16 35 -198 383q0 -389 -3 -851
q0 -33 -22.5 -56t-55.5 -23h-127q-32 0 -55.5 23.5t-23.5 55.5l2 1030q0 33 23 56t56 23q6 0 45.5 0.5t54 0t42.5 -4.5t50 -11q17 -6 30.5 -19.5t19.5 -25t23.5 -49t28.5 -59.5l153 -303l160 315q6 13 18.5 39t17 35t13 24t14.5 23t14 15q14 14 72 27z" />
    <glyph glyph-name="N" unicode="N" horiz-adv-x="1042" 
d="M88 1111q0 32 23.5 55.5t55.5 23.5h127q21 0 40 -10t33 -23.5t29 -36.5t23 -38.5t20.5 -41.5t16.5 -34q203 -415 380 -752q-1 103 -2 306t-1.5 362t-1.5 206q-1 44 29.5 62.5t61.5 0.5t31 -63v-1051q0 -74 -31 -81q-86 -23 -105 33q-4 16 -73 148t-194.5 369t-176.5 334
q0 -350 -3 -801q0 -33 -23 -55.5t-56 -22.5h-126q-32 0 -55.5 23t-23.5 55q0 172 1 516t1 516z" />
    <glyph glyph-name="O" unicode="O" horiz-adv-x="995" 
d="M301 1219q39 11 91.5 14t137.5 2t95 -1q291 -19 296 -333l3 -498q2 -119 -44.5 -223.5t-144.5 -149.5q-28 -20 -94.5 -30t-118.5 -10l-52 -1q-244 10 -348 208q-27 51 -43 220.5t-15.5 342.5t17.5 243q41 167 220 216zM401 953q-2 -78 -4 -209.5t12 -284.5t41 -203
q35 -63 89 -94t105.5 -26.5t94 44.5t55.5 108q19 102 21 349t-24 355q-46 151 -203 152q-99 -1 -139.5 -49.5t-47.5 -141.5z" />
    <glyph glyph-name="P" unicode="P" horiz-adv-x="978" 
d="M295 -11h-127q-33 0 -57 23.5t-24 56.5v251l-1 -1v216l1 3l2 573q0 33 23.5 57t56.5 24h128q44 0 67 -36q93 55 219.5 46.5t210.5 -81.5q74 -65 114 -175.5t39 -222t-49 -212.5t-138 -146t-196.5 -33t-183.5 73l-4 -336q-1 -33 -24.5 -56.5t-56.5 -23.5zM377 1018v-489
q39 -47 96.5 -65t116 -6.5t106.5 48.5q103 77 111 237q5 90 -30 174t-99 127q-64 44 -149 37t-152 -63z" />
    <glyph glyph-name="Q" unicode="Q" horiz-adv-x="999" 
d="M873 11q3 0 8.5 -0.5t18 -4.5t21.5 -9.5t14 -17.5t1 -28q-1 -3 -3 -7t-9.5 -15.5t-17 -17t-25 -11t-33.5 2.5q-45 14 -72 32.5t-55 63.5q-34 -16 -97 -24t-109 -9h-46q-244 10 -348 208q-41 79 -54 391t14 415q23 95 85 145.5t135 70.5q39 11 93.5 14t133.5 2.5t97 -0.5
q291 -20 296 -334l3 -498q2 -89 -25 -174t-84 -142q32 -47 58 -53zM793 265q19 102 21 349.5t-24 354.5q-46 151 -202 152q-99 -1 -139.5 -49t-47.5 -142q-3 -52 -4 -145.5t2.5 -205t16.5 -210t34 -136.5q36 -64 89 -94.5t108 -24.5l-2 3l-6 6t-13 15.5t-16 22.5t-12.5 26
t-5 27.5t10 24.5t28.5 19q3 2 7.5 5.5t18 6t27.5 -2.5t33 -26.5t36 -59.5q1 -2 2 -5q28 37 38 89z" />
    <glyph glyph-name="R" unicode="R" horiz-adv-x="985" 
d="M295 11h-128q-33 0 -56.5 23.5t-23.5 56.5v251l-1 -2v217l1 3l1 574q1 33 24.5 56.5t56.5 23.5h128q44 0 67 -36q94 55 220 47t210 -81q59 -52 98 -134.5t49 -173.5t-3 -179t-59.5 -161.5t-118.5 -109.5q-43 -22 -89 -29q45 -179 119 -269l7.5 -5t13.5 -13t12.5 -20
t-2 -23.5t-23.5 -26.5q-3 -2 -8 -5t-20.5 -5.5t-30 2.5t-34 25.5t-36.5 56.5q-17 37 -48 97t-47.5 100t-24.5 85q-96 14 -170 71l-4 -336q-1 -33 -24 -56.5t-56 -23.5zM377 1040l-1 -489q39 -47 96.5 -65t116 -6t107.5 49q103 77 111 236q4 91 -31 175t-99 127t-148 36
t-152 -63z" />
    <glyph glyph-name="S" unicode="S" horiz-adv-x="956" 
d="M857 892q-24 -3 -39 9t-18 25l-3 14q-16 56 -69 84t-115.5 21t-120 -34.5t-88.5 -86.5t-16 -131q11 -51 38 -83t64.5 -45.5t75 -19.5t83 -14.5t74.5 -22.5q108 -52 161.5 -156.5t11.5 -226.5q-33 -95 -106.5 -147t-161.5 -72q-63 -15 -129.5 -17t-135 10t-129.5 47
t-100 90q-28 37 -40.5 67.5t-10 48t9 30t13.5 16.5l8 5q19 11 36 -3.5t24 -34.5l8 -20q24 -41 69.5 -69.5t96.5 -40.5t103.5 -12t95.5 13q39 12 67.5 36t41 49.5t19 49.5t6.5 39v15q-2 51 -18.5 87.5t-40 54.5t-51.5 27.5t-55.5 9t-50.5 -3t-37 -6.5l-14 -4
q-109 -28 -197.5 11t-135 132.5t-36.5 217.5q9 108 68.5 182t144.5 103.5t185 33t189.5 -19t159.5 -63t94 -89.5q12 -39 5.5 -62.5t-20.5 -33.5z" />
    <glyph glyph-name="T" unicode="T" horiz-adv-x="796" 
d="M553 1133q3 -10 3 -22q0 -692 -1 -1042q-1 -33 -24.5 -56.5t-56.5 -23.5h-128q-33 0 -56.5 23.5t-23.5 56.5l2 1042q0 8 2 20h-22v2q-204 2 -220 1q-27 -1 -39 15.5t-1.5 33.5t39.5 17l370 -1l371 1q29 0 39.5 -17t-1.5 -33.5t-39 -15.5q-15 1 -214 -1z" />
    <glyph glyph-name="U" unicode="U" horiz-adv-x="1001" 
d="M160 1193h127q32 0 55.5 -23.5t23.5 -55.5v-611v-35q0 -61 0.5 -89.5t5 -74.5t14.5 -67t28.5 -49.5t46.5 -41t69.5 -23t97.5 -12.5q125 -3 151 117q8 38 13.5 95t7.5 131.5t2 139.5t-2 157t-3.5 143t-4.5 137.5t-4 103.5q-1 21 13 36t33.5 19t39.5 1.5t34 -17t14 -36.5
l-5 -669q0 -71 -2 -121t-7.5 -101t-15 -84.5t-25 -65t-37 -50t-51.5 -33t-69 -20t-89 -5.5q-217 0 -317.5 20t-162.5 92q-33 39 -49 186t-16.5 287.5t2.5 325.5t3 214q0 32 23.5 55.5t55.5 23.5z" />
    <glyph glyph-name="V" unicode="V" horiz-adv-x="892" 
d="M854 1145q8 -63 -18 -251.5t-69 -390t-102.5 -358.5t-110.5 -157h-128q-33 0 -64 23.5t-40 56.5q-53 183 -156.5 531.5t-151.5 511.5q-10 33 6.5 56t49.5 23h128q33 0 63 -23t41 -56q53 -178 259 -867q50 115 104 383t75 520q5 42 33.5 50.5t55 -10t25.5 -42.5z" />
    <glyph glyph-name="W" unicode="W" horiz-adv-x="1243" 
d="M1204 1120q5 -81 -21.5 -266.5t-68.5 -378.5t-100 -340t-109 -147h-128q-34 0 -64.5 23.5t-39.5 55.5l-17 56q-56 -135 -104 -135h-127q-33 0 -64 23.5t-40 55.5q-50 174 -153.5 520.5t-153.5 520.5q-10 32 6.5 55.5t49.5 23.5h128q32 0 62 -23.5t41 -55.5
q37 -127 129.5 -438t141.5 -480q43 104 84 268q12 53 50.5 81.5t80.5 8t60 -94.5q9 -40 16.5 -67t20 -66t21.5 -67q54 128 109.5 381t68.5 488q3 51 35 65.5t60.5 -7t25.5 -60.5z" />
    <glyph glyph-name="X" unicode="X" horiz-adv-x="913" 
d="M589 595q47 -85 143.5 -261t143.5 -261q18 -32 7 -55.5t-43 -23.5q-12 0 -46.5 -1t-49.5 -0.5t-43.5 4.5t-45 12t-35 24t-31.5 40q-53 101 -163 307q-41 -56 -132 -179.5t-139 -190.5q-17 -23 -73 -20q-53 2 -61 26q-3 8 2 18q10 19 117.5 172.5t213.5 297.5
q-145 272 -329 607q-18 32 -7 55.5t43 23.5h125q34 0 70.5 -23t54.5 -56q85 -155 213 -391q62 69 131.5 190t122.5 256q9 28 46 28q40 1 57 -31q12 -27 0 -64q-44 -129 -110 -240t-182 -264z" />
    <glyph glyph-name="Y" unicode="Y" horiz-adv-x="849" 
d="M759 1189q120 -7 21 -400q-19 -78 -64 -195.5t-105 -242t-134 -224t-138 -123.5q-6 -2 -16 -5.5t-40 -7.5t-57.5 -2.5t-62.5 15t-61 39.5q-6 4 -15.5 12.5t-29 39t-26.5 67.5q-4 29 -6 62.5t15 61.5t53 30q20 2 34.5 -10.5t18.5 -35.5q2 -19 -1 -38t-2.5 -34.5
t10.5 -35.5q31 -67 103 -57q34 5 68.5 31.5t59.5 62t41 64t24 48.5q-1 0 -9.5 2t-14.5 4.5t-17 7.5t-21.5 14t-22 21t-23.5 31.5t-23 43.5q-45 91 -165 460q-9 28 -30.5 92t-27.5 89q-8 25 -11 37.5t-4 28.5t5.5 23t21.5 13.5t39 7.5q67 4 110 -12.5t74 -69.5
q40 -67 119.5 -315t95.5 -289q112 209 148 609q1 13 2 18q4 34 18 48.5t46 13.5z" />
    <glyph glyph-name="Z" unicode="Z" horiz-adv-x="1026" 
d="M912 128q57 3 77.5 -32t-3 -71t-72.5 -36q-186 -3 -799 2q-54 2 -78 28t-16 105q6 54 77.5 163t164.5 225t182 226.5t139 188t27 89.5q-16 12 -484 12q-41 2 -60 30.5t-2 57.5t64 31q452 6 830 16q0 -2 5 0t12 -2.5t14 -12t12 -28t4 -49.5q2 -70 -512 -741
q-19 -25 -28 -36q-11 -14 -16 -21.5l-17 -25.5t-17 -29.5t-11.5 -28t-4 -26.5t9 -20t23.5 -14t43 -3q63 5 218 3t218 -1z" />
    <glyph glyph-name="bracketleft" unicode="[" horiz-adv-x="604" 
d="M513 86q37 0 51 -22t-2 -43t-50 -20q-22 1 -173 -3q-18 -12 -43 -12h-127q-33 0 -57 23.5t-24 56.5l2 1043q0 25 15 46t38 29v5h22h5h128q9 0 14 -1l202 -2q37 0 50.5 -22t-2 -43t-50.5 -20q-16 1 -134 -3q0 -670 -1 -1010z" />
    <glyph glyph-name="backslash" unicode="\" horiz-adv-x="579" 
d="M105 1211l-6 -8l50 8q11 0 21.5 -7.5t14.5 -18.5l306 -1221q4 -10 0.5 -18t-13.5 -8l-50 -8q-23 0 -39 26l-303 1221q-6 11 1.5 22.5t17.5 11.5z" />
    <glyph glyph-name="bracketright" unicode="]" horiz-adv-x="604" 
d="M513 1109l1 -1043q0 -33 -23.5 -56.5t-56.5 -23.5h-128q-24 0 -42 12q-152 4 -173 3q-35 -1 -50.5 20t-2 43t50.5 22l137 1q-1 340 -1 1011q-118 4 -134 3q-35 -1 -50.5 20t-2 43t50.5 22l202 2q4 1 14 1h128h5h22v-5q24 -9 38.5 -29.5t14.5 -45.5z" />
    <glyph glyph-name="asciicircum" unicode="^" horiz-adv-x="460" 
d="M421 818q3 -20 -14 -41q-23 -5 -28 23q-2 13 -25.5 76.5t-45.5 121.5l-22 57l-7 2l-151 -291q0 -2 -1 -4t-8.5 -6t-24.5 1l-45 16q-2 2 -4 7t-5.5 25t1.5 48l143 325q0 1 1 3t5.5 7.5t11.5 8t19 4t29 -3.5q1 -2 4.5 0t11.5 -4t17 -15.5t20.5 -33t22.5 -57.5z" />
    <glyph glyph-name="underscore" unicode="_" horiz-adv-x="759" 
d="M650 151q33 0 56.5 -23.5t23.5 -56.5v-53q0 -33 -23.5 -57t-56.5 -23l-541 1q-33 1 -56.5 24.5t-23.5 56.5v53q0 33 23.5 56.5t56.5 23.5q151 0 207 -0.5t125.5 -1t208.5 -0.5z" />
    <glyph glyph-name="grave" unicode="`" horiz-adv-x="479" 
d="M319 1352q2 -17 18 -41.5t31 -42.5t22 -40t-10 -35q-29 -23 -72 -16t-84.5 30.5t-77.5 63.5t-51 83q-16 51 5 85t75 34q42 0 70 -16q69 -33 72 -105h2z" />
    <glyph glyph-name="a" unicode="a" horiz-adv-x="1007" 
d="M938 107q23 -4 35 -23.5t11 -41.5t-17 -40t-43 -18q-76 -1 -116.5 37.5t-52.5 99.5q-44 -63 -109.5 -100t-143.5 -37q-314 3 -415 234q-53 120 -40 292t85 280q40 60 99.5 100t124.5 56.5t138 21.5t141 -5q124 -14 184.5 -81.5t61.5 -226.5q0 -29 3 -216t-1 -216
q-2 -58 8.5 -85.5t46.5 -30.5zM751 228q0 21 2 80.5t2 120t-4 119.5q-3 41 -7.5 69.5t-16 61.5t-29.5 52t-49.5 30t-73.5 7q-85 -8 -140 -87q-51 -82 -64 -199t15 -211q28 -100 93 -137.5t138.5 -10t133.5 104.5z" />
    <glyph glyph-name="b" unicode="b" horiz-adv-x="1017" 
d="M80 1168q0 34 24 58t58 24h131q34 0 57.5 -24t23.5 -58q1 -63 2 -129t2 -129q41 55 112 79.5t148 24.5q118 -1 198.5 -82t111.5 -200t21 -253q-14 -166 -98 -294t-214.5 -171t-292.5 44q-26 -37 -69 -37h-131q-34 0 -58 24t-24 58q-2 356 -2 1065zM632 892
q-62 0 -131.5 -45t-124.5 -137v-470q115 -92 211 -76.5t161 103t80 210.5q12 75 3 148.5t-30.5 132.5t-65.5 96t-103 38z" />
    <glyph glyph-name="c" unicode="c" horiz-adv-x="948" 
d="M855 292q33 -5 43 -25t-0.5 -47t-23.5 -49t-29 -42q-43 -56 -109.5 -86.5t-126 -37t-143.5 -5.5q-250 12 -357 215q-45 87 -56.5 246t15.5 257q27 103 67 157.5t127 83.5q101 34 239 38t219 -20q138 -42 184 -171q26 -77 -35 -94q-26 -8 -50.5 8t-33.5 49
q-49 129 -198 129q-101 0 -143 -50t-47 -147q-24 -291 49 -427q35 -65 89.5 -96.5t112.5 -26.5q39 4 66 21.5t40.5 38.5t26 41.5t30.5 32t44 7.5z" />
    <glyph glyph-name="d" unicode="d" horiz-adv-x="1009" 
d="M718 1189h129q33 0 57.5 -23.5t24.5 -56.5q0 -174 -1 -527t-1 -530q0 -33 -23.5 -57t-56.5 -24h-131q-45 0 -69 37q-176 -58 -306.5 -23.5t-208 141.5t-84.5 259q-5 100 12 195t54.5 177t105.5 132.5t157 51.5q190 0 256 -88q0 62 1 127t1 129q2 33 26 56.5t57 23.5z
M635 187v468q-94 157 -248 153q-77 -1 -129 -67t-69 -161.5t-4 -196.5q15 -117 80.5 -193t161 -82.5t208.5 79.5z" />
    <glyph glyph-name="e" unicode="e" horiz-adv-x="931" 
d="M768 264q13 52 48 63q31 10 45 -19q14 -28 -3 -75q-28 -76 -78 -128t-100.5 -71.5t-97.5 -28t-76 -5.5l-30 2q-88 5 -159.5 34t-115 71t-76 91.5t-47 97.5t-23 88t-9.5 64l-1 25q-7 277 132.5 409t397.5 100q59 -6 110 -28.5t86 -56t61 -75t36.5 -86.5t12 -90.5
t-12.5 -87.5t-37.5 -76t-62.5 -57.5t-87 -31.5q-40 -12 -117 -16t-134 -2l-57 2q7 -74 26 -130t40 -82.5t41.5 -42.5t33.5 -18l14 -3q83 -12 149.5 35t90.5 128zM509 824q-52 -28 -83 -75.5t-38 -98t-9.5 -106t1.5 -99.5q11 -1 30 -1.5t71 3t97.5 14t95.5 38t78 68.5
q20 40 19.5 81t-18 74t-45.5 61t-62.5 41t-69.5 16t-67 -16z" />
    <glyph glyph-name="f" unicode="f" horiz-adv-x="573" 
d="M568 1201q3 0 8 -1t16.5 -6t20 -11.5t14.5 -19t3 -28.5q0 -3 0.5 -7t-2 -15.5t-8.5 -19.5t-21.5 -15t-37.5 -6q-19 -1 -49 -2q-28 -1 -39 -1t-24.5 -5t-16.5 -8.5t-7 -19.5t-4 -28.5v-44.5v-3v-3v-4v-210h107q12 0 21 -9.5t9 -21.5v-16q0 -13 -8.5 -21.5t-21.5 -8.5h-107
q-1 -97 -1.5 -292.5t-0.5 -293.5q0 -33 -23.5 -56.5t-56.5 -23.5h-128q-33 0 -56.5 23.5t-23.5 56.5l1 586h-79q-13 0 -21.5 8.5t-8.5 21.5v16q0 12 9 21.5t21 9.5h79l1 261q0 45 13.5 79.5t33 56.5t53 36.5t61 21t71.5 8.5t70.5 1t71 -3.5t61.5 -2.5z" />
    <glyph glyph-name="g" unicode="g" horiz-adv-x="968" 
d="M806 1021q32 0 55.5 -24t23.5 -56q0 -141 -1 -463t-1 -463q0 -72 -1.5 -110.5t-9 -96t-26 -101.5t-49.5 -83q-51 -64 -142.5 -88.5t-180 -7.5t-157 86t-74.5 176q-1 27 9.5 41t21.5 14h10q23 -3 32.5 -21t7.5 -34l-1 -17q4 -40 18.5 -68.5t32 -40.5t34.5 -18t28 -6h12
q36 0 63.5 12.5t43.5 32.5t26.5 50t14 60t4.5 67.5t-0.5 67.5t-3 65.5t-1.5 55.5q-39 -26 -82 -40.5t-67 -15.5l-23 -1q-141 -15 -237 79t-120 240.5t-6 298.5t101 267.5t203 132.5q71 9 138.5 -5.5t100.5 -30.5q23 45 72 45h131zM595 174v636q-37 36 -79.5 51.5t-66.5 13.5
l-24 -2q-71 -8 -122 -54t-73 -113t-28.5 -146t10.5 -156t45 -140t73.5 -102t98.5 -39q125 0 166 51z" />
    <glyph glyph-name="h" unicode="h" horiz-adv-x="995" 
d="M162 1203h128q33 0 56.5 -23.5t23.5 -56.5v-251q42 51 113 73t143.5 14.5t130.5 -37.5q34 -17 60.5 -38.5t43.5 -41t29 -47t18 -46.5t9 -51.5t3.5 -49.5t0.5 -53v-50q3 -183 3 -469q0 -50 -21.5 -64.5t-68.5 -7.5q-57 7 -57 54v604q-29 151 -199 153q-145 1 -208 -161
l-1 -573q-1 -33 -24.5 -57t-56.5 -24h-128q-33 0 -56.5 24t-23.5 57l2 1042q0 33 23.5 56.5t56.5 23.5z" />
    <glyph glyph-name="i" unicode="i" horiz-adv-x="419" 
d="M255 967q35 0 59 -24t24 -58q0 -439 -2 -802q0 -35 -24 -59t-59 -24h-90q-35 0 -59 24t-24 59q0 128 1 401t1 401q0 34 24 58t59 24h90zM210 1048q-50 0 -85.5 34.5t-35.5 83.5q0 50 36 86t85 36t84 -36t35 -86q0 -49 -34.5 -83.5t-84.5 -34.5z" />
    <glyph glyph-name="j" unicode="j" horiz-adv-x="452" 
d="M-190 -232q4 -40 18.5 -68t32 -39.5t34 -18t27.5 -6.5l12 1q134 0 149 197q14 113 1.5 489.5t-8.5 489.5q4 156 85 156h128q33 0 56.5 -23.5t23.5 -56.5q0 -559 -1 -840q0 -72 -2 -115.5t-9 -108.5t-26 -115.5t-49 -88.5q-33 -42 -87 -68t-113 -33t-120.5 6t-111 44
t-83 87t-37.5 128q-1 27 9.5 40.5t20.5 13.5h11q23 -2 32.5 -20t8.5 -35z" />
    <glyph glyph-name="k" unicode="k" horiz-adv-x="831" 
d="M801 80q14 -27 7.5 -45.5t-21 -28.5t-35.5 -4.5t-35 26.5q-15 22 -266 467l-103 -116q0 -31 2.5 -131.5t1.5 -169.5q0 -30 -22 -52.5t-55 -22.5h-120q-30 0 -52.5 22.5t-22.5 52.5l2 821q0 31 22 53t54 22h119q32 0 54 -22t22 -53v-367l381 426q23 33 52 16
q26 -15 22 -47q-1 -17 -14 -32q-41 -53 -148 -181.5t-116 -139.5z" />
    <glyph glyph-name="l" unicode="l" horiz-adv-x="514" 
d="M425 135q33 -1 52.5 -20t20.5 -42t-16 -44t-48 -25q-11 0 -43 -2t-49 -2t-45.5 1.5t-55.5 6.5q-163 33 -163 195q0 156 -1 463.5t-1 462.5q0 34 24 58t58 24h126q34 0 58 -24t24 -58q0 -611 2 -916q0 -47 8 -60q12 -18 49 -18z" />
    <glyph glyph-name="m" unicode="m" horiz-adv-x="1359" 
d="M1025 998q51 3 93.5 -10.5t68.5 -37.5t45.5 -53.5t29 -59.5t15 -55t6.5 -40l1 -16q-6 -586 -6 -658q0 -31 -18 -48t-36 -18l-17 -2q-31 1 -47 19.5t-16 36.5l-1 18q2 54 4.5 138.5t6 256t1.5 236.5q-1 41 -15 72.5t-33 46.5t-37.5 24t-31.5 11l-13 2q-47 1 -80 -17.5
t-49 -51.5t-22.5 -67t-6.5 -75q0 -472 -2 -554q-1 -30 -8.5 -51t-18 -29t-20 -12t-16.5 -3l-7 1q-29 -2 -49 7t-28 24t-12 30t-4 26l1 11q0 88 -1 287.5t-1 287.5q-2 43 -15 75.5t-29.5 47.5t-33 24t-27.5 10l-11 2q-51 1 -91.5 -16.5t-64 -45.5t-35.5 -49t-18 -40
q0 -331 -2 -597q0 -34 -23.5 -58t-57.5 -24h-131q-34 0 -58 24t-24 58q0 138 1 415.5t1 416.5q0 34 24 58t58 24h131q34 0 57.5 -24t23.5 -58v-76q32 43 64.5 75t56.5 46t43 22t29 9h10q52 6 93 -11t62.5 -44.5t35 -56.5t17.5 -50l4 -20q22 60 54 101t62.5 57t57.5 23.5
t43 6.5z" />
    <glyph glyph-name="n" unicode="n" horiz-adv-x="1011" 
d="M937 49q7 -15 -12 -32.5t-50 -16.5h-8.5t-19 2.5t-24 7.5t-19 15.5t-8.5 25.5l12 534q0 5 0.5 14t-1.5 34.5t-7.5 48.5t-19 52.5t-32.5 51.5t-52.5 38.5t-75.5 20.5h-20.5t-48 -8t-65.5 -23.5t-63 -51t-51 -85.5q0 -91 -1 -282t-1 -311q0 -34 -24 -58t-58 -24h-126
q-34 0 -58 24t-24 58l2 808q0 34 24 57.5t56 23.5h128q34 0 58 -23.5t24 -57.5v-60q25 63 99 100t163 39q138 2 219.5 -71.5t81.5 -206.5z" />
    <glyph glyph-name="o" unicode="o" horiz-adv-x="989" 
d="M928 658l3 -223q2 -123 -46 -230t-148 -152q-28 -21 -95.5 -32t-121.5 -12l-53 -1q-250 12 -357 216q-22 40 -35 83t-17 98t-5 86.5t2 101t3 90.5q2 73 26.5 129.5t62.5 90t73.5 51.5t73.5 28q40 11 93.5 15t139.5 3.5t99 -0.5q158 -11 229 -99.5t73 -242.5zM797 316
q13 65 19.5 137.5t1.5 154t-24 142.5q-46 156 -208 156q-100 0 -142.5 -50t-48.5 -146q-18 -305 50 -427q48 -86 125.5 -113t143.5 13.5t83 132.5z" />
    <glyph glyph-name="p" unicode="p" horiz-adv-x="997" 
d="M792 893q96 -78 136.5 -206t19.5 -257q-18 -120 -65.5 -205.5t-123 -134t-170 -68.5t-214.5 -14q0 -35 -5 -212q0 -33 -24 -57t-57 -24h-129q-33 0 -56.5 24t-23.5 57q0 733 2 1087q0 34 24 57t57 23h129q41 0 66 -36q96 56 221.5 47t212.5 -81zM823 473q8 119 -46 213
t-156.5 132.5t-248.5 -6.5v-680q101 -6 180 11.5t127.5 50t81 81t46 96t16.5 102.5z" />
    <glyph glyph-name="q" unicode="q" horiz-adv-x="1019" 
d="M939 -172q0 -34 -25 -58t-59 -24h-129q-34 0 -57.5 24t-25.5 58q0 64 -1 129.5t-1 128.5q-41 -55 -112.5 -80t-147.5 -25q-89 1 -159 55t-108 139t-55 184t-9 199q13 164 97.5 283.5t214.5 151.5t293 -55q23 37 69 37h131q34 0 58 -24t24 -58q0 -179 1 -534.5t1 -530.5z
M387 106q61 -2 131 43t125 137v470q-115 92 -211 87t-161.5 -83t-81.5 -200q-13 -104 2.5 -205t66.5 -174.5t129 -74.5z" />
    <glyph glyph-name="r" unicode="r" horiz-adv-x="669" 
d="M161 968h127q32 0 55 -23t23 -56v-165q23 65 103 144.5t141 73.5q43 -7 55.5 -43t-35.5 -64q-11 -6 -56.5 -24.5t-60.5 -32.5q-84 -75 -147 -304q0 -234 -2 -395q0 -32 -22.5 -55.5t-55.5 -23.5h-128q-31 0 -54.5 23.5t-23.5 55.5l2 810q0 33 23 56t56 23z" />
    <glyph glyph-name="s" unicode="s" horiz-adv-x="827" 
d="M716 451q64 -55 73 -147.5t-39.5 -178.5t-135.5 -122q-103 -43 -231.5 -28t-213.5 78q-48 36 -78.5 95.5t-3.5 103.5q21 33 64 11q16 -8 24 -23t11 -29.5t18.5 -33.5t43.5 -35q33 -19 84 -28t102 -5t87.5 33.5t37.5 80.5q1 29 -9.5 51.5t-26 36t-43.5 24t-51.5 16
t-61.5 11.5q-125 21 -171 38q-127 49 -146 182q-3 21 -3 45q-2 68 21 133.5t65 107.5q14 8 18 15q39 39 108.5 63.5t149.5 29.5q96 3 176.5 -22t119.5 -78q14 -19 21.5 -44t0.5 -48.5t-33 -30.5q-22 -6 -33.5 7.5t-25 38.5t-32.5 38q-28 19 -68 20t-79 -15.5t-71 -43.5
t-47 -68t-4 -85q10 -41 42 -66.5t75.5 -37t89.5 -20.5t95 -26t80 -44z" />
    <glyph glyph-name="t" unicode="t" horiz-adv-x="579" 
d="M417 894v-639v-75q3 -23 15 -32q14 -12 53 -12q43 0 61.5 -30.5t3 -63t-56.5 -37.5q-83 -8 -151 -2q-98 9 -156 54t-58 147l-2 690h-78q-13 0 -22.5 8.5t-9.5 20.5v17q0 11 9.5 20t22.5 9h78v164q0 33 23.5 56.5t56.5 23.5h129q33 0 56.5 -23.5t23.5 -56.5l1 -83l1 -81
h107q13 0 22.5 -9t9.5 -20v-17q0 -12 -9.5 -20.5t-22.5 -8.5h-107z" />
    <glyph glyph-name="u" unicode="u" 
d="M842 0h-128q-33 0 -56.5 23.5t-23.5 56.5v59q-26 -62 -99.5 -99t-161.5 -38q-256 -3 -300 278l-1 637q2 4 6 9t20 13t36 7h8t18 -2.5t23.5 -7.5t19.5 -15.5t10 -25.5l-12 -508q0 -5 -0.5 -13.5t1.5 -34t7.5 -49t18.5 -52.5t32 -51t52 -38.5t75 -20.5h20t48 8t65 23.5
t63 50.5t51 85q1 101 1.5 287t0.5 293q0 33 23.5 56.5t56.5 23.5h128q33 0 56.5 -23.5t23.5 -56.5l-2 -795q0 -33 -23.5 -56.5t-56.5 -23.5z" />
    <glyph glyph-name="v" unicode="v" horiz-adv-x="872" 
d="M764 974q127 -6 29 -410l-1.5 -9t-1.5 -7t-2 -7q-23 -94 -50.5 -176.5t-66.5 -168t-90 -138t-106 -57.5q-139 -9 -199 125q-41 88 -182 523q-54 165 -64 202q-8 29 -11 41t-4 31t6 26.5t23 14.5t43 8q73 4 121 -14.5t83 -76.5q44 -74 130.5 -346t105.5 -321
q49 68 82.5 151t48.5 168.5t21.5 148.5t9.5 136t4 87q4 38 20 54t51 15z" />
    <glyph glyph-name="w" unicode="w" horiz-adv-x="1167" 
d="M1086 921q14 -73 17.5 -194t-4 -249t-35 -240t-69.5 -157q-50 -52 -103 -66.5t-94 3.5t-74.5 51.5t-50.5 74.5t-15 75q-27 -94 -89 -150.5t-133 -66.5t-144.5 21t-124.5 100q-102 140 -112 697q-1 42 0 64t6 46.5t15 35t29 21t46.5 13.5t69.5 4q138 6 151 -98
q12 -79 12.5 -275.5t2.5 -215.5q10 -104 55 -169q46 -66 90 -22q29 28 51 101q7 21 16.5 64.5t16.5 66t25 44t45 23.5t45 -3.5t30.5 -22.5t18.5 -32t16 -48q47 -153 66 -184q36 -60 66 46q33 125 34.5 309t-24.5 300q-3 24 -2.5 50.5t18 48t47.5 22.5q37 1 57 -25.5
t28 -62.5z" />
    <glyph glyph-name="x" unicode="x" horiz-adv-x="909" 
d="M590 539l271 -423q27 -48 -34 -81.5t-131 -33t-94 17.5l-217 319l-276 -325q-5 -3 -12.5 -7t-26 -5t-31.5 12q-1 2 -3 5t-5 13.5t-2.5 21.5t8 26t23.5 29q26 22 95 98.5t125 141.5l57 66l-310 472q-33 62 102.5 68.5t168.5 -12.5q26 -8 49 -36.5t78 -117t101 -154.5
l265 292q2 2 4.5 6t12.5 11.5t20 10.5t24.5 -1t29.5 -19q3 -4 5.5 -11.5t-4.5 -31t-32 -46.5q-25 -24 -90.5 -101t-118 -141.5t-52.5 -63.5z" />
    <glyph glyph-name="y" unicode="y" horiz-adv-x="878" 
d="M773 963q123 -7 28 -400q-4 -14 -5 -20q-16 -64 -49 -157t-81.5 -201.5t-102 -205t-115.5 -170.5t-117 -94q-6 -2 -17 -5.5t-42 -7.5t-60.5 -2t-66 16t-64.5 42q-6 4 -16 13t-30.5 41t-28.5 70q-4 31 -6 66t16.5 64.5t55.5 31.5q21 2 36.5 -10.5t19.5 -38.5
q2 -19 -1.5 -39t-3 -36t11.5 -38q31 -72 108 -61q36 6 72.5 34.5t62.5 66t43 68t25 50.5q-1 0 -9.5 2t-15 4.5t-18 8t-22.5 14.5t-23 22.5t-25 34t-24 45.5q-54 114 -174 483q-46 142 -61 192q-8 29 -10.5 39.5t-4 29t5.5 25.5t22 13.5t41 7.5q70 4 115.5 -13.5t78.5 -72.5
q42 -70 124.5 -329.5t101.5 -306.5q36 66 64.5 152t43 147t27.5 154.5t15 116t8 89.5q4 36 19 51t48 14z" />
    <glyph glyph-name="z" unicode="z" horiz-adv-x="847" 
d="M749 115q47 2 63.5 -26.5t-2.5 -58t-59 -29.5q-226 -2 -648 2q-45 2 -64.5 22.5t-11.5 84.5q5 45 62.5 133t133 182.5t148 184t113 152.5t22.5 73q-12 8 -394 8q-33 2 -48.5 25.5t-1.5 47t52 24.5q520 9 674 13q0 -1 4 0.5t9.5 -2.5t11 -10t9.5 -22.5t3 -40.5
q2 -58 -437 -630q-10 -13 -17.5 -23.5t-19 -29t-14 -32t-1 -26.5t16.5 -19.5t43 -4.5q53 4 176.5 2.5t176.5 -0.5z" />
    <glyph glyph-name="braceleft" unicode="{" horiz-adv-x="665" 
d="M577 86q37 0 50.5 -22t-2.5 -43t-50 -20q-5 0 -176 -5q-16 -10 -40 -10q-91 0 -149.5 52t-58.5 155l1 283q-42 5 -71.5 37t-29.5 75t29 74.5t72 36.5l1 289q0 95 40.5 141.5t116.5 56.5v3h33h18h10l206 -3q37 0 50.5 -22t-2.5 -43t-50 -20q-11 0 -134 -4q0 -331 -2 -1009
z" />
    <glyph glyph-name="verticalbar" unicode="|" horiz-adv-x="262" 
d="M150 1115q10 0 17 -7t7 -17v-1137q0 -10 -7 -17t-17 -7h-40q-10 0 -17 7t-7 17v1137q0 10 7 17t17 7h40z" />
    <glyph glyph-name="braceright" unicode="}" horiz-adv-x="665" 
d="M614 588q0 -43 -29 -75t-71 -37l1 -283q0 -103 -59 -155t-149 -52q-24 0 -40 10q-171 5 -176 5q-35 -1 -50.5 20t-2 43t50.5 22l137 2q-1 339 -1 1009q-123 4 -134 4q-35 -1 -50.5 20t-2 43t50.5 22l206 3h10h17h34v-3q156 -19 157 -198v-289q42 -5 71.5 -36.5
t29.5 -74.5z" />
    <glyph glyph-name="nonbreakingspace" unicode="&#xa0;" horiz-adv-x="512" 
 />
    <glyph glyph-name="exclamdown" unicode="&#xa1;" horiz-adv-x="438" 
d="M219 1107q-54 0 -92.5 38t-38.5 92q0 53 38.5 91t92.5 38t92.5 -38t38.5 -91q0 -54 -38.5 -92t-92.5 -38zM270 156h-100q-26 0 -44.5 23.5t-18.5 56.5l-2 716q0 32 18.5 55t44.5 23h100q26 0 44.5 -23t18.5 -55q0 -170 1 -360t1 -356q0 -33 -18.5 -56.5t-44.5 -23.5z" />
    <glyph glyph-name="sterling" unicode="&#xa3;" horiz-adv-x="1259" 
d="M480 591q-26 -80 -131 -192q77 21 138 21q84 0 182 -23q165 -42 225 -42q70 0 184 56q48 19 73.5 -13t20 -80t-35.5 -68q-112 -42 -137 -49q-57 -12 -99 -12t-81 7q-42 11 -126 37q-115 34 -129 35q-42 7 -91 7q-74 0 -147 -23q-71 -21 -145 -68q-28 -18 -58.5 15t-34 77
t27.5 74q92 48 159 147q35 52 50 107t9.5 120t-15 109.5t-30.5 121.5h-101q-25 0 -42.5 17.5t-17.5 42.5v40q0 25 17.5 41.5t42.5 16.5h59q-14 68 -14 134q0 200 149 315q120 88 290 88q174 0 287 -95q112 -97 140 -271q3 -31 -35.5 -57.5t-82.5 -21.5t-55 53
q-14 117 -86 182q-73 68 -173 68q-108 0 -178 -70q-64 -60 -72 -166q-2 -70 23 -159l148 -2q25 0 41.5 -16.5t16.5 -41.5v-40q0 -25 -16.5 -41.5t-41.5 -16.5h-96q52 -179 -12 -364z" />
    <glyph glyph-name="currency" unicode="&#xa4;" horiz-adv-x="1419" 
d="M1040 583l273 -271q17 -17 17 -42t-17 -42l-28 -28q-17 -17 -42 -17t-42 17q-112 112 -250 247q-33 -28 -68 -44q-27 -20 -92 -30.5t-116 -10.5l-51 -1q-114 7 -194 51l-212 -212q-17 -17 -42 -17t-42 17l-28 28q-17 17 -17 42t17 42l205 205q-15 20 -33 52
q-21 40 -34 82t-17 93t-4.5 83.5t2 96.5t2.5 88q7 107 54 173l-175 173q-17 17 -17 42t17 42l28 28q17 17 42 17t42 -17q61 -60 92.5 -91.5t53 -53.5t41.5 -42q19 9 51 19q39 10 91.5 13.5t132 3t96.5 -0.5q129 -10 198 -72l58.5 58.5t33.5 33t47.5 46.5t87.5 86
q17 17 42 17t42 -17l28 -28q17 -17 17 -42t-17 -42l-257 -255q12 -60 12 -114l2 -217q3 -101 -30 -189zM942 657q12 63 18 132.5t1 148t-22 137.5l-2 10l-21 18q-20 20 -16 52q-51 72 -162 72q-97 0 -137.5 -48t-46.5 -141q-17 -292 47 -411q35 -63 89 -93.5t104.5 -26
t92.5 43.5t55 106z" />
    <glyph glyph-name="yen" unicode="&#xa5;" horiz-adv-x="968" 
d="M588 376v-122q0 -36 -29 -57t-63.5 -21t-63.5 21t-29 57v124h-119q-25 0 -41.5 16.5t-16.5 41.5v40q0 25 16.5 41.5t41.5 16.5h121v28h-121q-24 0 -41 18t-17 43v40q0 23 17 40.5t41 17.5h98q-47 163 -236 264q-49 27 -57 65q-7 31 24 37q2 1 5 1q33 3 71.5 -21.5
t71.5 -60.5t71.5 -92.5t63 -97.5t54.5 -95h84q5 11 17 34q20 42 32 64.5t34.5 64.5t38.5 66t39.5 55t43 47.5t42.5 27t45 8.5q25 -3 41 -20.5t11.5 -42t-34.5 -40.5q-187 -100 -235 -266h74q25 0 43 -17t18 -41v-40q0 -25 -18 -42t-43 -17h-98v-28h98q25 0 43 -17t18 -41
v-40q0 -25 -18 -42.5t-43 -17.5h-95z" />
    <glyph glyph-name="brokenbar" unicode="&#xa6;" horiz-adv-x="337" 
d="M188 177h-39q-25 0 -42 18t-17 43l-2 399q0 25 18 43t43 18h39q25 0 42 -18t17 -43q0 -130 1 -200.5t1 -198.5q0 -25 -18 -43t-43 -18zM188 754h-39q-25 0 -42 18t-17 43l-2 399q0 24 18 41t43 17h39q25 0 42 -16.5t17 -41.5q0 -130 1 -201t1 -198q0 -25 -18 -43t-43 -18
z" />
    <glyph glyph-name="section" unicode="&#xa7;" horiz-adv-x="950" 
d="M679 675l-5 2q-3 41 -31 66.5t-61 35t-92 19.5q-39 5 -100 26.5t-75 43.5q2 -43 45.5 -75.5t94.5 -48t121.5 -35.5t102.5 -34zM88 810q-2 69 22 135t72 106q-2 65 18.5 128t62.5 107q11 3 19 14q36 37 103 60.5t145 28.5q91 4 169.5 -20t117.5 -76q9 -13 15 -30.5
t7.5 -36t-7 -33t-27.5 -19.5q-21 -5 -32.5 8.5t-24.5 37.5t-32 36q-61 37 -163.5 15.5t-135.5 -78.5q-19 -41 -20.5 -70t20 -54t49 -42t66 -32.5t72 -26t67 -23.5t50.5 -25q64 -43 103 -105t37.5 -140t-61.5 -147q4 -61 1 -122.5t-33.5 -118t-86.5 -79.5
q-99 -40 -222.5 -25.5t-206.5 74.5q-46 36 -75.5 93t-4.5 98q22 33 63 12q15 -8 23 -23t11 -29t17.5 -32t42.5 -33q32 -18 81.5 -27t98.5 -5t84.5 32.5t36.5 78.5q0 28 -10 49t-25.5 34.5t-42 23.5t-50 15t-59.5 11q-10 2 -30 5q-40 6 -62 10t-61 14t-62 20.5t-52.5 30
t-46 42.5t-28.5 57.5t-13 75.5z" />
    <glyph glyph-name="softhyphen" unicode="&#xad;" horiz-adv-x="0" 
 />
    <glyph glyph-name="plusminus" unicode="&#xb1;" horiz-adv-x="870" 
d="M167 406q182 0 521 -2q33 0 55 -21.5t22 -53.5v-54q0 -32 -22 -54.5t-55 -22.5l-521 3q-33 0 -56 22.5t-23 54.5v51q0 32 23 54.5t56 22.5zM581 1009h154q19 0 33 -13.5t14 -33.5q0 -17 -14 -31t-31 -14h-156v-88l-3 -215q0 -33 -22.5 -56t-54.5 -23h-123q-32 0 -54.5 23
t-22.5 56v303h-155q-19 0 -32.5 13.5t-13.5 31.5q0 20 13 33t33 13h155l2 274q0 32 22 54.5t55 22.5h124q32 0 54.5 -22.5t22.5 -54.5v-273z" />
    <glyph glyph-name="acute" unicode="&#xb4;" horiz-adv-x="481" 
d="M99 1193q-17 13 -10 35t22 40t31 42.5t18 41.5h2q3 72 73 105q28 16 70 16q55 0 76 -34.5t3 -84.5q-15 -43 -51 -83t-77.5 -63.5t-84.5 -30.5t-72 16z" />
    <glyph glyph-name="Agrave" unicode="&#xc0;" horiz-adv-x="1024" 
d="M713 633l-88 385q-55 -220 -99 -382zM431 1621l173 -156q28 -21 33 -54.5t-11 -59.5t-45 -39.5t-70 5.5l-200 141q-61 44 -55.5 108.5t57.5 82.5t118 -28zM733 553h-229q-31 -118 -88 -326q-3 -14 -10 -50t-13.5 -59t-18 -50.5t-30.5 -41.5t-45 -14h-129q-35 0 -62 24.5
t-18 56.5l275 1049q22 80 80 80h129q30 0 56 -20t27 -46h3q265 -1017 275 -1083q3 -20 1.5 -33.5t-6 -20.5t-9.5 -10.5t-9 -4.5l-4 -1q-22 -7 -36.5 2t-18.5 21l-4 13z" />
    <glyph glyph-name="Aacute" unicode="&#xc1;" horiz-adv-x="1024" 
d="M713 633l-88 385q-55 -220 -99 -382zM360 1509l173 154q61 53 117.5 28t57 -83t-55.5 -108l-200 -142q-41 -18 -70 -4.5t-45 39.5t-10.5 60t33.5 56zM732 553h-228q-31 -118 -88 -326q-3 -14 -10 -50t-13.5 -59t-18 -50.5t-30.5 -41.5t-45 -14h-129q-35 0 -62 24.5
t-18 56.5l275 1049q22 80 80 80h129q30 0 56 -20t27 -46h2q265 -1017 275 -1083q5 -30 -1.5 -47.5t-15.5 -19.5l-9 -3q-22 -7 -36.5 2t-18.5 21l-4 13z" />
    <glyph glyph-name="Acircumflex" unicode="&#xc2;" horiz-adv-x="1024" 
d="M713 633l-88 385q-55 -220 -99 -382zM555 1560h-5l-117 -224q0 -1 -1 -3t-7 -4.5t-19 0.5l-34 12q-1 2 -2.5 5.5t-4 19t1.5 36.5l110 251q1 3 3 6.5t14 10.5t34 0h3t9 -3.5t13.5 -11.5t15.5 -26t17 -44l73 -210q3 -14 -9 -31q-20 -3 -22 19zM732 553h-228
q-31 -118 -88 -326q-3 -14 -10 -50t-13.5 -59t-18 -50.5t-30.5 -41.5t-45 -14h-129q-35 0 -62 24.5t-18 56.5l275 1049q22 80 80 80h129q30 0 56 -20t27 -46h2q265 -1017 275 -1083q4 -30 -2.5 -47.5t-15.5 -19.5l-8 -3q-22 -7 -36.5 2t-18.5 21l-4 13z" />
    <glyph glyph-name="Atilde" unicode="&#xc3;" horiz-adv-x="1024" 
d="M713 633l-88 385q-55 -220 -99 -382zM175 1317q0 103 59 165q56 64 146 64q57 0 170 -54q60 -29 95 -29q32 0 49 17q16 16 24 68q2 21 21 32t41.5 11t42.5 -11.5t24 -31.5q-3 -114 -56 -170q-54 -59 -139 -59q-62 0 -168 56q-68 37 -97 37q-34 0 -56 -25q-22 -22 -22 -70
q-1 -24 -33 -35.5t-65 -1.5t-36 37zM733 553h-229q-31 -118 -88 -326q-3 -14 -10 -50t-13.5 -59t-18 -50.5t-30.5 -41.5t-45 -14h-129q-36 0 -62.5 24.5t-17.5 56.5l275 1049q8 36 28.5 58t51.5 22h129q30 0 56 -20t27 -46h3q265 -1017 275 -1083q4 -30 -2.5 -47.5
t-15.5 -19.5l-9 -3q-22 -7 -36.5 2t-18.5 21l-4 13z" />
    <glyph glyph-name="Adieresis" unicode="&#xc4;" horiz-adv-x="1024" 
d="M713 633l-88 385q-39 -158 -97 -382zM353 1497q42 0 72 -31t30 -74q0 -42 -30 -72t-72 -30q-43 0 -74 30t-31 72q0 44 31 74.5t74 30.5zM674 1497q44 0 74.5 -30.5t30.5 -74.5q0 -42 -31 -72t-74 -30t-74 30t-31 72q0 44 30.5 74.5t74.5 30.5zM732 553h-226
q-42 -146 -88 -326q-3 -13 -10.5 -50t-14 -59.5t-18 -50t-31 -41.5t-45.5 -14h-129q-35 0 -62 24.5t-18 56.5l275 1049q22 80 83 80h126q30 0 56 -20t27 -46h5q262 -1017 272 -1083q5 -30 -1.5 -47.5t-15.5 -19.5l-9 -3q-20 -7 -35 2t-19 21l-5 13z" />
    <glyph glyph-name="Aring" unicode="&#xc5;" horiz-adv-x="1024" 
d="M713 633l-88 385q-39 -158 -97 -382zM538 1349l-81 2q-117 0 -124 110q0 97 5 121q29 83 110 85q7 0 40 0.5t46.5 0t37 -5t41.5 -14.5q74 -39 80 -129q0 -76 -17 -100q-17 -36 -55 -53t-83 -17zM582 1397q33 7 47.5 31.5t5 52.5t-40.5 45q-41 22 -156 17q-35 -2 -53 -17
t-18 -51q0 -59 56 -75q58 -19 159 -3zM732 553h-226q-42 -146 -88 -326q-3 -13 -10.5 -50t-14 -59.5t-18 -50t-31 -41.5t-45.5 -14h-129q-35 0 -62 24.5t-18 56.5l275 1049q22 80 83 80h126q30 0 56 -20t27 -46h5q262 -1017 272 -1083q5 -30 -1.5 -47.5t-15.5 -19.5l-9 -3
q-20 -7 -35 2t-19 21l-5 13z" />
    <glyph glyph-name="AE" unicode="&#xc6;" horiz-adv-x="1492" 
d="M1347 100q5 0 13.5 -2t24.5 -13t20 -29q-1 -5 -4 -12t-18 -18.5t-38 -10.5q-129 3 -368.5 -6t-340.5 -9q-14 0 -28 6v213q0 1 -1 4t-1 4q-55 215 -87 326h-227l-116 -514q-1 -2 -2 -5t-5.5 -12t-11 -13t-17 -8t-23.5 2q-2 0 -4 0.5t-9 4.5t-10 11t-6 20.5t2 33.5
q4 29 72.5 300t134.5 527l66 256h5q1 26 27 46t56 20h126q15 0 31 -7q275 -8 739 -8q5 0 13.5 -2t24.5 -13t20 -29q-1 -5 -4 -12t-18 -19t-38 -12q-10 1 -497 -5v-487l248 -3q2 0 5.5 -0.5t13 -3t17 -6.5t15 -12t10.5 -19q-1 -5 -4 -12.5t-18.5 -20t-38.5 -11.5
q-6 0 -248 -5q0 -72 -1 -216t-1 -217zM312 633l185 2q-51 199 -97 383z" />
    <glyph glyph-name="Ccedilla" unicode="&#xc7;" horiz-adv-x="1030" 
d="M90 468q0 64 -2.5 131.5t5.5 137t20 134t41 122.5t68 103.5t101.5 76.5t141.5 41q8 2 22.5 5t57.5 6.5t83 1.5t91.5 -15.5t92.5 -38.5t76.5 -73t51.5 -114q0 -3 1 -8.5t0.5 -20t-3 -25.5t-10 -21t-19.5 -11q-1 2 -7.5 -1t-15.5 14t-11 52q0 2 -1 5.5t-5.5 14.5t-9.5 21
t-14.5 23t-21 23.5t-28.5 19.5t-36 14t-45 4t-55 -8q-5 -1 -13 -3t-31 -14.5t-44 -31t-47 -55.5t-44.5 -85t-31 -123t-12.5 -165q-1 -6 -2.5 -17.5t-3.5 -45.5t-2 -67.5t3.5 -78.5t11.5 -83.5t25 -78t40.5 -67.5t60.5 -45t83 -17q2 0 6 -0.5t16.5 1.5t25 6.5t29 15t31 26.5
t29.5 42.5t26 60.5q0 3 1.5 7t7 14.5t13 18.5t22.5 13.5t33 3.5l5 -2.5t10 -9.5t9.5 -20t-0.5 -34.5t-14 -50.5q-5 -8 -14.5 -20.5t-40.5 -46.5t-65 -62.5t-86.5 -57t-105.5 -39.5q-24 -44 -24 -96q0 -41 21 -70q25 -28 74 -28q24 0 48 7q35 12 44 17q23 10 34 -24
q14 -42 -9 -79q-10 -15 -25 -24q-68 -34 -135 -34q-48 0 -89 12q-42 21 -62 41q-22 22 -38 57q-12 38 -12 72q0 64 31 118v2l2 3v2l3 3q1 2 4.5 8t4.5 8q-48 7 -108 34q-78 37 -131 87t-80.5 112.5t-39 124.5t-13.5 144z" />
    <glyph glyph-name="Egrave" unicode="&#xc8;" horiz-adv-x="1013" 
d="M302 1566q-60 43 -55 106.5t55.5 82t116.5 -27.5l168 -151q28 -21 33.5 -55t-10.5 -59.5t-44.5 -39t-67.5 4.5zM868 113q5 0 13 -1.5t24 -12t20 -27.5q-1 -5 -4 -12.5t-18.5 -19.5t-37.5 -11q-17 0 -113 -1.5t-231 -3t-195 -2.5q-16 -8 -32 -8h-127q-32 0 -55.5 24
t-23.5 56l3 1033q0 35 22.5 57t56.5 22h127h14l557 -2q5 0 13 -1.5t24 -12.5t20 -29q-1 -5 -4 -12t-18.5 -18.5t-37.5 -10.5q-14 0 -97.5 -1.5t-201 -3t-190.5 -2.5v-480h245q6 -1 14.5 -2.5t24 -12.5t18.5 -28q-1 -5 -3.5 -12.5t-17 -19.5t-36.5 -11q-5 0 -245 -5
q0 -71 -1.5 -213t-1.5 -214z" />
    <glyph glyph-name="Eacute" unicode="&#xc9;" horiz-adv-x="1013" 
d="M419 1300q-40 -18 -68.5 -4.5t-44.5 39t-11 59t33 55.5l170 153q60 52 115.5 27t56 -83t-53.5 -107zM868 113q5 0 13 -1.5t24 -12t20 -27.5q-1 -5 -4 -12.5t-18.5 -19.5t-37.5 -11q-17 0 -113.5 -1.5t-231.5 -3t-195 -2.5q-16 -8 -31 -8h-127q-32 0 -55.5 24t-23.5 56
l2 1033q0 34 22.5 56.5t57.5 22.5h127h14l557 -2q5 0 13 -1.5t24 -12.5t20 -29q-1 -5 -4 -12t-18.5 -18.5t-37.5 -10.5q-14 0 -97.5 -1.5t-201 -3t-190.5 -2.5v-480h244q6 -1 14.5 -2.5t24.5 -12.5t19 -28q-1 -5 -3.5 -12.5t-17.5 -19.5t-37 -11q-4 0 -244 -5
q0 -71 -1.5 -213t-1.5 -214z" />
    <glyph glyph-name="Ecircumflex" unicode="&#xca;" horiz-adv-x="1013" 
d="M373 1283l-33 12q-1 1 -2.5 4.5t-4 18.5t1.5 37l108 247q0 3 2.5 6.5t14 10t33.5 -1.5h3t9 -3.5t13.5 -11.5t15.5 -26t17 -43l72 -204q2 -14 -10 -31q-19 -6 -21 16l-72 195l-5 2l-115 -223q0 -1 -1 -2.5t-7.5 -4t-18.5 1.5zM868 113q5 0 13 -1.5t24 -12t20 -27.5
q-1 -5 -4 -12.5t-18.5 -19.5t-37.5 -11q-16 0 -112.5 -1.5t-232 -3t-195.5 -2.5q-14 -7 -31 -7h-127q-32 0 -55.5 23.5t-23.5 55.5l2 1033q0 34 23.5 57t56.5 23h127h14l557 -3q5 0 13 -1.5t24 -12.5t20 -29q-1 -5 -4 -12t-18.5 -18.5t-37.5 -10.5q-14 0 -97.5 -1.5t-201 -3
t-190.5 -2.5v-480h245q5 -1 13.5 -2.5t25 -12.5t20.5 -28q0 -2 -1 -5t-5.5 -10.5t-10 -13.5t-17 -10.5t-25.5 -3.5q-5 0 -245 -5q0 -71 -1.5 -213t-1.5 -214z" />
    <glyph glyph-name="Edieresis" unicode="&#xcb;" horiz-adv-x="1013" 
d="M278 1379q-43 0 -73.5 30.5t-30.5 72.5q0 43 30 73t74 30q42 0 72.5 -30t30.5 -73q0 -41 -31 -72t-72 -31zM594 1379q-43 0 -73 30.5t-30 72.5q0 44 29.5 73.5t73.5 29.5t73.5 -29.5t29.5 -73.5q0 -42 -30 -72.5t-73 -30.5zM868 113q5 0 13 -1.5t24 -12t20 -27.5
q-1 -5 -4 -12.5t-18.5 -19.5t-37.5 -11q-16 0 -112.5 -1.5t-230.5 -3t-197 -2.5q-14 -7 -31 -7h-127q-32 0 -55.5 23.5t-23.5 55.5l2 1033q0 34 23.5 57t56.5 23h127h16l555 -3q5 0 13 -1.5t24 -12.5t20 -29q-1 -5 -4 -12t-18.5 -18.5t-37.5 -10.5q-14 0 -97.5 -1.5t-201 -3
t-190.5 -2.5v-480h245q5 -1 13.5 -2.5t25 -12.5t20.5 -28q0 -2 -1 -5t-5.5 -10.5t-10 -13.5t-17 -10.5t-25.5 -3.5q-5 0 -245 -5v-427z" />
    <glyph glyph-name="Igrave" unicode="&#xcc;" horiz-adv-x="565" 
d="M219 1237h132q34 0 58 -24t24 -58q0 -177 -1 -534.5t-1 -538.5q0 -35 -24.5 -58.5t-58.5 -23.5h-132q-34 0 -58 23.5t-24 58.5v1073q0 34 25 58t60 24zM266 1641l177 -160q29 -22 34 -56.5t-11.5 -61t-46.5 -40.5t-71 6l-204 145q-61 45 -55.5 111t57.5 85t120 -29z" />
    <glyph glyph-name="Iacute" unicode="&#xcd;" horiz-adv-x="565" 
d="M217 1237h132q35 0 59.5 -24t24.5 -58q0 -177 -1 -534.5t-1 -538.5q0 -35 -24 -58.5t-58 -23.5h-132q-34 0 -58 23.5t-24 58.5v1073q0 34 24 58t58 24zM125 1481l174 160q63 54 120.5 29t58 -85t-56.5 -111l-204 -145q-42 -20 -71.5 -6t-45.5 40.5t-10 61.5t35 56z" />
    <glyph glyph-name="Icircumflex" unicode="&#xce;" horiz-adv-x="477" 
d="M173 1237h132q35 0 58.5 -24t23.5 -58v-1073q0 -35 -24 -58.5t-58 -23.5h-135q-32 0 -57 24t-25 58l3 1073q0 34 24 58t58 24zM282 1558l-5 3l-119 -232q0 -1 -0.5 -3t-6.5 -4.5t-21 2.5l-34 13q-1 1 -3 5t-4.5 19t2.5 38l112 257q0 1 1 2.5t4 5.5t8.5 5.5t15 3
t23.5 -2.5q1 -1 3.5 0.5t9 -3.5t13.5 -12.5t16.5 -26t17.5 -45.5l74 -211q2 -16 -10 -33q-19 -4 -22 18z" />
    <glyph glyph-name="Idieresis" unicode="&#xcf;" horiz-adv-x="718" 
d="M295 1237h132q34 0 58 -24t24 -58q0 -712 -3 -1073q0 -35 -23.5 -58.5t-58.5 -23.5h-132q-34 0 -58 23.5t-24 58.5l2 1073q0 34 24.5 58t58.5 24zM524 1603q45 0 76 -30.5t31 -73.5q0 -45 -31 -76t-76 -31q-43 0 -74 31t-31 76q0 43 31 73.5t74 30.5zM195 1603
q45 0 76 -30.5t31 -73.5q0 -45 -31 -76t-76 -31t-76 31t-31 76q0 43 31 73.5t76 30.5z" />
    <glyph glyph-name="Eth" unicode="&#xd0;" horiz-adv-x="1013" 
d="M564 1217q100 -16 166 -51t112.5 -103.5t65.5 -177t16 -268.5q-3 -116 -7.5 -183.5t-14.5 -141t-30 -112t-50 -77t-78.5 -56t-112 -29.5t-152.5 -16q-92 -2 -279 -2q-32 0 -56 23.5t-24 56.5v465q-32 16 -32 57v40q0 41 32 57q3 216 3 436q0 84 137 97q130 12 304 -15z
M805 602q1 68 -2 122.5t-13 111t-28 98.5t-48 79.5t-71 60t-99.5 33.5t-131.5 6v-406q32 -2 166 -2q25 0 44 -18.5t19 -44.5v-42q0 -26 -19 -44t-44 -18h-166q-3 -134 -3 -404q82 -3 141.5 6t104 32.5t72.5 58t45 90.5t24.5 122t8.5 159z" />
    <glyph glyph-name="Ntilde" unicode="&#xd1;" horiz-adv-x="1067" 
d="M88 92q0 177 1.5 531.5t1.5 531.5q0 33 23.5 56.5t55.5 23.5h132q21 0 41 -10.5t33.5 -24t30 -38t24 -39.5t21 -42.5t17.5 -34.5q299 -597 391 -775q-1 102 -1.5 315t-1.5 375t-2 212q-1 27 12 46t31 23t36.5 0t31.5 -22.5t13 -46.5v-1083q0 -75 -32 -83
q-10 -3 -21.5 -4.5t-30 -1t-33.5 10.5t-22 30q-4 15 -78 155.5t-196 369.5t-184 349q0 -513 -3 -824q0 -32 -22.5 -56t-56.5 -24h-132q-32 0 -56 24t-24 56zM190 1379q0 107 60 170q56 64 149 64q62 0 175 -55q58 -29 97 -29q32 0 49 17q17 14 25 70q4 28 34 39t61 -0.5
t37 -38.5q-5 -120 -57 -175q-55 -59 -142 -59q-64 0 -172 57q-67 37 -99 37q-36 0 -58 -25q-22 -22 -22 -72q-1 -25 -33.5 -36.5t-66.5 -1.5t-37 38z" />
    <glyph glyph-name="Ograve" unicode="&#xd2;" horiz-adv-x="1087" 
d="M106 1074q13 54 40.5 96t62 68t66 40.5t64.5 23.5q32 9 81 13t86 4t96.5 -1t79.5 -1q164 -11 237 -101t75 -249l5 -527q3 -126 -46.5 -236.5t-152.5 -157.5q-31 -22 -101.5 -33.5t-125.5 -12.5h-55q-142 7 -231 69.5t-137 153.5q-29 54 -46 232.5t-16.5 361.5t18.5 257z
M518 1740l182 -164q29 -23 34.5 -59t-11 -63t-47 -41.5t-73.5 4.5l-208 149q-64 46 -59 114.5t58.5 88.5t123.5 -29zM644 1223q-104 -2 -147 -53t-50 -149q-3 -82 -5.5 -221.5t12.5 -301.5t44 -214q48 -89 128 -117t148.5 13.5t86.5 136.5q19 106 21 369.5t-24 375.5
q-49 157 -214 161z" />
    <glyph glyph-name="Oacute" unicode="&#xd3;" horiz-adv-x="1087" 
d="M372 1576l180 164q65 55 124 28.5t59.5 -88.5t-58.5 -114l-210 -149q-42 -19 -72 -4.5t-46.5 41.5t-11 63t34.5 59zM106 1074q13 54 40.5 96t62 68t66 40.5t64.5 23.5q32 9 81.5 13.5t85.5 4.5t97.5 -1t78.5 -1q163 -11 236.5 -101.5t75.5 -249.5l5 -527
q3 -126 -46.5 -236.5t-152.5 -157.5q-31 -22 -101.5 -33.5t-125.5 -12.5h-55q-142 7 -231 69.5t-137 153.5q-29 54 -46 232.5t-16.5 361.5t18.5 257zM644 1223q-104 -2 -147 -53t-50 -149q-2 -82 -4.5 -221t12 -301.5t43.5 -214.5q37 -67 94.5 -99.5t111.5 -27.5t98.5 47
t58.5 113q19 106 21 369.5t-24 375.5q-49 157 -214 161z" />
    <glyph glyph-name="Ocircumflex" unicode="&#xd4;" horiz-adv-x="1085" 
d="M581 1655h-5l-123 -235q0 -1 -1 -3t-7.5 -5t-19.5 0l-36 13l-3 6t-5 20t0 38l115 263q1 3 3.5 7.5t16.5 9.5t34 1q1 -1 3.5 0.5t9.5 -3.5t14 -12.5t16.5 -27t18.5 -46.5l76 -218q5 -18 -10 -36q-18 -2 -23 21q-1 10 -19.5 62t-36.5 98zM108 1074q13 54 39.5 96t61 68
t65.5 40.5t64 23.5q32 9 81.5 13.5t85.5 4.5t97.5 -1t78.5 -1q163 -11 236.5 -101.5t77.5 -249.5l3 -527q2 -80 -16.5 -154.5t-66 -141t-117.5 -98.5q-31 -22 -101 -33.5t-125 -12.5h-55q-142 7 -231 69.5t-137 153.5q-28 55 -45 233t-16 361t20 257zM642 1223
q-104 -2 -147 -53t-50 -149q-2 -82 -4.5 -221t12 -301.5t43.5 -214.5q49 -89 129 -117t148.5 13.5t86.5 136.5q19 106 21 369.5t-24 375.5q-46 157 -215 161z" />
    <glyph glyph-name="Otilde" unicode="&#xd5;" horiz-adv-x="1085" 
d="M106 1074q13 54 40 96t62 68t66.5 40.5t64.5 23.5q32 9 81.5 13.5t85.5 4.5t97.5 -1t78.5 -1q307 -20 312 -351l3 -527q2 -80 -16.5 -154.5t-66 -141t-117.5 -98.5q-30 -22 -99.5 -33.5t-124.5 -12.5h-55q-256 12 -368 223q-29 54 -46 232.5t-16.5 361.5t18.5 257z
M219 1476q-4 108 59 174q61 64 156 64q65 0 176 -54q64 -31 100 -31q37 0 51 18q18 14 26 72q4 29 35 40t63.5 -0.5t39.5 -39.5q-5 -123 -61 -179q-57 -61 -146 -61q-64 0 -174 58q-73 39 -105 39q-37 0 -59 -26q-25 -25 -21 -74q-1 -15 -15.5 -26.5t-34.5 -15t-40 -1.5
t-34.5 13.5t-15.5 29.5zM644 1223q-104 -2 -148 -53t-52 -149q-2 -82 -3.5 -221t12.5 -301.5t42 -214.5q37 -67 94.5 -99.5t112 -27.5t99 47t57.5 113q20 109 23 369.5t-25 375.5q-46 157 -212 161z" />
    <glyph glyph-name="Odieresis" unicode="&#xd6;" horiz-adv-x="1085" 
d="M704 1701q46 0 78 -32t32 -78q0 -45 -32.5 -77.5t-77.5 -32.5q-44 0 -77 33t-33 77q0 45 32.5 77.5t77.5 32.5zM108 1074q13 54 39.5 96t61 68t65.5 40.5t64 23.5t82.5 13t86 4t95.5 -1t79 -1q163 -11 236.5 -101t77.5 -249l3 -527q2 -80 -16.5 -154.5t-66 -141
t-117.5 -98.5q-30 -22 -100 -33.5t-126 -12.5h-55q-142 7 -231 69.5t-137 153.5q-28 55 -45 233t-16 361t20 257zM642 1223q-104 -2 -147 -53t-50 -149q-2 -82 -4.5 -221t12 -301.5t43.5 -214.5q49 -89 129 -117t148.5 13.5t86.5 136.5q19 106 21 369.5t-24 375.5
q-46 157 -215 161zM366 1701q46 0 78 -32t32 -78q0 -45 -32.5 -77.5t-77.5 -32.5t-77.5 32.5t-32.5 77.5q0 46 32 78t78 32z" />
    <glyph glyph-name="Oslash" unicode="&#xd8;" horiz-adv-x="1060" 
d="M106 1043q25 98 88.5 150t137.5 72q40 11 105 15t119.5 2t108.5 0q61 -5 107 -20l22 45q18 27 43 27h49q11 0 14.5 -8t-1.5 -19l-42 -90q111 -83 111 -278l5 -512q3 -121 -45 -229.5t-148 -153.5q-30 -21 -98.5 -31.5t-121.5 -10.5h-54q-124 3 -214 60l-49 -102
q-15 -28 -43 -28h-47q-11 0 -15.5 8.5t0.5 19.5l80 159q-43 45 -70 97q-28 53 -45 226.5t-15.5 350.5t18.5 250zM436 571l291 597q-45 20 -99 20q-102 -2 -144 -51t-48 -146q-11 -154 0 -420zM802 1106l-348 -714q13 -86 32 -117q35 -65 90.5 -96.5t108.5 -26.5t97 46
t57 110q19 104 21 359t-23 364q-17 51 -35 75z" />
    <glyph glyph-name="Ugrave" unicode="&#xd9;" horiz-adv-x="1073" 
d="M94 1193q0 34 25 59t60 25h133q34 0 58 -24.5t24 -59.5v-649q0 -171 9 -224q18 -111 95 -154q62 -34 176 -38q131 -4 159 126q8 35 13.5 90t8 109t3 135t0 135.5t-3 145t-3.5 129.5t-4.5 123.5t-3.5 94.5q-1 22 13.5 38t35 20.5t41.5 1.5t36 -18.5t15 -39.5l-2 -707
q-1 -87 -4 -146t-10.5 -118t-22 -95t-37.5 -68.5t-56.5 -49t-79 -26t-106.5 -8.5q-229 0 -336 22t-172 99q-36 41 -53 195.5t-17 305.5t3.5 343.5t2.5 227.5zM666 1714l180 -165q30 -22 36 -57.5t-11 -63t-47.5 -41.5t-72.5 6l-211 149q-64 46 -58.5 114t60 87.5
t124.5 -29.5z" />
    <glyph glyph-name="Uacute" unicode="&#xda;" horiz-adv-x="1073" 
d="M93 1193q0 34 25 59t60 25h133q35 0 60 -25t25 -59v-649v-37q0 -65 0.5 -95t5.5 -78.5t15.5 -71t30 -53t49.5 -44t74.5 -24.5t103.5 -13q132 -4 160 126q8 35 13.5 90t8 109t3 135t0 135.5t-3 145t-3.5 129.5t-4.5 123.5t-3.5 94.5q-1 22 13.5 38t35 20.5t41.5 1.5
t36 -18.5t15 -39.5l-5 -707q-1 -76 -3 -129.5t-8 -107.5t-15.5 -89.5t-26 -69t-39 -53.5t-54.5 -35.5t-73 -21.5t-94 -5q-229 0 -336.5 22t-174.5 99q-35 41 -51.5 196t-17 305t2.5 343.5t2 227.5zM450 1549l182 165q65 55 123.5 29.5t59.5 -87.5t-57 -114l-211 -149
q-43 -20 -73.5 -6t-47 41.5t-11 63t34.5 57.5z" />
    <glyph glyph-name="Ucircumflex" unicode="&#xdb;" horiz-adv-x="1075" 
d="M94 1193q0 34 25 59t60 25h133q35 0 60 -25t25 -59v-649q0 -171 7 -220q16 -112 91 -156q62 -36 179 -40q131 -4 159 126q8 35 13.5 90t8 109t3 135t0 135.5t-3 145t-3.5 129.5t-4.5 123.5t-3.5 94.5q-1 22 13.5 38t36 20.5t43 1.5t36.5 -18.5t15 -39.5l-5 -707
q-1 -87 -4 -146t-10.5 -118t-22 -95t-37.5 -68.5t-56.5 -49t-79 -26t-106.5 -8.5q-227 0 -335 22t-173 99q-36 41 -53 195.5t-17 305.5t3.5 343.5t2.5 227.5zM592 1629l-5 2l-124 -238q0 -1 -1 -3t-7.5 -4.5t-19.5 2.5l-36 13q-1 1 -3 5t-4.5 19.5t2.5 39.5l116 264
q1 3 3.5 6t15 9.5t35.5 -0.5q1 -1 3.5 0.5t9 -3.5t13.5 -12.5t16.5 -27t18.5 -46.5l77 -219q3 -15 -10 -33q-20 -5 -23 18q-2 10 -21.5 62t-37.5 99z" />
    <glyph glyph-name="Udieresis" unicode="&#xdc;" horiz-adv-x="1073" 
d="M94 1193q0 35 24 59.5t58 24.5h136q33 0 57.5 -25t24.5 -59v-649v-35q0 -65 0.5 -95.5t5.5 -79t15.5 -71.5t30 -53.5t49.5 -44t75 -24.5t104 -13q131 -4 159 126q8 35 13.5 90t8 109t3 135t0 135.5t-3 145t-3.5 129.5t-4.5 123.5t-3.5 94.5q-1 22 13.5 38t35 20.5
t41.5 1.5t36 -18.5t15 -39.5l-5 -707q-1 -76 -3 -129.5t-8 -107.5t-15.5 -89.5t-26 -69t-39 -53.5t-54.5 -35.5t-73 -21.5t-94 -5q-229 0 -336 22t-174 99q-35 41 -51.5 195.5t-16.5 306t3.5 343t2.5 227.5zM648 1675q44 0 76 -32t32 -76q0 -46 -31.5 -78t-76.5 -32
q-46 0 -78 31.5t-32 78.5q0 45 32 76.5t78 31.5zM307 1675q46 0 78 -31.5t32 -76.5q0 -47 -31.5 -78.5t-78.5 -31.5q-45 0 -77.5 32t-32.5 78q0 44 33 76t77 32z" />
    <glyph glyph-name="Yacute" unicode="&#xdd;" horiz-adv-x="999" 
d="M776 1170q4 35 19 50.5t48 14.5q124 -7 20 -410q-19 -80 -65.5 -201.5t-107.5 -249.5t-137.5 -230t-141.5 -127l-16.5 -5.5t-41 -8t-59 -3t-64.5 15.5t-63 41q-6 4 -16 12.5t-29.5 39.5t-26.5 69q-4 30 -6.5 64.5t15.5 64t56 31.5q19 2 33.5 -11t18.5 -37q2 -20 -1 -40
t-2.5 -35.5t10.5 -36.5q34 -68 107 -57q36 4 71 31t61 64t42 66t25 50q-1 0 -10 2t-15 4.5t-18 8t-22 14.5t-22 21.5t-24 32.5t-23 44q-49 98 -172 473q-12 40 -32.5 102.5t-26.5 83.5q-8 28 -10.5 39t-4 29t5.5 25t21.5 13.5t39.5 7.5q70 4 113.5 -13t75.5 -71
q42 -69 125.5 -326t98.5 -296q22 41 41 89.5t32.5 92t25.5 96.5t18.5 91t13.5 88.5t9.5 75t6 65.5t4.5 46zM366 1459l174 159q63 53 120.5 28t58 -84.5t-56.5 -110.5l-204 -144q-42 -20 -71.5 -6t-45.5 40.5t-10 61.5t35 56z" />
    <glyph glyph-name="Thorn" unicode="&#xde;" horiz-adv-x="1153" 
d="M882 1315q108 -86 153.5 -228.5t22.5 -286.5q-20 -135 -73 -230.5t-137 -150t-190 -76.5t-240 -16q0 -76 -6 -238q0 -37 -26 -63t-63 -26h-146q-37 0 -63 26t-26 63q0 822 3 1216v5h-3v273q0 37 26 63t63 26h146q37 0 63 -26t26 -63q0 -79 6 -219q106 54 239.5 41
t224.5 -90zM917 848q10 132 -50 236.5t-175 147.5t-277 -6v-761q113 -7 201 13t142 56.5t90 90.5t50.5 107.5t18.5 115.5z" />
    <glyph glyph-name="germandbls" unicode="&#xdf;" horiz-adv-x="978" 
d="M702 1363q69 -47 98 -123.5t17 -152t-61 -143.5t-124 -101q102 -4 182.5 -88t76.5 -183q-9 -232 -378 -269q-26 1 -40 29t-4 56.5t44 29.5q235 24 243 149q3 59 -13.5 100t-48 60.5t-74 30t-90 9.5t-96.5 -1q-21 0 -30.5 30t-1 60.5t31.5 30.5q145 9 207.5 68.5
t58.5 172.5q-4 105 -84 149t-264 44q0 -18 5 -303v-252h-3q3 -154 3 -423q0 -20 1 -48t1.5 -40t-2 -29t-8 -23t-17 -13t-29 -8t-44.5 0q-71 0 -99 2q-30 0 -51 22t-21 53q0 138 1 474.5t1 475.5v126q0 73 7 84q19 29 125 32.5t205.5 -7t139.5 -20.5q74 -18 135 -61z" />
    <glyph glyph-name="agrave" unicode="&#xe0;" horiz-adv-x="1118" 
d="M930 252q-2 -59 8.5 -86.5t47.5 -30.5q23 -4 34.5 -24t10 -42t-17 -40t-42.5 -18q-75 -1 -116 38.5t-54 100.5q-44 -63 -110 -101t-143 -38q-315 3 -419 236q-52 121 -38.5 295t85.5 282q40 60 99.5 100t124.5 56.5t138 22t141 -5.5q62 -7 105 -24.5t76.5 -52t50 -92.5
t17.5 -140q0 -30 3 -218t-1 -218zM443 1423l171 -156q29 -21 34.5 -54t-10 -59t-44.5 -39.5t-70 4.5l-200 141q-61 44 -55.5 108.5t57 82.5t117.5 -28zM431 301q21 -76 65 -116.5t95.5 -42t106 28t98.5 86.5q0 21 2 81.5t2 121.5t-4 121q-2 41 -6.5 70t-16 62t-29 52t-49 30
t-74.5 7q-86 -8 -141 -90q-50 -83 -63.5 -199t14.5 -212z" />
    <glyph glyph-name="aacute" unicode="&#xe1;" horiz-adv-x="1120" 
d="M932 252q-2 -59 8 -86.5t45 -30.5q24 -4 36.5 -24t11 -42t-17 -40t-42.5 -18q-140 -3 -170 139q-44 -63 -111 -101t-145 -38q-315 3 -416 236q-54 122 -41 295t85 282q78 115 212.5 153.5t293.5 19.5q62 -7 105 -24.5t76.5 -52t50 -92.5t17.5 -140q0 -30 3 -218t-1 -218z
M460 1267l170 156q61 53 117.5 28t57 -83t-55.5 -108l-199 -141q-40 -18 -68.5 -4.5t-44.5 39.5t-11 59t34 54zM431 301q22 -76 66 -116t95.5 -42t106.5 27.5t99 86.5q0 21 2 81.5t2 121.5t-4 121q-4 42 -8.5 70t-16 61.5t-29.5 52.5t-49.5 30t-74.5 7q-39 -4 -76 -27.5
t-62 -62.5q-52 -82 -65.5 -199t14.5 -212z" />
    <glyph glyph-name="acircumflex" unicode="&#xe2;" horiz-adv-x="1118" 
d="M930 252q-2 -59 8.5 -86.5t47.5 -30.5q23 -4 34.5 -24t10 -42t-17 -40t-42.5 -18q-75 -1 -116 38.5t-54 100.5q-44 -63 -110 -101t-143 -38q-315 3 -419 236q-52 121 -38.5 295t85.5 282q78 115 212 153.5t291 19.5q62 -7 105 -24.5t76.5 -52t50 -92.5t17.5 -140
q0 -30 3 -218t-1 -218zM572 1318l-5 3l-116 -224q0 -1 -1 -3t-7 -5t-19 0l-34 13q-1 2 -3 5.5t-5 18.5t0 36l110 251q1 3 3.5 6.5t14.5 10t33 -1.5q1 -1 3.5 0.5t9 -3.5t13.5 -12t16 -25.5t17 -45.5l73 -206q5 -15 -10 -32q-17 -5 -22 17q-1 11 -18.5 60t-34.5 93zM431 301
q21 -76 64.5 -116t95 -42t106.5 27.5t99 86.5q0 21 2 81.5t2 121.5t-4 121q-2 41 -6.5 70t-16 62t-29 52t-49 30t-74.5 7q-86 -8 -141 -90q-50 -83 -63.5 -199t14.5 -212z" />
    <glyph glyph-name="atilde" unicode="&#xe3;" horiz-adv-x="1120" 
d="M932 252q-2 -59 8 -86.5t45 -30.5q24 -4 36.5 -24t11 -42t-17.5 -40t-44 -18q-138 -3 -168 139q-46 -63 -112.5 -101t-143.5 -38q-315 3 -416 236q-54 122 -41 295t85 282q78 115 212.5 153.5t293.5 19.5q62 -7 105 -24.5t76.5 -52t50 -92.5t17.5 -140q0 -30 3 -218
t-1 -218zM156 1067q0 102 56 166q61 61 148 61q60 0 170 -54q60 -29 93 -29q34 0 51 17q17 20 24 68q2 29 31 40t60 -0.5t38 -39.5q-3 -110 -58 -170q-52 -56 -139 -56q-67 0 -165 56q-69 36 -100 36q-35 0 -54 -24q-22 -25 -22 -71q-2 -18 -22 -29.5t-43.5 -13t-44.5 9.5
t-23 33zM431 301q22 -76 66 -116t95.5 -42t106.5 27.5t99 86.5q0 21 2 81.5t2 121.5t-4 121q-4 42 -8.5 70t-16 61.5t-29.5 52.5t-49.5 30t-74.5 7q-39 -4 -76 -27.5t-62 -62.5q-52 -82 -65.5 -199t14.5 -212z" />
    <glyph glyph-name="adieresis" unicode="&#xe4;" horiz-adv-x="1120" 
d="M930 252q-2 -59 8.5 -86.5t47.5 -30.5q30 -5 41.5 -35.5t-4 -59.5t-52.5 -29q-75 -1 -116 38.5t-54 100.5q-44 -63 -110 -101t-143 -38q-315 3 -419 236q-52 121 -38.5 295t85.5 282q78 115 212.5 153.5t293.5 19.5q60 -7 103 -24.5t76 -52t49.5 -92.5t17.5 -140
q0 -30 3 -218t-1 -218zM665 1289q43 0 73.5 -30.5t30.5 -74.5q0 -42 -30.5 -73t-73.5 -31t-74 31t-31 73q0 44 31 74.5t74 30.5zM343 1289q42 0 73.5 -31t31.5 -74q0 -42 -31.5 -73t-73.5 -31q-43 0 -73.5 31t-30.5 73q0 44 30.5 74.5t73.5 30.5zM431 301
q28 -100 93.5 -137.5t140 -10.5t134.5 104q0 21 1.5 81.5t1.5 121.5t-3 121q-4 42 -8.5 70t-16 61.5t-29.5 52.5t-49.5 30t-74.5 7q-39 -4 -77 -27.5t-64 -62.5q-50 -83 -63.5 -199t14.5 -212z" />
    <glyph glyph-name="aring" unicode="&#xe5;" horiz-adv-x="1120" 
d="M932 252q-2 -59 8.5 -86.5t47.5 -30.5q23 -4 34.5 -24t10 -42t-17 -40t-42.5 -18q-75 -1 -116 38.5t-54 100.5q-44 -63 -111 -101t-145 -38q-315 3 -416 236q-54 122 -41 295t85 282q78 115 213.5 153.5t292.5 19.5q62 -7 105 -24.5t76.5 -52t50 -92.5t17.5 -140
q0 -30 3 -218t-1 -218zM489 1077q-115 3 -124 110q1 20 0.5 40t1 43.5t5.5 37.5q7 32 33.5 58.5t76.5 27.5q8 0 40.5 1t46 0t37 -6t41.5 -15q76 -40 78 -129q2 -75 -15 -97q-32 -71 -138 -71h-83zM613 1126q34 6 49 30t5 52t-42 44q-41 25 -153 20q-73 -3 -73 -71
q0 -56 58 -75q64 -21 156 0zM431 301q22 -76 66 -116t95.5 -42t106.5 27.5t99 86.5q0 21 2 81.5t2 121.5t-4 121q-4 42 -8 70t-16 62t-29.5 52.5t-48.5 29.5t-73 7q-86 -8 -141 -90q-52 -82 -65 -199.5t14 -211.5z" />
    <glyph glyph-name="ae" unicode="&#xe6;" horiz-adv-x="1593" 
d="M681 997q113 -12 174 -70t72 -188q118 107 326 78q63 -6 113.5 -34t80 -68.5t46.5 -89t12.5 -97t-21.5 -90t-54.5 -71t-88.5 -37.5q-33 -10 -97 -13.5t-112 -2.5l-47 1q6 -61 21.5 -107t33.5 -67.5t35 -34.5t28 -15l11 -2q68 -11 124 28t74 106q10 45 40 53q26 7 38 -19
q10 -23 -3 -61q-24 -63 -65 -106t-83 -59t-80.5 -23t-62.5 -4l-25 2q-74 3 -146 34q-17 -29 -52 -29q-140 -3 -170 139q-44 -63 -111 -101t-145 -38q-315 3 -416 236q-54 122 -41 295t85 282q78 115 213.5 153.5t292.5 19.5zM1399 474q19 39 15 80t-26.5 70.5t-54.5 51.5
t-68 24t-68 -12q-43 -24 -68.5 -63.5t-32 -81.5t-8.5 -87.5t2 -81.5q9 -1 24.5 -1.5t59 2.5t81 12t79 31.5t65.5 55.5zM431 301q22 -76 66 -116t95.5 -42t106.5 27.5t99 86.5q0 21 2 81.5t2 121.5t-4 121q-4 42 -8.5 70t-16 61.5t-29.5 52.5t-49.5 30t-74.5 7
q-39 -4 -76 -27.5t-62 -62.5q-52 -82 -65.5 -199t14.5 -212z" />
    <glyph glyph-name="ccedilla" unicode="&#xe7;" horiz-adv-x="1032" 
d="M682 267q39 5 66 22.5t40.5 39t25.5 41.5t30 31.5t44 7.5q32 -5 41.5 -25t-0.5 -47t-23.5 -49.5t-29.5 -41.5q-84 -108 -264 -125q-2 -2 -5.5 -8t-6.5 -9q-31 -51 -31 -106q0 -39 22 -69q26 -29 74 -29q24 0 48 7q32 11 43 17q23 10 34 -24q14 -42 -9 -79
q-11 -16 -25 -24q-68 -34 -134 -34q-44 0 -89 12q-42 21 -62 41q-23 23 -39 58q-12 38 -12 72q0 55 31 117l3 3v2l2 3v2q18 31 31 46q-234 17 -340 213q-44 86 -56 244t15 255q28 102 68 156.5t124 81.5q101 35 238 39t218 -20q136 -41 182 -170q26 -77 -33 -94
q-26 -8 -50.5 8t-33.5 50q-51 127 -197 127q-100 0 -142 -49t-48 -145q-24 -286 51 -425q35 -64 88.5 -95.5t110.5 -27.5z" />
    <glyph glyph-name="egrave" unicode="&#xe8;" 
d="M568 129q81 -13 147.5 33.5t90.5 127.5q13 53 48 63q30 8 43 -21q12 -28 -3 -74q-21 -55 -53 -97.5t-66.5 -66t-72 -39.5t-70.5 -20.5t-59.5 -6t-42.5 0.5l-15 2q-87 5 -157.5 33.5t-114 70t-75.5 90.5t-46.5 96.5t-23 86.5t-9.5 64l-1 24q-7 275 131.5 406t394.5 100
q75 -8 136 -42t96 -82.5t55.5 -106.5t15 -116t-26 -107.5t-65.5 -85t-106 -45.5q-40 -11 -116.5 -14.5t-133.5 -2.5l-57 2q7 -74 26 -129.5t40.5 -81.5t42 -41.5t33.5 -17.5zM532 1424l168 -153q28 -21 33.5 -55t-10.5 -59.5t-44.5 -39t-67.5 4.5l-196 139q-60 43 -54.5 107
t56 82.5t115.5 -26.5zM789 589q20 40 19.5 81.5t-18 74t-45 60.5t-62 41t-69 15t-65.5 -17q-53 -28 -83.5 -75t-38 -97t-10 -105t1.5 -98q11 -1 29.5 -1.5t70.5 3t97 14t95 37.5t78 67z" />
    <glyph glyph-name="eacute" unicode="&#xe9;" 
d="M566 129q83 -13 149.5 33.5t90.5 127.5q11 51 46 62q30 10 44 -19q14 -28 -2 -75q-21 -55 -53 -97.5t-66.5 -66t-72 -39.5t-70.5 -20.5t-59.5 -6t-42.5 0.5l-15 2q-87 5 -157.5 33.5t-114 70t-75.5 90.5t-46.5 96.5t-23 86.5t-9.5 64l-1 24q-7 275 131.5 406t394.5 100
q75 -8 136 -42t96 -82.5t55.5 -106.5t15 -116t-26 -107.5t-65.5 -85t-106 -45.5q-40 -11 -116.5 -14.5t-133.5 -2.5l-57 2q7 -74 25.5 -129.5t40 -81.5t41.5 -41.5t33 -17.5zM393 1271l168 153q61 52 116.5 27t55.5 -83t-55 -107l-194 -139q-40 -18 -68.5 -4.5t-44.5 39
t-11 59t33 55.5zM789 589q20 40 19.5 81.5t-18 74t-45 60.5t-62 41t-69 15t-65.5 -17q-53 -28 -83.5 -75t-38 -97t-10 -105t1.5 -98q11 -1 29.5 -1.5t70.5 3t97 14t95 37.5t78 67z" />
    <glyph glyph-name="ecircumflex" unicode="&#xea;" horiz-adv-x="1003" 
d="M566 129q83 -13 149.5 33.5t90.5 127.5q12 52 47 63q30 8 43 -21q13 -28 -4 -74q-20 -55 -51.5 -97.5t-66 -66t-71.5 -39.5t-70.5 -20.5t-60 -6t-42.5 0.5l-15 2q-87 5 -157.5 33.5t-114 70t-75.5 90.5t-46.5 96.5t-23 86.5t-9.5 64l-1 24q-7 275 131.5 406t394.5 100
q75 -8 136 -42t96 -82.5t55 -106.5t15 -116t-25.5 -107.5t-66.5 -85t-107 -45.5q-40 -11 -116 -14.5t-133 -2.5l-56 2q7 -74 25.5 -129.5t40 -81.5t41.5 -41.5t33 -17.5zM590 1331l-5 2l-115 -221q0 -2 -1 -3.5t-7.5 -4.5t-18.5 1l-33 12q-2 2 -3.5 5.5t-4.5 18.5t1 36
l107 247q1 3 3.5 6.5t15 10t32.5 -1.5q3 1 8.5 0t20.5 -21.5t28 -62.5l72 -204q3 -14 -9 -31q-17 -6 -22 16q-2 11 -19.5 59.5t-33.5 92.5zM789 589q20 40 19.5 81.5t-18 74t-45 60.5t-62 41t-69.5 15t-67 -17q-51 -28 -81.5 -75t-38 -97t-10 -105t1.5 -98q11 -1 29.5 -1.5
t70.5 3t97 14t95 37.5t78 67z" />
    <glyph glyph-name="edieresis" unicode="&#xeb;" 
d="M568 129q83 -13 149 33.5t88 127.5q13 52 49 63q30 8 44 -21q13 -28 -4 -74q-21 -55 -52.5 -97.5t-66 -66t-71.5 -39.5t-70 -20.5t-59 -6t-41 0.5l-16 2q-88 5 -159 33.5t-114.5 70t-75.5 90.5t-47 96.5t-23.5 86.5t-9.5 64l-1 24q-5 275 133 406t393 100q75 -8 136 -42
t96.5 -82.5t55.5 -106.5t15 -116t-25.5 -107.5t-66 -85t-106.5 -45.5q-40 -11 -116 -14.5t-133 -2.5l-56 2q7 -74 25.5 -129.5t40 -81.5t41.5 -41.5t33 -17.5zM707 1314q43 0 73 -30.5t30 -72.5q0 -43 -30 -73t-73 -30t-73 30t-30 73q0 42 30 72.5t73 30.5zM390 1314
q41 0 71 -31t30 -72q0 -43 -29.5 -73t-71.5 -30q-44 0 -73.5 30t-29.5 73q0 42 30 72.5t73 30.5zM789 589q20 40 20 81.5t-17 74t-44.5 60.5t-62 41t-69.5 15t-67 -17q-51 -28 -81.5 -75t-37.5 -97t-9.5 -105t1.5 -98q11 -1 29.5 -1.5t70.5 3t96.5 14t94 37.5t76.5 67z" />
    <glyph glyph-name="igrave" unicode="&#xec;" horiz-adv-x="565" 
d="M330 996q35 0 60 -25t25 -60q0 -265 -3 -824q0 -37 -24.5 -62t-59.5 -25h-93q-36 0 -61.5 25t-25.5 62q0 130 1.5 411t1.5 413q0 35 26 60t61 25h92zM442 1277q29 -22 34.5 -56t-11 -60t-46.5 -40.5t-71 4.5l-202 145q-62 45 -57.5 111t56.5 84.5t120 -29.5z" />
    <glyph glyph-name="iacute" unicode="&#xed;" horiz-adv-x="565" 
d="M331 996q35 0 59.5 -25t24.5 -60q0 -575 -2 -824q0 -37 -24.5 -62t-60.5 -25h-92q-35 0 -59.5 25t-24.5 62v824q0 35 26 60t61 25h92zM298 1436q63 54 120.5 29t58 -84.5t-56.5 -110.5l-204 -145q-41 -19 -70.5 -4.5t-46 40.5t-10.5 60.5t35 55.5z" />
    <glyph glyph-name="icircumflex" unicode="&#xee;" horiz-adv-x="477" 
d="M287 996q35 0 59.5 -25t24.5 -60q0 -575 -2 -824q0 -37 -24.5 -62t-60.5 -25h-92q-35 0 -59.5 25t-24.5 62q0 130 1 411t1 413q0 35 25 60t60 25h92zM389 1168q2 -15 -10 -33q-17 -4 -22 18q-2 11 -20.5 61.5t-35.5 95.5l-17 44l-5 3l-119 -229q0 -2 -1 -4t-7 -5.5
t-19 1.5l-35 13q-2 2 -4 6t-5.5 19.5t1.5 36.5l112 256q1 3 3.5 6.5t15 10t33.5 -1.5q3 1 9 0t22 -22.5t29 -64.5z" />
    <glyph glyph-name="idieresis" unicode="&#xef;" horiz-adv-x="718" 
d="M302 1294q0 -45 -31 -76t-76 -31t-76 31t-31 76q0 43 31.5 75.5t75.5 32.5t75.5 -32.5t31.5 -75.5zM524 1402q44 0 75.5 -32.5t31.5 -75.5q0 -45 -31 -76t-76 -31q-43 0 -75 31.5t-32 75.5q0 43 32 75.5t75 32.5zM407 996q35 0 59.5 -25t24.5 -60q0 -451 -2 -824
q0 -37 -24.5 -62t-60.5 -25h-92q-36 0 -60.5 25t-24.5 62q0 130 1.5 411t1.5 413q0 35 25 60t60 25h92z" />
    <glyph glyph-name="eth" unicode="&#xf0;" horiz-adv-x="1185" 
d="M537 1542q4 14 14.5 19.5t18.5 4.5l9 -1q77 -19 144 -71l115 79q22 16 48.5 10.5t42.5 -28.5l26 -37q16 -22 10.5 -49t-28.5 -43l-86 -60q128 -157 203 -407q22 -74 34 -174t8 -214t-25.5 -216.5t-73.5 -185.5t-128 -117q-32 -24 -109 -37t-138 -14l-61 -1
q-285 12 -408 248q-25 46 -39.5 94t-19.5 111.5t-6 97.5t2 116.5t3 103.5q2 67 22 123t47.5 91.5t65 63t69 41.5t65.5 23q46 12 119.5 15.5t136 2t126.5 0.5q68 -5 109 -18q-36 78 -117 175l-168 -115q-23 -16 -49 -10.5t-42 28.5l-26 34q-16 23 -10.5 50.5t28.5 43.5
q32 22 65.5 45.5t52 36t31.5 20.5q-66 70 -70 76q-11 9 -13.5 20.5t-0.5 18.5zM477 800q-20 -345 58 -486q33 -59 81.5 -95t98.5 -42t96.5 9.5t80.5 59.5t45 107q16 74 23 156.5t1.5 175.5t-27.5 162q-51 177 -237 177q-115 0 -164.5 -56.5t-55.5 -167.5z" />
    <glyph glyph-name="ntilde" unicode="&#xf1;" horiz-adv-x="1058" 
d="M322 1177q-1 -19 -21.5 -30.5t-45.5 -12.5t-46.5 10t-23.5 33q0 107 60 167q62 65 149 65q68 0 175 -55q60 -30 97 -30q35 0 50 18q16 16 24 69q3 29 33.5 40.5t61.5 0t37 -40.5q0 -112 -57 -174q-55 -60 -142 -60q-64 0 -172 60q-68 38 -99 38q-32 0 -57 -25
q-23 -26 -23 -73zM967 714l2 -662q6 -17 -12 -34.5t-50 -17.5h-8.5t-20 3t-25 8t-19.5 16.5t-9 27.5l12 547q0 5 0.5 14t-2 35.5t-8 50.5t-19.5 54.5t-34 52.5t-54 39.5t-77 20.5h-21t-49 -8t-67 -23.5t-65 -52t-52 -88.5q0 -93 -1 -289t-1 -321q0 -35 -25 -59.5t-60 -24.5
h-129q-35 0 -60 24.5t-25 59.5l3 832q0 35 24 59.5t58 24.5h132q35 0 59.5 -24.5t24.5 -59.5v-63q25 65 101 104t168 41q142 2 225.5 -74t83.5 -213z" />
    <glyph glyph-name="ograve" unicode="&#xf2;" horiz-adv-x="1103" 
d="M1014 688l2 -235q2 -83 -16.5 -159t-66.5 -144t-121 -101q-30 -23 -101 -35t-127 -13l-56 -1q-265 12 -379 230q-23 42 -37.5 87.5t-18.5 103.5t-5 91t2 107t3 95q3 77 29 137t66 95.5t78 55t78 29.5q43 12 110.5 15.5t124.5 2t115 0.5q315 -20 320 -361zM528 1486
l179 -163q24 -18 32.5 -45t1 -51t-24.5 -44.5t-45 -24.5t-59 9l-210 148q-64 46 -58.5 113.5t60 87t124.5 -29.5zM502 292q30 -55 75 -88.5t92 -39t90 8.5t75 54.5t42 99.5q14 68 20.5 145t1 163t-24.5 150q-51 164 -220 164q-107 0 -151.5 -51.5t-50.5 -155.5
q-20 -319 51 -450z" />
    <glyph glyph-name="oacute" unicode="&#xf3;" horiz-adv-x="1103" 
d="M1014 688l2 -235q2 -83 -17 -159t-67 -144t-120 -101q-31 -23 -102.5 -35t-127.5 -13l-57 -1q-266 12 -376 230q-23 42 -37.5 87.5t-18.5 103.5t-5 91t2 107t3 95q3 77 28.5 137t65 95.5t77 55t77.5 29.5q43 12 111.5 15.5t126 2t115.5 0.5q315 -20 320 -361zM379 1323
l179 163q65 55 124.5 29.5t60 -87t-58.5 -113.5l-210 -148q-31 -13 -59 -9t-45 24.5t-24.5 44.5t1 51t32.5 45zM502 292q30 -55 75 -88.5t91 -39t88.5 8.5t74.5 54.5t42 99.5q24 108 26 226t-28 232q-48 164 -220 164q-105 0 -151 -52t-52 -155q-20 -320 54 -450z" />
    <glyph glyph-name="ocircumflex" unicode="&#xf4;" horiz-adv-x="1103" 
d="M1012 688l3 -235q2 -83 -17 -159t-67 -144t-121 -101q-30 -23 -101 -35t-127 -13l-56 -1q-264 12 -378 230q-23 42 -37 88t-18 102t-4.5 92t2.5 106t3 96q3 77 28.5 137t65 95.5t77 55t77.5 29.5q43 12 110.5 15.5t124.5 2t115 0.5q315 -20 320 -361zM588 1402l-6 2
l-122 -237q0 -2 -1 -3.5t-7.5 -4.5t-19.5 2l-36 13q-1 1 -3 5t-4.5 19.5t2.5 39.5l115 264q0 3 2.5 6t15 9.5t35.5 -0.5q1 -1 3.5 0.5t9.5 -3.5t14 -12.5t16.5 -27t18.5 -46.5l77 -218q2 -15 -11 -33q-20 -5 -23 18q-2 10 -21 62t-37 99zM503 292q30 -55 74 -88.5t90.5 -39
t89.5 8.5t75 54.5t42 99.5q14 69 20.5 145t1.5 162.5t-24 150.5q-48 164 -220 164q-107 0 -152 -51.5t-51 -155.5q-20 -320 54 -450z" />
    <glyph glyph-name="otilde" unicode="&#xf5;" horiz-adv-x="1103" 
d="M1014 688l3 -235q1 -61 -10 -120t-34.5 -114t-64.5 -100t-96 -70q-31 -23 -102.5 -35t-127.5 -13l-57 -1q-264 12 -378 230q-23 42 -36.5 87.5t-17.5 103.5t-5 90.5t2 107t3 95.5q3 77 28.5 137t65 95.5t77 55t77.5 29.5q43 12 110.5 15.5t125.5 2t117 0.5
q167 -11 241.5 -104t78.5 -257zM190 1225q-4 106 59 172t156 66q62 0 177 -56q67 -31 99 -31q36 0 54 18q16 21 23 72q4 30 35 41.5t63.5 -1t39.5 -40.5q-4 -118 -61 -179q-57 -62 -146 -62q-65 0 -174 62q-66 35 -105 35q-36 0 -59 -23q-24 -29 -20 -74q-2 -19 -23 -31
t-46 -13.5t-47 10t-25 34.5zM502 292q30 -55 75 -88.5t91 -39t88.5 8.5t74.5 54.5t42 99.5q14 70 21 145.5t2 162t-25 150.5q-48 164 -220 164q-105 0 -150.5 -52t-51.5 -155q-20 -321 53 -450z" />
    <glyph glyph-name="odieresis" unicode="&#xf6;" horiz-adv-x="1103" 
d="M1014 688l2 -235q2 -83 -17 -159t-67 -144t-120 -101q-31 -23 -102.5 -35t-127.5 -13l-57 -1q-266 12 -376 230q-23 42 -37.5 87.5t-18.5 103.5t-5 91t2 107t3 95q2 62 20.5 114t44 85t60 58.5t63.5 38.5t60 21q43 12 111.5 15.5t126 2t115.5 0.5q315 -20 320 -361z
M712 1448q46 0 78 -32t32 -78q0 -44 -32 -76t-78 -32t-78 32t-32 76q0 46 32 78t78 32zM374 1448q45 0 77.5 -32.5t32.5 -77.5q0 -44 -33 -76t-77 -32q-46 0 -78 32t-32 76q0 46 32 78t78 32zM502 292q30 -55 75 -88.5t91.5 -39t89.5 8.5t75 54.5t43 99.5q22 109 23.5 226
t-28.5 232q-48 164 -220 164q-105 0 -150 -52t-53 -155q-20 -320 54 -450z" />
    <glyph glyph-name="divide" unicode="&#xf7;" horiz-adv-x="854" 
d="M296 329q0 54 38.5 92.5t92.5 38.5t92 -38.5t38 -92.5t-38 -92.5t-92 -38.5t-92.5 38.5t-38.5 92.5zM557 992q0 -54 -38 -92.5t-92 -38.5t-92.5 38.5t-38.5 92.5t38.5 92.5t92.5 38.5t92 -38.5t38 -92.5zM165 766h523q32 0 54.5 -23t22.5 -54v-52q0 -31 -22.5 -54
t-54.5 -23h-523q-31 0 -54 23t-23 54v52q0 33 22.5 55t54.5 22z" />
    <glyph glyph-name="oslash" unicode="&#xf8;" horiz-adv-x="1077" 
d="M988 705l2 -231q1 -79 -17.5 -153t-65 -140t-116.5 -97q-30 -22 -99.5 -34t-123.5 -13l-55 -1q-84 4 -147 30l-47 -94q-4 -9 -15 -17t-20 -8h-40q-9 0 -13 8t1 17l62 126q-91 53 -147 160q-23 42 -36.5 87t-17.5 99t-4.5 89.5t2 102.5t2.5 94q3 75 28 133.5t64 92.5
t75 53t74 29q41 11 97 15t144.5 3.5t101.5 -0.5q65 -7 77 -10l32 62q4 9 15 17t20 8h40q9 0 13 -8t-1 -17l-42 -90q154 -80 157 -313zM453 427l256 524q-35 8 -74 8q-102 0 -145.5 -51t-51.5 -151q-11 -203 15 -330zM779 914l-289 -594q49 -89 129 -117t148 13t86 136
q13 68 19.5 142.5t1 158.5t-25.5 147q-17 70 -69 114z" />
    <glyph glyph-name="ugrave" unicode="&#xf9;" horiz-adv-x="1079" 
d="M906 0h-136q-36 0 -61.5 25t-25.5 60v64q-29 -66 -106 -106t-171 -40q-271 -4 -315 295l-3 674q2 4 6.5 10t21.5 14.5t39 6.5h8.5t19 -3t24 -8t20 -16t10.5 -27l-10 -539q0 -5 -0.5 -14.5t1.5 -36.5t7.5 -51.5t19 -55.5t33.5 -54t54.5 -40.5t78.5 -21.5q1 2 11 0t29.5 2
t41.5 8.5t48.5 18t50 31.5t45.5 48.5t36 68.5q3 203 3 616q0 35 25 59.5t59 24.5h136q35 0 60 -25t25 -59v-844q0 -35 -25.5 -60t-59.5 -25zM524 1498l180 -164q30 -22 36 -58t-11 -63t-47.5 -41.5t-72.5 5.5l-211 149q-64 46 -58.5 114t60 87.5t124.5 -29.5z" />
    <glyph glyph-name="uacute" unicode="&#xfa;" horiz-adv-x="1079" 
d="M904 0h-136q-34 0 -59.5 25t-25.5 60v64q-29 -66 -106 -106t-171 -40q-140 -2 -217 73t-101 222v674q2 4 6.5 10t21.5 14.5t39 6.5h8.5t19 -3t24 -8t20 -16t10.5 -27l-13 -539q0 -5 -0.5 -14.5t2 -36.5t8 -51.5t19.5 -55.5t34.5 -54t55.5 -40.5t79 -21.5h21.5t50 8.5
t68.5 25t67 54t54 89.5q0 96 1.5 292t1.5 324q0 35 25 59.5t59 24.5h136q35 0 60 -25t25 -59l-3 -844q0 -35 -24 -60t-60 -25zM375 1334l180 164q65 55 124.5 29.5t60 -87.5t-58.5 -114l-211 -149q-42 -20 -72.5 -5.5t-47.5 41.5t-11 63t36 58z" />
    <glyph glyph-name="ucircumflex" unicode="&#xfb;" horiz-adv-x="1081" 
d="M906 0h-136q-34 0 -59 25t-25 60v64q-29 -66 -106.5 -106t-170.5 -40q-274 -4 -318 295l-3 674q2 4 7 10t22.5 14.5t37.5 6.5h8.5t19.5 -3t24.5 -8t20.5 -16t11 -27l-12 -539q0 -5 -0.5 -14.5t1.5 -36.5t7.5 -51.5t19.5 -55.5t34.5 -54t55.5 -40.5t79 -21.5h21.5
t50.5 8.5t69 25t67 54t54 89.5q0 452 2 616q0 35 24.5 59.5t60.5 24.5h136q35 0 60 -25t25 -59l-3 -844q0 -35 -25.5 -60t-59.5 -25zM586 1413l-5 3l-123 -239q0 -1 -0.5 -3t-6 -4.5t-19.5 2.5l-39 13q-1 1 -3 5t-4.5 19.5t2.5 39.5l116 265q0 1 1 2.5t4 6.5t8.5 6.5t16 3
t24.5 -3.5q1 -2 3.5 0t9 -3.5t13.5 -12.5t16.5 -27t18.5 -47l77 -218q3 -15 -10 -33q-18 -5 -23 18q-2 10 -21.5 62t-37.5 98z" />
    <glyph glyph-name="udieresis" unicode="&#xfc;" horiz-adv-x="1081" 
d="M906 0h-136q-34 0 -59 25t-25 60v64q-29 -66 -106.5 -106t-170.5 -40q-274 -4 -318 295l-3 674q2 4 6.5 10t21.5 14.5t39 6.5h8.5t19 -3t24 -8t20 -16t10.5 -27l-10 -539q0 -5 -0.5 -14.5t1.5 -36.5t7.5 -51.5t19.5 -55.5t34.5 -54t55.5 -40.5t79 -21.5h21.5t50.5 8.5
t69 25t67 54t54 89.5v616q0 35 25 59.5t59 24.5h139q33 0 59 -25t26 -59l-3 -844q0 -35 -25.5 -60t-59.5 -25zM711 1462q44 0 76 -33t32 -77q0 -46 -31.5 -78t-76.5 -32q-47 0 -78.5 32t-31.5 78q0 45 32 77.5t78 32.5zM370 1462q46 0 78.5 -32.5t32.5 -77.5q0 -46 -32 -78
t-79 -32q-45 0 -77.5 32t-32.5 78q0 44 33 77t77 33z" />
    <glyph glyph-name="yacute" unicode="&#xfd;" horiz-adv-x="1042" 
d="M500 1259l174 159q63 53 120.5 28.5t58 -84t-56.5 -110.5l-201 -144q-32 -13 -59 -9t-44 23.5t-24 43t1 50t31 43.5zM813 951q4 38 19.5 53t50.5 14q128 -7 25 -420q-1 -4 -1.5 -6.5t-1.5 -5.5q-20 -84 -69 -211.5t-114 -262.5t-145 -242.5t-149 -133.5q-6 -2 -17.5 -5.5
t-43.5 -8t-62.5 -2.5t-68 16.5t-66.5 43.5q-6 4 -16.5 13.5t-30.5 42t-28 71.5q-5 25 -6 50t3 52.5t22 45t48 19.5q21 2 37 -10.5t20 -39.5q2 -21 -1.5 -41.5t-2.5 -36.5t12 -39q11 -30 39 -49.5t73 -12.5q47 7 96 56.5t74 93t38 74.5q-1 0 -10 2t-15.5 4.5t-18.5 8
t-23 15.5t-24 23.5t-25.5 35t-24.5 47.5q-53 110 -179 495q-9 30 -23.5 72.5t-24 72.5t-14.5 51q-9 28 -12 40.5t-4 30.5t5.5 26t22.5 15t42 8q72 4 119 -13.5t80 -73.5q43 -73 127.5 -337.5t106.5 -318.5q19 35 35.5 75.5t29.5 77t24.5 81t19.5 78.5t16 79t12 72.5t9 68.5
t6.5 58t5 51t3.5 37z" />
    <glyph glyph-name="thorn" unicode="&#xfe;" horiz-adv-x="1179" 
d="M391 1474q114 58 259 44t243 -97q117 -95 165.5 -249t24.5 -310q-21 -146 -78.5 -249t-148.5 -161.5t-205.5 -82t-259.5 -16.5q0 -113 -5 -256q0 -39 -29 -68t-68 -29h-104q-39 0 -68 29t-29 68v1612q0 39 29 67.5t68 28.5h104q39 0 68 -28.5t29 -67.5q0 -108 5 -235z
M388 502q102 -6 185.5 7t141 43.5t99 69.5t66 90t37 99.5t15.5 103.5q11 143 -54 256.5t-189.5 159.5t-300.5 -6v-823z" />
    <glyph glyph-name="ydieresis" unicode="&#xff;" horiz-adv-x="1044" 
d="M813 951q4 37 20 53t50 14q124 -6 30 -409q-4 -17 -5 -23q-21 -85 -70 -212t-114 -262t-145.5 -242.5t-150.5 -133.5q-6 -2 -17 -5.5t-43 -8t-62 -2.5t-67.5 16.5t-66.5 43.5q-7 4 -17.5 13.5t-31 42t-28.5 71.5q-5 25 -6 50t3 52.5t22 45t48 19.5q22 2 39 -11t18 -39
q2 -21 -1.5 -41.5t-2.5 -36.5t12 -39q35 -74 112 -62q37 5 74.5 34.5t64.5 68.5t43.5 69t25.5 52q-1 0 -10 2t-15.5 4.5t-18.5 8t-23 15.5t-24 23.5t-25.5 35t-24.5 47.5q-53 110 -179 495q-26 83 -62 196q-19 67 -14 85q7 32 68 35q72 4 119.5 -13.5t82.5 -73.5
q41 -73 125.5 -338.5t105.5 -317.5q19 35 35.5 75.5t29.5 77t24.5 81t19.5 78.5t16 79t12 72.5t9 68.5t6.5 58t5 51t3.5 37zM383 1384q45 0 76 -31t31 -76t-31 -76t-76 -31q-43 0 -75 31.5t-32 75.5t32 75.5t75 31.5zM714 1384q43 0 73.5 -31t30.5 -76t-30.5 -76t-73.5 -31
q-45 0 -76 31t-31 76t31 76t76 31z" />
    <glyph glyph-name="Amacron" unicode="&#x100;" horiz-adv-x="1024" 
d="M712 633l-87 385q-14 -58 -98 -382zM243 1436v42q0 26 18 44.5t43 18.5q134 0 208.5 -1.5t209.5 -1.5q24 0 42.5 -17.5t18.5 -42.5v-42q0 -25 -18.5 -44t-42.5 -19l-418 2q-26 0 -43.5 17.5t-17.5 43.5zM732 553h-226q-42 -146 -88 -326q-3 -13 -10.5 -50t-14 -59.5
t-18 -50t-31 -41.5t-45.5 -14h-129q-35 0 -61.5 24.5t-19.5 56.5l275 1049q22 80 83 80h127q30 0 55.5 -20t26.5 -46h5q263 -1017 273 -1083q3 -20 1.5 -33.5t-6 -20.5t-9.5 -10.5t-9 -4.5l-4 -1q-20 -7 -34.5 2t-18.5 21l-5 13z" />
    <glyph glyph-name="amacron" unicode="&#x101;" horiz-adv-x="1120" 
d="M932 252q-2 -59 8 -86.5t45 -30.5q24 -4 36.5 -24t11 -42t-17 -40t-42.5 -18q-75 -1 -116 38.5t-54 100.5q-44 -63 -111 -101t-145 -38q-315 3 -416 236q-54 122 -41 295t85 282q78 115 213.5 153.5t292.5 19.5q62 -7 105 -24.5t76.5 -52t50 -92.5t17.5 -140
q0 -30 3 -218t-1 -218zM282 1206v42q0 26 19 44.5t44 18.5q132 0 206.5 -1.5t210.5 -1.5q25 0 42.5 -17.5t17.5 -43.5v-41q0 -26 -17.5 -44t-42.5 -17h-417q-26 0 -44.5 18t-18.5 43zM431 301q22 -76 66 -116t95.5 -42t106.5 27.5t99 86.5q0 21 2 81.5t2 121.5t-4 121
q-4 42 -8.5 70t-16 61.5t-29.5 52.5t-49.5 30t-74.5 7q-39 -4 -76 -27.5t-62 -62.5q-52 -82 -65.5 -199t14.5 -212z" />
    <glyph glyph-name="Abreve" unicode="&#x102;" horiz-adv-x="1026" 
d="M715 633l-88 385q-45 -181 -100 -382zM686 1575q5 45 49 52q39 6 64 -18q15 -15 11 -34q-15 -128 -93 -195q-75 -68 -204 -68q-131 0 -207 66q-75 67 -90 197q-2 27 28 36.5t61.5 -2t32.5 -34.5q15 -68 56 -105q45 -34 114 -34q80 0 122 34q46 35 56 105zM734 553h-228
q-42 -146 -88 -326q-3 -13 -10.5 -50t-13.5 -59.5t-18 -50t-30.5 -41.5t-44.5 -14h-129q-36 0 -63 24.5t-20 56.5l278 1049q8 36 28.5 58t51.5 22h129q30 0 55 -19.5t26 -46.5h4q265 -1017 275 -1083q4 -30 -2.5 -47.5t-15.5 -19.5l-8 -3q-22 -7 -37 2t-19 21l-5 13z" />
    <glyph glyph-name="abreve" unicode="&#x103;" horiz-adv-x="1120" 
d="M932 252q-2 -59 8 -86.5t45 -30.5q24 -4 36.5 -24t11 -42t-17.5 -40t-44 -18q-138 -3 -168 139q-46 -63 -112.5 -101t-143.5 -38q-315 3 -416 236q-54 122 -41 295t85 282q78 115 212.5 153.5t293.5 19.5q62 -7 105 -24.5t76.5 -52t50 -92.5t17.5 -140q0 -30 3 -218
t-1 -218zM730 1389q3 38 36 49t63 -5.5t25 -43.5q-18 -131 -92 -197q-85 -69 -207 -69q-125 0 -205 69q-78 70 -92 197q-2 27 28 36.5t62 -2t34 -34.5q11 -71 56 -105q42 -34 112 -34q83 0 124 34t56 105zM431 301q21 -76 65 -116t95.5 -42t107 27.5t99.5 86.5q0 21 2 81.5
t2 121.5t-4 121q-4 42 -8.5 70t-16 61.5t-29.5 52.5t-49.5 30t-74.5 7q-39 -4 -76 -27.5t-62 -62.5q-52 -82 -65.5 -199t14.5 -212z" />
    <glyph glyph-name="Aogonek" unicode="&#x104;" horiz-adv-x="1124" 
d="M997 -215q23 9 34 -25q14 -43 -8 -81q-10 -17 -26 -26q-76 -34 -136 -34q-52 0 -88 15q-38 14 -65 41t-37 58q-12 26 -12 71q0 66 34 129q43 71 105 119h36l-15 65h2l-89 390h-226q-42 -146 -88 -326q-3 -13 -9 -41.5t-10 -48t-13 -45t-19.5 -41.5t-28 -27t-39.5 -11
h-129q-35 0 -62 24.5t-18 55.5l275 1049q22 81 83 81h126q30 0 56 -20t27 -46h5q263 -1017 273 -1083q3 -20 1.5 -33.5t-6 -21t-9.5 -11t-9 -4.5l-4 -1q-10 -3 -20 -1q-25 1 -37 26q-3 -2 -6.5 -8t-5.5 -9q-31 -55 -31 -105q0 -41 24 -71q23 -29 75 -29q9 0 47 5q18 5 43 20
zM528 590l185 -2l-88 384q-39 -158 -97 -382z" />
    <glyph glyph-name="aogonek" unicode="&#x105;" horiz-adv-x="1150" 
d="M932 252q-2 -59 8.5 -86.5t47.5 -30.5q30 -5 41 -35.5t-4.5 -59.5t-51.5 -29q-50 0 -90 20q-2 -4 -8 -12.5t-9 -12.5q-32 -57 -32 -104q0 -45 25 -73q24 -30 75 -30q19 0 46 8q30 9 44 17q23 9 34 -24q14 -42 -8 -79q-11 -17 -26 -26q-76 -34 -136 -34q-52 0 -90 14
q-41 17 -63 39q-27 27 -37 59q-14 34 -14 73q0 63 36 129q35 64 102 119q-12 29 -19 56q-44 -63 -110.5 -101t-145.5 -38q-315 3 -416 236q-54 121 -41 295t87 282q78 115 212.5 153.5t291.5 19.5q83 -9 134.5 -38t82 -95.5t31.5 -175.5q0 -37 3.5 -218t-0.5 -218zM430 301
q22 -76 66.5 -116t96 -42t106.5 27.5t99 86.5q0 21 2 81.5t2 121.5t-4 121q-4 43 -8 70t-15.5 61.5t-29 53t-48.5 29.5t-74 7q-86 -8 -141 -90q-50 -83 -64 -199.5t12 -211.5z" />
    <glyph glyph-name="Cacute" unicode="&#x106;" horiz-adv-x="1030" 
d="M90 554q0 64 -2.5 131.5t5.5 137t20 134t41 122.5t68 103.5t101.5 76.5t141.5 41q8 2 22.5 5t57.5 6.5t83 1.5t91.5 -15.5t92.5 -38.5t76.5 -73t51.5 -114q1 -3 1.5 -8.5t0.5 -20t-2 -25.5t-10 -21t-21 -11q-1 2 -7.5 -1t-15.5 14t-11 52q0 2 -1 5.5t-5.5 14.5t-9.5 21
t-14.5 23t-21 23.5t-28.5 19.5t-36 14t-45 4t-55 -8q-5 -1 -13 -3t-31 -14.5t-44 -31t-47 -55.5t-44.5 -85t-31 -123t-12.5 -165q-1 -6 -2.5 -17.5t-3.5 -45.5t-2 -67t3.5 -78t11.5 -84t25 -78.5t40.5 -67t60.5 -44.5t83 -17q2 0 6 -0.5t16.5 1.5t25 6t29 15t31 26.5
t29.5 42t26 60.5q0 3 1.5 7t7 14.5t13 18.5t22.5 13.5t33 3.5l5 -2.5t10 -9.5t9.5 -20t-0.5 -34.5t-14 -50.5q-5 -7 -14 -19.5t-39 -45.5t-63 -60.5t-83.5 -56.5t-101.5 -42.5t-116.5 -8.5t-130.5 36q-78 37 -131 87t-80.5 112.5t-39 124.5t-13.5 144zM338 1492l170 154
q61 52 116.5 27.5t56 -82t-54.5 -106.5l-197 -139q-30 -13 -56 -9t-42.5 23t-23.5 42t1 48t30 42z" />
    <glyph glyph-name="cacute" unicode="&#x107;" horiz-adv-x="1032" 
d="M684 151q38 5 64.5 22.5t40 38.5t25.5 41t30 31.5t44 7.5q22 -3 34 -13.5t12.5 -26t-4 -31.5t-15 -35t-18.5 -31.5t-18 -25.5q-62 -80 -154 -104.5t-223 -22.5q-250 13 -355 213q-44 86 -56 244.5t15 255.5q28 102 68.5 156t125.5 81q99 35 237 39.5t217 -20.5
q136 -41 182 -170q26 -77 -33 -94q-26 -8 -50.5 8t-33.5 50q-47 127 -197 127q-101 0 -142 -49t-45 -145q-28 -283 48 -425q35 -64 89 -95t112 -27zM372 1238l171 153q61 52 116.5 28t55.5 -81.5t-55 -106.5l-197 -140q-40 -18 -68.5 -4.5t-44.5 39t-11 58.5t33 54z" />
    <glyph glyph-name="Ccaron" unicode="&#x10c;" horiz-adv-x="1032" 
d="M90 497q0 64 -1.5 131.5t6.5 137t20 134t40.5 122.5t67.5 103.5t100.5 76.5t140.5 41q5 1 14 3t37 5.5t55.5 4.5t66.5 -1.5t73.5 -10.5t72 -26t67.5 -43.5t54.5 -66.5t37.5 -93q0 -3 0.5 -8.5t0.5 -20t-3 -25.5t-10.5 -21t-19.5 -11h-10q-19 6 -23 64q-1 2 -2 5.5
t-5 14.5t-9.5 21t-15.5 23t-21.5 23.5t-28.5 20t-36.5 14t-45.5 4t-55 -7.5q-5 -1 -12.5 -3t-30.5 -14.5t-44 -31t-46 -56t-43.5 -85t-31 -123t-12.5 -165.5q-1 -6 -2.5 -17.5t-3.5 -45.5t-2 -67t3.5 -78t11.5 -84t25 -78.5t40.5 -67t60.5 -44.5t83 -17q2 0 6 -0.5t16 1.5
t24 6t28.5 15t30.5 26.5t29 42t26 60.5q1 3 2 7t7 15t14 19t22.5 13.5t31.5 3.5q2 -1 5.5 -2.5t10.5 -10t10 -20t0 -34.5t-14 -51q-5 -7 -14 -19.5t-39 -45.5t-62.5 -60.5t-83 -56t-101.5 -42t-116.5 -8.5t-130.5 36q-78 37 -131 87t-81 112.5t-39.5 124.5t-14.5 144z
M567 1442l5 3q67 172 72 194q2 10 7.5 14t10.5 3h4q3 -5 5.5 -10t3 -8.5t0.5 -7v-4.5v-2l-72 -204q-13 -40 -27 -61t-22 -22l-8 -1q-22 -4 -33.5 -0.5t-14.5 9.5l-3 6l-108 247q-3 24 -2 37t4 18l3 5l36 15q12 2 17.5 0t6.5 -5v-3z" />
    <glyph glyph-name="ccaron" unicode="&#x10d;" horiz-adv-x="1032" 
d="M683 151q38 5 64.5 22.5t40 38.5t25.5 41t30 31.5t44 7.5q22 -3 34 -13.5t12.5 -26t-4 -31.5t-15 -35t-18.5 -31.5t-18 -25.5q-62 -80 -153.5 -104.5t-221.5 -22.5q-250 12 -355 213q-45 86 -57 244.5t16 255.5q26 101 66 155.5t126 81.5q101 35 238 39t216 -20
q140 -42 185 -170q23 -77 -36 -94q-24 -8 -49 8.5t-35 49.5q-47 127 -197 127q-101 0 -142 -49t-45 -145q-24 -287 48 -425q35 -64 89 -95t112 -27zM563 1247h5q67 173 72 195q2 10 7.5 14.5t10.5 4.5h4q3 -5 5.5 -10t3 -9t0.5 -7.5v-5.5v-2l-72 -204q-13 -40 -27 -61
t-22 -22l-8 -1q-21 -4 -32.5 0t-15.5 11l-3 6l-108 247q-3 23 -2 36t4 19l3 5l36 12q12 2 17.5 0.5t6.5 -4.5v-3z" />
    <glyph glyph-name="Dcaron" unicode="&#x10e;" horiz-adv-x="980" 
d="M227 1230q130 12 304 -15q134 -21 211 -79t115.5 -183.5t34.5 -337.5q-3 -115 -7.5 -183t-14.5 -141.5t-30 -112t-50.5 -77t-79 -56t-112 -29.5t-152.5 -16q-61 -2 -278 -2q-32 0 -56 23t-24 56q0 702 3 1056q0 82 136 97zM534 1434l5 2q69 180 74 202q1 10 7 14.5
t11 3.5h5q5 -8 7.5 -16t2.5 -12v-5l-75 -211q-13 -42 -28 -64t-23 -23l-9 -1q-23 -4 -34.5 -0.5t-14.5 9.5l-3 6l-112 257q-3 25 -2 38.5t4 18.5l3 5l35 12q13 3 19 2.5t7 -3.5l1 -3zM377 132q82 -3 141.5 6t104 32.5t72.5 58t45 90.5t24.5 122t8.5 159q1 68 -2 122.5
t-13 111t-28 98t-48 79t-71.5 60t-100 33.5t-131.5 6q0 -759 -2 -978z" />
    <glyph glyph-name="dcaron" unicode="&#x10f;" horiz-adv-x="1310" 
d="M1095 1177q17 49 55.5 53.5t61 -29.5t2.5 -78l-69 -142q-23 -27 -49.5 -26t-43.5 26.5t-4 54.5zM911 1225q34 0 59 -24t25 -58q0 -180 -1 -543t-1 -545q0 -35 -24 -60t-58 -25h-135q-47 0 -72 37q-180 -59 -315 -23.5t-214.5 146t-85.5 266.5q-5 103 12 201t55.5 183
t108 137t160.5 54q195 0 264 -92q0 63 1.5 130t1.5 134q2 34 26.5 58t57.5 24h135zM692 194v481q-97 160 -254 156q-79 0 -133 -68t-72 -166t-4 -201q16 -121 83.5 -199.5t165.5 -85t214 82.5z" />
    <glyph glyph-name="dmacron" unicode="&#x111;" horiz-adv-x="1157" 
d="M1005 1165q26 0 45.5 -19.5t19.5 -45.5v-40q0 -26 -19.5 -45t-45.5 -19h-7q0 -155 -1.5 -469.5t-1.5 -471.5q0 -35 -24 -60t-58 -25h-137q-44 0 -69 37q-180 -59 -315 -23.5t-215 146t-88 266.5q-5 103 12.5 201t56.5 182.5t109 137t161 54.5q195 0 264 -92q0 89 2 119
h-115q-26 0 -44 18t-18 44v43q0 26 18 44t44 18h120q8 26 30 43t50 17h134q28 0 50 -17t30 -43h12zM694 194v481q-97 160 -254 156q-79 0 -133 -68t-72 -166t-4 -201q16 -121 83.5 -199.5t165 -85t214.5 82.5z" />
    <glyph glyph-name="Emacron" unicode="&#x112;" horiz-adv-x="1087" 
d="M255 1445v44q0 26 19.5 46t46.5 20q156 0 446 -3q28 0 48 -19t20 -46v-45q0 -27 -20 -46t-48 -19h-446q-28 0 -47 20t-19 48zM177 1299h138q14 0 19 -3l603 -3q6 0 15 -1.5t26.5 -12.5t21.5 -30q-1 -5 -4 -13t-20 -21t-41 -13q-57 5 -533 -8v-520l266 -3q6 0 15.5 -2
t27.5 -13.5t22 -31.5q0 -2 -1 -5t-6 -11t-11.5 -14t-19 -10.5t-27.5 -3.5q-91 0 -266 -5q0 -77 -1.5 -232.5t-1.5 -232.5l538 -3q6 0 15 -2t26.5 -13.5t21.5 -31.5q0 -2 -1 -5t-6 -11t-11.5 -14t-19 -10.5t-27.5 -3.5q-17 0 -123.5 -2t-251 -5t-213.5 -4q-17 -5 -34 -5h-139
q-36 0 -61 24.5t-25 61.5l3 1126q0 35 25.5 61t60.5 26z" />
    <glyph glyph-name="emacron" unicode="&#x113;" 
d="M566 100q83 -13 149.5 33.5t90.5 127.5q12 53 48 63q29 8 43 -20q13 -28 -3 -74q-21 -55 -53 -97.5t-66.5 -66.5t-72 -39.5t-70.5 -20t-59.5 -6.5t-42.5 0l-15 2q-87 5 -157.5 33.5t-114 70t-75.5 90.5t-46.5 96.5t-23 86.5t-9.5 63l-1 25q-7 275 131.5 406t394.5 100
q75 -8 136 -42t96 -82.5t55.5 -106.5t15 -116t-26 -107.5t-65.5 -85t-106 -45.5q-40 -11 -116.5 -14.5t-133.5 -1.5l-57 2q7 -74 25.5 -129.5t40 -81.5t41.5 -42t33 -19zM280 1172v39q0 26 17.5 44t42.5 18q147 0 413 -2q25 0 42.5 -17.5t17.5 -42.5v-41q0 -26 -17.5 -43
t-42.5 -17h-413q-25 0 -42.5 18t-17.5 44zM789 561q21 42 19 81.5t-17.5 74t-45 60t-62 40.5t-68.5 15t-66 -17q-53 -28 -83.5 -75t-38 -96.5t-10 -104.5t1.5 -98q11 -1 29.5 -1.5t70.5 3t97 14t95 37.5t78 67z" />
    <glyph glyph-name="Edot" unicode="&#x116;" horiz-adv-x="1013" 
d="M505 1305q-43 0 -73 30.5t-30 72.5q0 44 30 73.5t73 29.5q44 0 74 -30t30 -73q0 -42 -30.5 -72.5t-73.5 -30.5zM865 113q6 0 14.5 -1.5t25 -12t20.5 -27.5q-1 -5 -4 -12.5t-18.5 -19.5t-37.5 -11q-17 0 -113.5 -1.5t-231.5 -3t-195 -2.5q-14 -7 -31 -7h-127
q-32 0 -55.5 23.5t-23.5 55.5v1033q0 34 23 57t56 23h130h14l554 -3q6 0 14.5 -1.5t25 -12.5t20.5 -29q-1 -5 -4 -12t-18.5 -18.5t-37.5 -10.5q-14 0 -97.5 -1.5t-201 -3t-190.5 -2.5q0 -319 -2 -480h247q5 -1 13 -2.5t24 -12.5t20 -28q-1 -5 -4 -12.5t-18.5 -19.5
t-37.5 -11q-13 0 -50 -1t-98 -2t-96 -2v-427z" />
    <glyph glyph-name="edot" unicode="&#x117;" 
d="M568 70q83 -13 148.5 33t89.5 127q13 51 47 63q31 9 45 -19q13 -28 -4 -75q-21 -55 -53 -97.5t-66.5 -66.5t-72 -39.5t-70.5 -20t-59.5 -6.5t-42.5 0l-15 2q-87 5 -157.5 33.5t-114 70t-75.5 90.5t-46.5 97t-23 87t-9.5 63l-1 25q-7 275 131.5 406t394.5 100
q75 -8 136 -42t96.5 -82.5t55.5 -106.5t15 -116.5t-25.5 -108t-66 -85t-106.5 -45.5q-40 -11 -116 -14.5t-132 -1.5l-56 2q7 -74 25 -129.5t39.5 -81.5t41.5 -41.5t33 -18.5zM547 1221q43 0 73 -29.5t30 -73.5q0 -42 -30 -71.5t-73 -29.5q-41 0 -71 30t-30 71q0 43 29.5 73
t71.5 30zM789 530q21 42 19 81.5t-17 74t-44 60t-62 40.5t-69.5 15t-66.5 -17q-24 -13 -43 -29t-32.5 -37t-23.5 -38.5t-15.5 -45t-9.5 -44.5t-5 -48t-1.5 -44.5t0 -46.5t0.5 -41q11 -1 29.5 -1.5t70.5 3t97 14t95 37.5t78 67z" />
    <glyph glyph-name="Eogonek" unicode="&#x118;" horiz-adv-x="1073" 
d="M947 -132q23 9 34 -24q14 -42 -8 -80q-11 -16 -26 -25q-74 -34 -135 -34q-49 0 -88 15q-39 16 -63 40q-21 21 -38 58q-12 38 -12 69q0 67 36 128q1 3 3.5 6.5t3.5 5.5q-283 -5 -329 -5q-14 -7 -31 -7h-127q-32 0 -55.5 23.5t-23.5 55.5l2 1033q0 34 23.5 57t56.5 23h127
h16l555 -3q6 0 14.5 -1.5t24 -12.5t18.5 -29q0 -2 -1 -5t-5 -10t-9.5 -12.5t-16.5 -10t-25 -3.5q-15 0 -99.5 -1.5t-202 -3t-190.5 -2.5v-480h247q5 -1 13 -2.5t24 -12.5t20 -28q-1 -5 -4 -12.5t-18.5 -19.5t-37.5 -11q-4 0 -244 -5v-427l384 -2l2 2l5 -2h100q6 0 14.5 -1.5
t24.5 -12t19 -27.5q-1 -5 -3.5 -12.5t-17.5 -19.5t-37 -11h-86q-21 -43 -21 -87q0 -42 24 -69q21 -29 71 -29q31 0 48 5q21 8 44 19z" />
    <glyph glyph-name="eogonek" unicode="&#x119;" 
d="M618 127q68 7 118 51.5t70 111.5q13 51 47 63q31 9 45 -19q13 -28 -4 -75q-22 -59 -56.5 -103t-74.5 -68.5t-75.5 -37.5t-73.5 -19q-15 -33 -15 -68q0 -44 24 -71q21 -29 72 -29q24 0 48 7q31 11 43 17q23 10 34 -24q14 -42 -9 -79q-11 -16 -25 -24q-74 -34 -134 -34
q-53 0 -89 14q-39 16 -62 39q-21 21 -39 60q-12 38 -12 69q0 62 34 125q-64 7 -118 28t-92 49.5t-68.5 63t-49.5 71.5t-33 73t-20.5 68t-10 56.5t-4.5 39.5v14q-7 275 131.5 406t394.5 100q75 -8 136 -42t96.5 -82.5t55.5 -106.5t15 -116t-25.5 -107.5t-66 -85t-106.5 -45.5
q-40 -11 -116 -14.5t-132 -2.5l-56 2q7 -74 25 -129.5t39.5 -81.5t41.5 -41.5t33 -17.5l14 -3q7 -2 22 -2l12 9zM789 589q20 40 19.5 81.5t-17.5 74t-44.5 60.5t-61.5 41t-69 15t-67 -17q-24 -13 -43 -29t-32.5 -37t-23.5 -39t-15.5 -45.5t-9.5 -44t-5 -48t-1.5 -45t0 -46.5
t0.5 -41q11 -1 29.5 -1.5t70.5 3t97 14t95 37.5t78 67z" />
    <glyph glyph-name="Ecaron" unicode="&#x11a;" horiz-adv-x="1015" 
d="M868 113q6 0 14.5 -1.5t25 -12t20.5 -27.5q-1 -5 -4 -12.5t-18.5 -19.5t-37.5 -11q-17 0 -113.5 -1.5t-231.5 -3t-197 -2.5q-11 -8 -32 -8h-127q-32 0 -55.5 23.5t-23.5 55.5l3 1034q0 34 23 56.5t56 22.5h127h17l554 -2q6 0 14.5 -1.5t25 -12.5t20.5 -29q-1 -5 -4 -12
t-18.5 -18.5t-37.5 -10.5q-15 0 -99.5 -1.5t-202 -3t-190.5 -2.5v-480h247q5 -1 13 -2.5t24 -12.5t20 -28q0 -2 -1 -5t-5.5 -10.5t-10 -13.5t-17 -10.5t-25.5 -3.5l-245 -5v-427zM465 1278l-108 247q-3 23 -2 36t4 19l3 5l33 12q27 4 26 -7l116 -221h4q67 174 72 195
q2 10 7.5 14t9.5 3l5 -1q3 -4 5.5 -8.5t3 -8.5t0.5 -7v-5v-2l-72 -204q-13 -40 -27 -61t-22 -22l-8 -1q-22 -4 -33.5 0t-13.5 11z" />
    <glyph glyph-name="ecaron" unicode="&#x11b;" 
d="M568 100q81 -13 147.5 33.5t90.5 127.5q13 53 48 63q30 9 43 -21q12 -28 -3 -73q-21 -55 -53 -97.5t-66.5 -66.5t-72 -39.5t-70.5 -20t-59.5 -6.5t-42.5 0l-15 2q-87 5 -157.5 33.5t-114 70t-75.5 90.5t-46.5 96.5t-23 86.5t-9.5 63l-1 25q-7 275 131.5 406t394.5 100
q75 -8 136 -42t96 -82.5t55.5 -106.5t15 -116t-26 -107.5t-65.5 -85t-106 -45.5q-40 -11 -116.5 -14.5t-133.5 -1.5l-57 2q5 -54 16.5 -98t25.5 -72t30 -48.5t31 -31t27 -16.5t19 -7zM585 1206h5q67 172 72 194q1 10 6 14t10 4l5 -1q5 -8 7.5 -15.5t2.5 -11.5v-4l-72 -204
q-13 -40 -27.5 -61t-22.5 -22l-8 -1q-22 -4 -33.5 -1t-13.5 9l-3 6l-108 247q-3 24 -2 37t4 18l3 5l33 15q13 2 19 0.5t7 -4.5l1 -3zM789 561q21 42 19 81.5t-17.5 74t-45 60t-62 40.5t-68.5 15t-66 -17q-53 -28 -83.5 -75t-38 -96.5t-10 -104.5t1.5 -98q11 -1 29.5 -1.5
t70.5 3t97 14t95 37.5t78 67z" />
    <glyph glyph-name="Gbreve" unicode="&#x11e;" horiz-adv-x="1028" 
d="M148 204q-27 51 -43 217t-15 336.5t18 238.5q16 66 56.5 113.5t79 67.5t81.5 30q38 11 100 15t114.5 2.5t103.5 0.5q72 -5 124.5 -26.5t84.5 -53.5t51 -81t26 -99.5t8 -118.5q-1 -22 -28.5 -31t-54 0t-26.5 31q-9 107 -20 140q-40 149 -200 149q-98 0 -137.5 -47.5
t-46.5 -141.5q-3 -76 -5 -205.5t12 -280t41 -199.5q46 -83 120 -109.5t137.5 13t80.5 129.5q1 6 4.5 38.5t5.5 55.5v5q6 72 -1 85q-8 13 -50 12q-5 0 -18 -1l-55 -1q-34 0 -50.5 20t-3.5 41.5t51 23.5q24 0 65 1q43 1 61 1t44 -1.5t34 -3t20.5 -8.5t14 -13.5t5.5 -21
t3.5 -28t-0.5 -38.5v-55q2 -74 -16 -143t-62 -131.5t-109 -91.5q-29 -19 -94.5 -29.5t-116.5 -11.5l-51 -1q-242 10 -343 206zM571 1591q4 45 49 53q40 6 66 -19q16 -15 12 -34q-15 -131 -94 -202q-81 -70 -212 -70q-128 0 -209 70q-80 72 -95 202q-2 28 28.5 37.5t63.5 -2
t35 -35.5q16 -77 57 -107q43 -35 115 -35q84 0 127 35t57 107z" />
    <glyph glyph-name="gbreve" unicode="&#x11f;" horiz-adv-x="1036" 
d="M865 1051q34 0 58 -24.5t24 -58.5v-953q0 -76 -1.5 -113.5t-9 -97t-27 -105t-51.5 -85.5q-35 -44 -90 -71t-116.5 -34t-124.5 7t-114 46t-85.5 89.5t-39.5 131.5q-1 29 9.5 43.5t21.5 14.5h11q23 -2 33 -20.5t9 -35.5l-2 -17q4 -41 19 -70t33 -41.5t35.5 -19t29.5 -5.5
h12q42 0 72.5 15.5t46.5 45t25.5 62t11 77t0.5 79t-3.5 79t-2.5 65.5q-40 -28 -84.5 -43t-68.5 -16l-24 -1q-145 -16 -243.5 80.5t-123 247.5t-6 307.5t103.5 275.5t209 137q52 7 109.5 -0.5t88 -17.5t49.5 -19q25 45 72 45h134zM649 179v655q-38 36 -81.5 52.5t-67.5 14.5
l-25 -2q-57 -6 -102 -37t-71 -77t-42 -104.5t-16 -121t8.5 -125t30.5 -118t49.5 -98t66 -67t80.5 -24.5q71 0 113 16t57 36zM514 1217q-130 0 -209 68q-80 73 -95 201q-2 28 28.5 37.5t63.5 -2t35 -35.5q12 -68 58 -107q43 -35 114 -35q79 0 127 35q43 35 57 107q4 45 48 53
q39 6 65 -18q15 -16 12 -35q-15 -134 -95 -199q-77 -70 -209 -70z" />
    <glyph glyph-name="Imacron" unicode="&#x12a;" horiz-adv-x="729" 
d="M300 1237h132q34 0 58 -24t24 -58q0 -712 -3 -1073q0 -35 -23.5 -58.5t-58.5 -23.5h-132q-34 0 -58 23.5t-24 58.5l2 1073q0 34 24.5 58t58.5 24zM88 1476v43q0 26 18 45t44 19q137 0 213.5 -1t214.5 -1q26 0 44.5 -18t18.5 -44v-43q0 -26 -18.5 -45.5t-44.5 -19.5
l-428 3q-26 0 -44 18t-18 44z" />
    <glyph glyph-name="imacron" unicode="&#x12b;" horiz-adv-x="729" 
d="M422 996q35 0 61 -25t26 -60q0 -265 -3 -824q0 -37 -25.5 -62t-61.5 -25h-92q-36 0 -60.5 25t-24.5 62q0 130 1.5 411t1.5 413q0 35 25 60t60 25h92zM576 1377q26 0 45.5 -18.5t19.5 -44.5v-42q0 -26 -19 -44t-46 -18h-426q-26 0 -44 19t-18 46v39q0 27 18 46t44 19
q242 0 426 -2z" />
    <glyph glyph-name="Idot" unicode="&#x130;" horiz-adv-x="475" 
d="M173 1237h132q34 0 58 -24t24 -58q0 -712 -3 -1073q0 -35 -24 -58.5t-58 -23.5h-132q-34 0 -58 23.5t-24 58.5l3 1073q0 34 24 58t58 24zM238 1603q45 0 76 -30.5t31 -73.5q0 -45 -31 -76t-76 -31t-76.5 31t-31.5 76q0 43 31.5 73.5t76.5 30.5z" />
    <glyph glyph-name="Lslash" unicode="&#x141;" horiz-adv-x="1017" 
d="M592 101l279 -2q39 0 53 -22.5t-3 -45t-53 -22.5q-15 0 -60.5 -1t-124.5 -2t-155 -2q-13 -5 -20 -5h-135q-33 0 -57.5 25.5t-24.5 59.5v343l-144 -122q-13 -9 -27 -5l-25 10q-13 9 -2 20l198 167v676q0 35 25.5 59.5t59.5 24.5h134q34 0 58 -24.5t24 -59.5v-420l144 121
q5 5 14 7t14 -2l25 -10q5 -2 6 -7.5t-4 -9.5l-199 -167v-584z" />
    <glyph glyph-name="lslash" unicode="&#x142;" horiz-adv-x="882" 
d="M600 185q12 -17 50 -17q46 -1 65.5 -32t3 -63.5t-58.5 -38.5q-13 -1 -44.5 -3t-49.5 -3t-47.5 1t-57.5 7q-166 36 -166 199q0 115 -3 231l-144 -124q-13 -9 -27 -5l-25 13q-5 1 -7 3.5t-1 6t5 7.5l199 169v651q0 35 25 60t60 25h129q35 0 60 -25t25 -60v-397l146 124
q13 9 28 5l24 -13q13 -4 0 -17l-198 -169q0 -315 2 -472q0 -46 7 -63z" />
    <glyph glyph-name="Nacute" unicode="&#x143;" horiz-adv-x="1069" 
d="M88 92q0 177 1.5 531.5t1.5 531.5q0 34 24 57t58 23h129q26 0 48 -12t41.5 -38.5t30 -43.5t27.5 -53.5t20 -41.5q299 -597 391 -775q-1 102 -1.5 315t-1.5 375t-2 212q-1 27 12 46t31.5 23t37.5 0t32.5 -22.5t13.5 -46.5v-1083q0 -75 -32 -83q-90 -22 -110 35
q-4 16 -76 154.5t-197 373t-183 346.5q0 -617 -2 -824q0 -32 -23.5 -56t-58.5 -24h-130q-33 0 -57.5 24t-24.5 56zM377 1481l174 160q63 54 120.5 29t58 -85t-56.5 -111l-204 -145q-42 -20 -71.5 -6t-45.5 40.5t-10 61.5t35 56z" />
    <glyph glyph-name="nacute" unicode="&#x144;" horiz-adv-x="1058" 
d="M462 1125q-31 -12 -57.5 -8t-43.5 24t-24 43.5t1 49.5t31 43l175 159q63 54 120.5 29t58 -84.5t-56.5 -110.5zM967 714l2 -662q7 -17 -12 -34.5t-52 -17.5h-8.5t-19.5 3t-24.5 8t-19 16.5t-8.5 27.5l12 547q0 5 0.5 14t-2 35.5t-8 50.5t-19.5 54.5t-34 52.5t-54 39.5
t-77 20.5h-21t-49 -8t-67 -23.5t-65 -52t-52 -88.5q0 -93 -1 -289t-1 -321q0 -35 -25.5 -59.5t-59.5 -24.5h-132q-34 0 -58 24.5t-24 59.5v832q0 35 25 59.5t57 24.5h135q34 0 59 -24.5t25 -59.5v-63q25 65 100.5 104t168.5 41q142 2 225.5 -74t83.5 -213z" />
    <glyph glyph-name="Ncaron" unicode="&#x147;" horiz-adv-x="1067" 
d="M88 92q0 177 1.5 531.5t1.5 531.5q0 33 23.5 56.5t55.5 23.5h132q21 0 41 -10.5t33.5 -24t30 -38t24 -39.5t21 -42.5t17.5 -34.5q324 -648 391 -775q-1 102 -1.5 315t-1.5 375t-2 212q-1 27 12 46t31 23t36.5 0t31.5 -22.5t13 -46.5v-1083q0 -75 -32 -83q-87 -22 -107 35
q-4 15 -78 155.5t-196 369.5t-184 349q0 -513 -3 -824q0 -32 -22.5 -56t-56.5 -24h-132q-32 0 -56 24t-24 56zM574 1392h4q70 179 73 201q2 10 7.5 15t9.5 5h5q5 -8 7.5 -16.5t2.5 -13.5v-5l-75 -211q-13 -42 -28 -64t-23 -23h-8q-22 -4 -34 0t-15 10l-4 7l-112 256
q-2 23 0 37t5 20l3 6l35 12q13 2 19 0.5t7 -4.5l1 -3z" />
    <glyph glyph-name="ncaron" unicode="&#x148;" horiz-adv-x="1060" 
d="M494 1115l-112 257q-3 23 -2 37t4 19l3 6l37 12q13 2 18.5 0.5t5.5 -4.5l1 -3l119 -229h8q67 179 72 201q2 10 8 15t10 5h5q3 -5 5.5 -10t3 -8.5t0.5 -7v-5.5v-1l-74 -214q-8 -27 -17.5 -45.5t-16.5 -26.5t-13 -12t-9 -3h-4q-22 -4 -33.5 0t-14.5 10zM969 714l3 -662
q7 -16 -12.5 -34t-52.5 -18h-8.5t-20 3t-25 8t-19.5 16.5t-9 27.5l12 547q0 5 0.5 14t-1.5 35.5t-7.5 50.5t-19 54.5t-33 52.5t-53.5 39.5t-77 20.5h-21t-50 -8t-68.5 -23.5t-65.5 -52t-52 -88.5q0 -93 -1 -289t-1 -321q0 -35 -24 -59.5t-58 -24.5h-132q-34 0 -59.5 24.5
t-25.5 59.5l3 832q0 35 24 59.5t58 24.5h132q35 0 59.5 -24.5t24.5 -59.5v-63q27 65 102.5 104t166.5 41q143 2 227 -74t84 -213z" />
    <glyph glyph-name="Omacron" unicode="&#x14c;" horiz-adv-x="1105" 
d="M108 1097q13 55 40.5 98t62.5 69t66.5 41.5t65.5 24.5q33 9 84.5 13.5t84 5t102.5 0t79 -0.5q166 -11 242 -104.5t80 -255.5l2 -539q2 -81 -16.5 -157t-66.5 -144.5t-120 -100.5q-32 -21 -104 -32t-128 -11l-56 -1q-264 10 -376 224q-28 56 -45.5 238.5t-16.5 370
t20 261.5zM254 1495v41q0 28 19 48t47 20q256 0 449 -2q28 0 46.5 -19t18.5 -47v-44q0 -28 -18.5 -46.5t-46.5 -18.5h-449q-28 0 -47 20t-19 48zM654 1249q-107 0 -150.5 -51.5t-50.5 -152.5q-2 -85 -4.5 -227.5t12 -308t44.5 -219.5q51 -90 132 -118.5t150.5 14.5t88.5 141
q20 108 22.5 376t-24.5 384q-47 162 -220 162z" />
    <glyph glyph-name="omacron" unicode="&#x14d;" horiz-adv-x="1103" 
d="M1012 688l3 -235q2 -83 -17 -159t-67 -144t-121 -101q-30 -23 -101 -35t-127 -13l-56 -1q-264 12 -378 230q-23 42 -37 88t-18 102t-4.5 92t2.5 106t3 96q3 77 28.5 137t65 95.5t77 55t77.5 29.5q43 12 110.5 15.5t124.5 2t115 0.5q168 -11 243 -104t77 -257zM258 1317
v44q0 27 19.5 46.5t46.5 19.5q140 0 218 -1t220 -1q27 0 46.5 -18.5t19.5 -45.5v-44q0 -27 -19.5 -46.5t-46.5 -19.5l-438 2q-27 0 -46.5 18.5t-19.5 45.5zM503 292q30 -55 75 -88.5t91 -39t88.5 8.5t74.5 54.5t42 99.5q14 70 21 145.5t2 162t-25 150.5q-48 164 -220 164
q-105 0 -151 -52t-52 -155q-20 -320 54 -450z" />
    <glyph glyph-name="Ohungarumlaut" unicode="&#x150;" horiz-adv-x="1085" 
d="M106 1074q13 54 40 96t62 68t66.5 40.5t64.5 23.5q32 9 80.5 13t85.5 4t96.5 -1t80.5 -1q307 -20 312 -350l3 -527q2 -80 -16.5 -154.5t-66 -141t-117.5 -98.5q-30 -22 -100 -33.5t-125 -12.5h-56q-254 12 -366 223q-29 54 -46 232.5t-16.5 361.5t18.5 257zM534 1545
l64 235q24 79 85 91q52 11 91 -31q47 -50 24 -124l-4 -12l-94 -238q-19 -29 -46.5 -39.5t-51.5 -3.5t-44.5 23.5t-26.5 43.5t3 55zM267 1545l64 235q25 79 87 91q53 10 93 -32q48 -50 24 -124l-4 -11l-97 -238q-24 -35 -59 -42.5t-63 7.5t-43 47t-2 67zM644 1223
q-105 -2 -149 -53t-51 -149q-2 -82 -4.5 -221t12 -301.5t43.5 -214.5q37 -67 94.5 -99.5t112 -27.5t99 47t57.5 113q20 109 23 369.5t-25 375.5q-46 157 -212 161z" />
    <glyph glyph-name="ohungarumlaut" unicode="&#x151;" horiz-adv-x="1103" 
d="M1014 688l2 -235q2 -83 -16.5 -159t-66.5 -144t-121 -101q-31 -23 -102.5 -35t-127.5 -13l-57 -1q-266 12 -376 230q-23 42 -37.5 87.5t-18.5 103.5t-5 91t2 107t3 95q3 77 29 137t66 95.5t78 55t78 29.5q43 12 110.5 15.5t124.5 2t115 0.5q315 -20 320 -361zM543 1294
l64 233q23 78 83 91q52 12 93 -30q48 -50 26 -124q-2 -7 -5 -14l-97 -237q-18 -29 -45 -39.5t-51 -3t-45 24.5t-26.5 44t3.5 55zM277 1294l64 233q25 80 86 92q52 10 91 -32q48 -50 24 -126q-2 -5 -4 -11l-95 -237q-24 -35 -59 -42.5t-63 8.5t-42.5 48t-1.5 67zM502 292
q30 -55 75 -88.5t91.5 -39t89.5 8.5t75 54.5t43 99.5q14 68 20.5 145t1 163t-24.5 150q-51 164 -222 164q-105 0 -149.5 -52t-50.5 -155q-20 -319 51 -450z" />
    <glyph glyph-name="Racute" unicode="&#x154;" horiz-adv-x="1058" 
d="M302 24h-132q-34 0 -58 24t-24 58v483l3 589q0 34 24 58t58 24h131q44 0 70 -38q95 58 224.5 49.5t215.5 -83.5q77 -66 118 -179.5t40 -228.5t-51 -219.5t-142 -150.5q-39 -22 -92 -30q50 -189 124 -276l7.5 -5t13.5 -13.5t12.5 -21t-2 -25t-23.5 -27.5q-3 -2 -8 -5
t-21 -5.5t-31 3t-35 26.5t-37 58q-16 34 -49 98.5t-49.5 105.5t-25.5 87q-96 10 -174 72l-5 -346q0 -34 -24 -58t-58 -24zM401 1498l177 157q63 53 120.5 28t58 -84.5t-56.5 -110.5l-204 -144q-32 -12 -59 -8t-44 24t-24 43.5t1 50t31 44.5zM386 1081v-502q60 -72 158 -76.5
t171 53.5q103 80 114 244q4 94 -32 179t-102 129q-64 46 -152.5 39t-156.5 -66z" />
    <glyph glyph-name="racute" unicode="&#x155;" horiz-adv-x="780" 
d="M91 941q0 35 22.5 58.5t56.5 23.5h132q32 0 55.5 -23t23.5 -56v-172q24 67 106.5 149t144.5 75q45 -6 58.5 -43.5t-35.5 -65.5q-11 -6 -58.5 -25t-63.5 -33q-89 -85 -152 -313v-408q0 -32 -24 -55.5t-58 -23.5h-129q-34 0 -58 23.5t-24 55.5zM247 1299l174 157
q63 53 120.5 28t58 -84.5t-56.5 -110.5l-201 -144q-32 -12 -59 -8t-44 24t-24 43.5t1 50t31 44.5z" />
    <glyph glyph-name="Rcaron" unicode="&#x158;" horiz-adv-x="1060" 
d="M304 24h-131q-35 0 -58.5 24t-23.5 58v259l-3 -3v222l3 5v589q0 34 24 58t58 24h131q44 0 70 -38q95 58 225.5 49.5t216.5 -83.5q76 -66 117 -179.5t40 -228.5t-51 -219.5t-141 -150.5q-44 -22 -92 -30q49 -187 122 -276l7.5 -5t14 -13.5t13 -21t-2 -25t-24.5 -27.5
q-3 -2 -8 -5t-21 -5.5t-31 3t-35 26.5t-37 58q-16 34 -49 98.5t-49.5 105.5t-25.5 87q-90 10 -174 72l-3 -346q-2 -34 -25.5 -58t-56.5 -24zM600 1474h5q70 179 75 201q2 10 7.5 14t10.5 3h4q5 -7 7.5 -15t2.5 -13v-4l-75 -211q-13 -42 -28 -63.5t-23 -22.5l-8 -1
q-22 -4 -34 0t-16 10l-3 7l-111 256q-3 23 -2 37t4 20l3 5l37 13q13 2 18.5 0t5.5 -5l1 -3zM386 1081v-502q60 -72 157.5 -76.5t170.5 53.5q107 80 115 244q4 94 -31 179t-101 129q-67 46 -154 39t-157 -66z" />
    <glyph glyph-name="rcaron" unicode="&#x159;" horiz-adv-x="780" 
d="M91 941q0 35 22.5 58.5t56.5 23.5h132q32 0 55.5 -23t23.5 -56v-172q24 67 106.5 149t144.5 75q45 -6 58.5 -43.5t-35.5 -65.5q-11 -6 -58.5 -25t-63.5 -33q-89 -85 -152 -313v-408q0 -32 -24 -55.5t-58 -23.5h-129q-34 0 -58 23.5t-24 55.5zM446 1274h5q70 180 72 202
q2 10 7.5 14t9.5 4l5 -1q7 -7 10 -15t3 -12v-5l-77 -212q-12 -42 -27 -63.5t-24 -22.5l-9 -1q-20 -4 -32.5 0.5t-14.5 11.5l-3 6l-114 256q-2 23 0 37t5 19l3 6l34 12q13 2 19 0.5t8 -4.5l1 -3z" />
    <glyph glyph-name="Sacute" unicode="&#x15a;" horiz-adv-x="1071" 
d="M953 1038q13 -40 7 -64.5t-20 -34.5l-15 -10q-24 -2 -39.5 10.5t-19.5 26.5l-3 13q-27 96 -142.5 109t-209.5 -63t-68 -198q14 -65 55.5 -100t85.5 -43t106 -18.5t96 -27.5q112 -54 167 -160.5t12 -232.5q-23 -68 -72.5 -117.5t-98.5 -73t-105 -35.5
q-65 -15 -133.5 -16.5t-138.5 10.5t-132.5 48t-102.5 93q-29 38 -42 69t-11 49t8.5 31t14.5 17l8 5q20 11 38 -4t26 -35l8 -21q25 -42 71.5 -71.5t99 -42t106 -12t96.5 14.5q41 13 70.5 37.5t42 50.5t19.5 50t7 40v15q-2 52 -18.5 89.5t-41 56t-53.5 28.5t-57 9.5
t-51.5 -3.5t-38.5 -7l-14 -4q-86 -24 -159 -4t-125 69t-78 129.5t-18 176.5q7 84 44 148.5t92.5 101.5t126.5 57t145 21t148 -11.5t135.5 -36.5t107.5 -57.5t64 -71.5zM388 1498l174 157q63 53 120.5 28t58 -84.5t-56.5 -110.5l-204 -144q-42 -19 -71.5 -4.5t-45.5 41
t-10 61t35 56.5z" />
    <glyph glyph-name="sacute" unicode="&#x15b;" horiz-adv-x="937" 
d="M382 690q11 -42 44 -68t78 -38t91.5 -21t96.5 -26.5t82 -45.5q50 -41 67 -109t2.5 -135t-60.5 -127.5t-113 -88.5q-105 -45 -238 -29t-219 82q-49 36 -80.5 97.5t-4.5 105.5q9 16 26.5 19t40.5 -9q16 -8 24.5 -23t11.5 -29.5t19 -34.5t45 -37q33 -19 85.5 -28t104.5 -4.5
t89.5 35t38.5 82.5q1 30 -10 53t-26 37t-44.5 25t-53 16.5t-63.5 12.5q-127 22 -170 37q-127 46 -152 168q-6 30 -6 66q-2 71 20.5 137.5t66.5 110.5q13 5 20 15q38 40 109.5 65t154.5 30q98 4 181 -21.5t124 -80.5q14 -19 21.5 -45t0 -50.5t-33.5 -31.5q-23 -5 -34.5 8.5
t-26 39t-34.5 39.5q-28 19 -69 20t-80.5 -16t-72.5 -45t-48.5 -70t-4.5 -88zM339 1299l174 157q63 53 120.5 28t58 -84.5t-56.5 -110.5l-204 -144q-31 -12 -57.5 -8t-43.5 24t-24 43.5t1 50t32 44.5z" />
    <glyph glyph-name="Scedilla" unicode="&#x15e;" horiz-adv-x="1071" 
d="M955 1038q12 -40 5.5 -64.5t-20.5 -34.5l-15 -10q-24 -2 -39.5 10.5t-19.5 26.5l-3 13q-27 96 -142.5 109t-209.5 -63t-68 -198q14 -65 55.5 -100t85.5 -43t106 -18.5t96 -27.5q112 -54 167 -160.5t12 -232.5q-45 -127 -176 -191q34 -34 52 -72l2 -3v-2h3v-3
q32 -61 32 -124q0 -34 -12 -72q-18 -40 -40 -62q-23 -23 -65 -40q-37 -15 -92 -15q-59 0 -139 35q-40 23 -39 78q0 44 23 54q7 3 16 0q22 -10 45 -18q24 -7 49 -7q52 0 78 30q22 29 22 74q0 56 -32 107l-3 5q-65 -15 -133.5 -16.5t-138.5 10.5t-132.5 48t-102.5 93
q-29 38 -42 69t-11 49t8.5 31t14.5 17l8 5q20 11 38 -4t26 -35l8 -21q42 -70 134 -102t184 -22q2 0 5.5 1.5t4.5 1.5h7q36 9 38 10q41 13 70.5 37.5t42 50.5t19.5 50t7 40v15q-2 52 -18.5 89.5t-41 56t-53.5 28.5t-57 9.5t-51.5 -3.5t-38.5 -7l-14 -4q-86 -24 -159 -4
t-125 69t-78 129.5t-18 176.5t55 166t116.5 104.5t153.5 49.5t169.5 5t161 -32.5t132 -60.5t77.5 -81z" />
    <glyph glyph-name="scedilla" unicode="&#x15f;" horiz-adv-x="940" 
d="M384 690q10 -43 42.5 -68.5t77.5 -37.5t91.5 -21t96.5 -26.5t82 -45.5q64 -54 75.5 -145t-32 -177t-125.5 -128q30 -34 57 -77v-2l3 -3v-2q32 -61 32 -125q0 -46 -12 -72q-8 -25 -38 -59q-29 -29 -67 -43q-35 -14 -89 -14q-65 0 -139 37q-39 20 -39 76q0 43 21 55
q9 5 18 1q19 -13 44 -20q25 -5 48 -5q55 0 77 30q25 33 25 72q0 49 -33 107q-2 5 -7 10q-100 -19 -205.5 2t-175.5 75q-49 36 -80 97.5t-4 105.5q25 34 67 10q16 -8 24.5 -23t11 -29.5t18.5 -34.5t45 -37q34 -19 87 -28t105.5 -4.5t90 35t38.5 82.5q0 30 -11 53t-26.5 37
t-45 25t-53 16.5t-63.5 12.5q-126 21 -170 37q-125 46 -151 167q-6 31 -7 67q-2 70 22 137t68 111q11 7 17 15q40 40 111.5 65t154.5 30q97 4 179.5 -21.5t123.5 -80.5q11 -14 17.5 -33t8 -38t-8 -35t-29.5 -21q-23 -5 -34.5 8.5t-24.5 39t-33 39.5q-28 19 -69.5 20
t-81.5 -16t-73 -45t-48 -70.5t-4 -87.5z" />
    <glyph glyph-name="Scaron" unicode="&#x160;" horiz-adv-x="1071" 
d="M955 1038q13 -40 6.5 -64.5t-21.5 -34.5l-15 -10q-24 -2 -39 10.5t-18 26.5l-3 13q-17 57 -71.5 86t-119 21.5t-123.5 -35.5t-91.5 -89t-16.5 -135q14 -65 55.5 -100t86 -43t106.5 -18.5t97 -27.5q111 -54 166 -161t11 -232q-34 -98 -109.5 -152t-166.5 -74
q-64 -15 -132.5 -16.5t-138.5 10.5t-132.5 48t-103.5 93q-29 38 -41.5 69t-10 49t9 31t14.5 17l8 5q19 11 36 -4t25 -35l8 -21q26 -42 72.5 -71.5t99 -42t106.5 -12t98 14.5q40 13 69 37.5t41.5 50.5t19 50t6.5 40v15q-2 52 -18 89.5t-40.5 56t-53 28.5t-57 9.5t-52 -3.5
t-38.5 -7l-14 -4q-85 -24 -157.5 -4t-124.5 69t-78.5 129.5t-19.5 176.5q8 96 55 166t116.5 104.5t153.5 49.5t169.5 5t161 -32.5t132 -60.5t77.5 -81zM587 1474h5q70 179 72 201q2 10 7.5 14t10.5 3h4q7 -7 10 -15t3 -13v-4l-77 -211q-12 -42 -27 -63.5t-24 -22.5l-9 -1
q-22 -4 -33 0t-14 10l-3 7l-114 256q-2 23 -0.5 37t4.5 20l3 5l35 13q13 2 19 0t7 -5l1 -3z" />
    <glyph glyph-name="scaron" unicode="&#x161;" horiz-adv-x="937" 
d="M382 690q11 -42 44 -68t78 -38t91.5 -21t96.5 -26.5t82 -45.5q50 -41 67 -109t2.5 -135t-60.5 -127.5t-113 -88.5q-105 -45 -238 -29t-219 82q-49 36 -80.5 97.5t-4.5 105.5q25 34 67 10q16 -8 24.5 -23t11.5 -29.5t19 -34.5t45 -37q33 -19 85.5 -28t104.5 -4.5t89.5 35
t38.5 82.5q1 30 -10 53t-26 37t-44.5 25t-53 16.5t-63.5 12.5q-126 21 -170 37q-125 46 -151 167q-6 31 -7 67q-2 69 21 136t66 112q13 5 20 15q40 40 110.5 65t153.5 30q99 4 181.5 -21.5t123.5 -80.5q11 -14 17.5 -33t8 -38t-8 -35t-29.5 -21q-23 -5 -34.5 8.5t-24.5 39
t-33 39.5q-29 19 -70.5 20t-81 -16t-72.5 -45t-49 -70t-5 -88zM538 1274h5q67 180 72 202q2 10 8 14t11 4l4 -1q5 -7 7.5 -15t2.5 -12v-5l-75 -212q-13 -42 -28 -63.5t-23 -22.5l-9 -1q-20 -4 -33 0.5t-16 11.5l-3 6l-112 256q-3 23 -1.5 37t5.5 19l4 6l35 12q13 2 19 0.5
t7 -4.5l1 -3z" />
    <glyph glyph-name="Umacron" unicode="&#x16a;" horiz-adv-x="1075" 
d="M94 1193q0 34 25 59t60 25h133q35 0 60 -25t25 -59v-649q0 -171 7 -220q16 -112 91 -156q62 -36 179 -40q135 -4 159 126q8 35 13.5 90t8 109t3 135t0 135.5t-3 145t-3.5 129.5t-4.5 123.5t-3.5 94.5q-1 22 13.5 38t36 20.5t43 1.5t36.5 -18.5t15 -39.5l-5 -707
q-1 -87 -4 -146t-10.5 -118t-22 -95t-37.5 -68.5t-56.5 -49t-79 -26t-106.5 -8.5q-227 0 -335 22t-173 99q-36 41 -53 195.5t-17 305.5t3.5 343.5t2.5 227.5zM235 1544v44q0 27 20 47t47 20q141 0 218.5 -1.5t220.5 -1.5q27 0 46.5 -18.5t19.5 -45.5v-44q0 -27 -19.5 -46.5
t-46.5 -19.5l-439 2q-27 0 -47 18.5t-20 45.5z" />
    <glyph glyph-name="umacron" unicode="&#x16b;" horiz-adv-x="1079" 
d="M906 0h-136q-36 0 -61.5 25t-25.5 60v64q-29 -66 -106 -106t-171 -40q-140 -2 -217 73t-101 222v674q2 4 6.5 10t21.5 14.5t39 6.5h8.5t19 -3t24 -8t20 -16t10.5 -27l-10 -539q0 -5 -0.5 -14.5t1.5 -36.5t7.5 -51.5t19.5 -55.5t34 -54t54.5 -40.5t78.5 -21.5h21.5
t50.5 8.5t69 25t66.5 54t53.5 89.5q3 203 3 616q0 35 25 59.5t59 24.5h136q35 0 60 -25t25 -59v-844q0 -35 -25.5 -60t-59.5 -25zM329 1329v43q0 27 20 47t47 20q141 0 218.5 -1.5t220.5 -1.5q27 0 46.5 -18.5t19.5 -45.5v-43q0 -27 -19.5 -46.5t-46.5 -17.5h-439
q-27 0 -47 18.5t-20 45.5z" />
    <glyph glyph-name="Uring" unicode="&#x16e;" horiz-adv-x="1075" 
d="M463 1396q-60 2 -93 28.5t-37 86.5q0 103 7 128q8 33 35 60.5t78 29.5q10 0 44.5 1t49.5 0.5t39.5 -6t43.5 -16.5q76 -40 82 -136q0 -79 -18 -102q-16 -39 -58 -57.5t-88 -16.5h-85zM94 1193q0 34 25 59t60 25h133q35 0 60 -25t25 -59v-649q0 -171 7 -220
q16 -112 91 -156q62 -36 179 -40q133 -4 161 126q12 55 17.5 148t5.5 216.5t-1.5 214t-5.5 223t-5 160.5q-1 22 13.5 38t35 20.5t41.5 1.5t36 -18.5t15 -39.5l-5 -707q-1 -76 -3 -129.5t-8 -107.5t-15.5 -89.5t-26 -69t-39 -53.5t-54.5 -35.5t-73 -21.5t-94 -5
q-229 0 -336.5 22t-174.5 99q-36 41 -53 195.5t-17 305.5t3.5 343.5t2.5 227.5zM594 1447q36 6 51.5 31t5 54.5t-43.5 47.5q-54 28 -164 21q-74 -5 -74 -75q0 -59 59 -79q71 -21 166 0z" />
    <glyph glyph-name="uring" unicode="&#x16f;" horiz-adv-x="1081" 
d="M906 0h-136q-34 0 -59 25t-25 60v64q-29 -66 -106.5 -106t-170.5 -40q-274 -4 -318 295l-3 674q2 4 7 10t22.5 14.5t37.5 6.5h8.5t19.5 -3t24.5 -8t20.5 -16t11 -27l-12 -539q0 -5 -0.5 -14.5t1.5 -36.5t7.5 -51.5t19.5 -55.5t34.5 -54t55.5 -40.5t79 -21.5h21.5
t50.5 8.5t69 25t67 54t54 89.5q0 452 2 616q0 35 24.5 59.5t60.5 24.5h136q35 0 60 -25t25 -59l-3 -844q0 -35 -25.5 -60t-59.5 -25zM483 1180q-125 5 -131 115q0 103 8 129q8 33 35 60t78 29q12 0 44.5 1t48.5 0.5t40.5 -5.5t43.5 -16q76 -40 82 -136q0 -80 -18 -103
q-16 -39 -57 -56.5t-89 -17.5h-85zM614 1231q35 6 50.5 31.5t5 55.5t-42.5 47q-47 28 -164 20q-75 -5 -75 -74q0 -60 59 -80q71 -21 167 0z" />
    <glyph glyph-name="Uhungarumlaut" unicode="&#x170;" horiz-adv-x="1075" 
d="M843 1216q-1 22 13.5 38t36 20.5t43 1.5t36.5 -18.5t15 -39.5l-5 -707q-1 -87 -4 -146t-10.5 -118t-22 -95t-37.5 -68.5t-56.5 -49t-79 -26t-106.5 -8.5q-227 0 -335 22t-173 99q-36 41 -53 195.5t-17 305.5t3.5 343.5t2.5 227.5q0 34 25 59t60 25h133q35 0 60 -25
t25 -59v-649q0 -171 7 -220q16 -112 91 -156q62 -36 179 -40q135 -4 159 126q8 35 13.5 90t8 109t3 135t0 135.5t-3 145t-3.5 129.5t-4.5 123.5t-3.5 94.5zM801 1450q-18 -29 -45 -39.5t-51 -3t-44.5 24.5t-26.5 44t3 56l64 234q23 79 84 91q53 11 93 -31q49 -50 25 -125
l-4 -12zM537 1450q-19 -29 -46.5 -39.5t-51.5 -3t-44.5 24.5t-26.5 44t3 56l64 234q24 78 85 91q53 12 93 -30q48 -50 24 -124q-2 -7 -5 -14z" />
    <glyph glyph-name="uhungarumlaut" unicode="&#x171;" horiz-adv-x="1079" 
d="M904 0h-136q-34 0 -59.5 25t-25.5 60v64q-29 -66 -106 -106t-171 -40q-140 -2 -217 73t-101 222v674q2 4 6.5 10t21 14.5t36.5 6.5h8.5t19.5 -3t25 -8t21 -16t11 -27l-13 -539q0 -5 -0.5 -14.5t2 -36.5t8 -51.5t19.5 -55.5t34.5 -54t55.5 -40.5t79 -21.5h21.5t50 8.5
t68.5 25t67 54t54 89.5q0 96 1.5 292t1.5 324q0 35 25 59.5t59 24.5h136q35 0 60 -25t25 -59l-3 -844q0 -35 -24 -60t-60 -25zM637 1306l64 233q23 79 84 91q53 11 93 -31q49 -50 25 -125l-4 -12l-98 -238q-18 -29 -45 -39.5t-51 -3t-44.5 25t-26.5 44.5t3 55zM370 1306
l64 233q25 79 86 91q53 11 93 -31q48 -50 24 -125q-2 -6 -5 -12l-95 -238q-24 -35 -59 -42t-63 8.5t-43 48t-2 67.5z" />
    <glyph glyph-name="Uogonek" unicode="&#x172;" horiz-adv-x="1073" 
d="M94 1193q0 34 24.5 59t57.5 25h136q34 0 58 -24.5t24 -59.5v-649v-35q0 -65 0.5 -95.5t5.5 -79t15.5 -71.5t30 -53.5t49.5 -44t75 -24.5t104 -13q131 -4 159 126q8 35 13.5 90t8 109t3 135t0 135.5t-3 145t-3.5 129.5t-4.5 123.5t-3.5 94.5q-1 22 13.5 38t35 20.5
t41.5 1.5t36 -18.5t15 -39.5l-5 -707q0 -91 -3 -152t-11.5 -120.5t-24 -96.5t-41.5 -67.5t-63.5 -47t-89.5 -22.5v-2q-34 -53 -34 -111q0 -46 23 -77q26 -30 80 -30q26 0 51 7q33 11 46 18q24 10 36 -24q15 -43 -7 -83q-11 -19 -29 -29q-80 -36 -143 -36q-53 0 -95 16
t-67 41q-26 26 -41 61q-13 42 -13 77q0 65 33 128l3 3v3l3 2q3 5 9.5 15.5t8.5 15.5q-196 2 -293.5 25t-158.5 96q-36 41 -53 195.5t-17 305.5t3.5 343.5t2.5 227.5z" />
    <glyph glyph-name="uogonek" unicode="&#x173;" horiz-adv-x="1091" 
d="M906 0h-97q-13 -20 -13 -21q-33 -52 -33 -110q0 -46 23 -77q27 -31 79 -31q23 0 52 8q33 11 46 18q24 10 36 -24q15 -43 -7 -83q-11 -19 -29 -29q-80 -36 -144 -36q-53 0 -95 16q-39 14 -66 41t-41 64q-13 37 -13 74q0 65 33 128v3h3v3l2 2q20 41 64 85q-20 23 -20 54v64
q-28 -66 -107 -106t-173 -40q-271 -4 -315 295l-3 674q2 4 6.5 10t21.5 14.5t39 6.5h8.5t19 -3t24 -8t20 -16t10.5 -27l-10 -539q0 -5 -0.5 -14.5t1.5 -36.5t7.5 -51.5t19.5 -55.5t34.5 -54t55.5 -40.5t79 -21.5h21.5t50.5 8.5t69 25t67 54t54 89.5v616q0 35 25 59.5
t59 24.5h136q35 0 61.5 -25t26.5 -59l-3 -844q0 -35 -25.5 -60t-59.5 -25z" />
    <glyph glyph-name="Ydieresis" unicode="&#x178;" horiz-adv-x="999" 
d="M777 1170q4 35 18.5 50.5t46.5 14.5q29 -2 45.5 -23.5t20.5 -57.5t2.5 -76t-10 -86.5t-16 -80t-15.5 -66.5q-4 -14 -5 -20q-19 -80 -65.5 -201.5t-108 -249.5t-138.5 -230t-143 -127q-6 -2 -16 -5.5t-40.5 -8t-58.5 -3t-63.5 15.5t-62.5 41q-6 4 -16 12.5t-30 39.5
t-28 69q-3 30 -5.5 64.5t15 64t54.5 31.5q19 2 35 -11.5t20 -36.5q2 -20 -1.5 -40t-3 -35.5t11.5 -36.5q28 -69 105 -57q36 4 71 31t61 64t42 66t25 50l-10 2q-9 2 -15 4.5t-17.5 8t-22 14.5t-22.5 21.5t-24.5 32.5t-23.5 44q-22 49 -74 194t-95 279q-53 162 -59 186
q-8 26 -11.5 39t-4 29.5t6 24t21.5 14t40 7.5q68 4 112.5 -13t76.5 -71q41 -69 122 -323t99 -299q20 36 37 77t30.5 85t24.5 82.5t19.5 85.5t14 78t11 76t8 63.5t6 56.5t3.5 40zM359 1561q44 0 75.5 -32t31.5 -75q0 -45 -31 -76t-76 -31t-75.5 31t-30.5 76q0 43 31 75t75 32
zM688 1561q44 0 75 -32t31 -75q0 -45 -30.5 -76t-75.5 -31q-43 0 -75 31.5t-32 75.5q0 43 32 75t75 32z" />
    <glyph glyph-name="Zacute" unicode="&#x179;" horiz-adv-x="1189" 
d="M558 144q38 5 225 2.5t222 -2.5q59 4 80 -32t-3 -73t-74 -37q-129 -3 -821 3q-38 1 -58.5 9.5t-32.5 39t-6 87.5q6 56 79 168t169 231t188 232t143 192.5t28 91.5q-17 12 -497 12q-43 2 -62.5 32t-2 59.5t66.5 30.5q184 3 853 18q0 -2 5 0t12 -3t14 -12.5t12 -28.5t4 -51
q1 -26 -53.5 -114.5t-169 -243.5t-166.5 -224t-165 -216q-11 -14 -16 -21.5t-17.5 -26t-17.5 -30t-12 -29t-4.5 -28t9 -20.5t24 -14t44.5 -2zM446 1590l174 159q63 53 120.5 28.5t57.5 -84t-57 -110.5l-203 -144q-31 -13 -57.5 -9t-43.5 23.5t-24 43t1 50t32 43.5z" />
    <glyph glyph-name="zacute" unicode="&#x17a;" horiz-adv-x="997" 
d="M348 1292l174 159q63 53 120.5 28t58 -84.5t-56.5 -110.5l-204 -144q-40 -20 -69.5 -6t-46 40.5t-11 61.5t34.5 56zM470 143q47 4 180.5 3t182.5 0q48 2 65 -27t-2 -59.5t-60 -30.5q-188 -3 -667 2q-47 2 -66.5 23.5t-12.5 86.5q5 46 64 137t136.5 187.5t152 188.5
t116 157t23.5 76q-11 9 -405 9q-34 1 -49.5 24.5t-1.5 47.5t53 25q552 11 694 15q0 -1 4 0.5t9.5 -2.5t11 -10.5t9.5 -23.5t3 -41q2 -62 -450 -649q-12 -17 -17 -24t-18.5 -28.5t-15 -33.5t-0.5 -26.5t17 -21t44 -5.5z" />
    <glyph glyph-name="Zdot" unicode="&#x17b;" horiz-adv-x="1191" 
d="M560 144q35 5 223.5 2.5t223.5 -2.5q59 4 80 -32t-3 -73t-74 -37q-128 -3 -823 3q-28 1 -45 5.5t-32 18t-19.5 41.5t-0.5 71q7 56 80.5 168t169.5 230.5t188 232t143 193t28 91.5q-17 12 -497 12q-32 2 -51.5 21t-21 41t17.5 40.5t55 19.5q186 3 855 18q0 -2 5 0t12 -3
t14 -12.5t12 -28.5t4 -51q1 -26 -53.5 -114.5t-169 -243.5t-166.5 -224t-165 -216q-9 -11 -16.5 -21t-18.5 -26.5t-17 -30t-12 -29t-4 -27t9 -21t24.5 -14t44.5 -2.5zM607 1625q43 0 74 -31t31 -76q0 -43 -31 -75t-74 -32q-44 0 -75.5 32t-31.5 75q0 45 31 76t76 31z" />
    <glyph glyph-name="zdot" unicode="&#x17c;" horiz-adv-x="1001" 
d="M470 143q48 4 181.5 3t181.5 0q30 1 48.5 -10.5t22 -29t-2 -35t-23.5 -30t-42 -12.5q-185 -3 -667 2q-47 2 -66.5 23.5t-12.5 86.5q5 46 65 137t137.5 187.5t152 188.5t116 157t23.5 76q-14 9 -405 9q-34 1 -50 24.5t-1.5 47.5t54.5 25q559 11 691 15q0 -1 4 0.5t10 -2.5
t12 -10.5t10 -23.5t4 -41q0 -57 -417 -605q-23 -31 -33 -44t-18 -24t-19.5 -29.5t-15 -32.5t-2 -27t17.5 -20t44 -6zM418 1426q43 0 73.5 -31t30.5 -76q0 -43 -31 -75t-73 -32q-44 0 -75.5 32t-31.5 75q0 45 31 76t76 31z" />
    <glyph glyph-name="zcaron" unicode="&#x17e;" horiz-adv-x="1062" 
d="M573 1272l5 3q74 188 79 212q1 7 3.5 11t6 5.5t6.5 2t5 0.5l2 -1q6 -8 8.5 -16.5t2.5 -12.5v-5l-79 -222q-14 -44 -29.5 -66.5t-24.5 -23.5l-8 -1q-24 -4 -36.5 -0.5t-15.5 9.5l-3 6l-118 269q-3 26 -2 40.5t4 19.5l3 6l37 13q14 3 20.5 2t7.5 -4l1 -3zM490 274
l-13.5 -18t-15 -22t-15 -26.5t-10.5 -25.5t-3.5 -24t8 -18.5t21 -13.5t38.5 -3q62 6 196.5 3.5t198.5 -1.5q51 4 69 -27.5t-3.5 -64.5t-63.5 -33q-256 -4 -721 3q-34 2 -52 9t-28.5 33t-5.5 75t68.5 147.5t147.5 203t164.5 204.5t126.5 170.5t26 82.5q-13 10 -439 10
q-37 1 -54 26.5t-1.5 51.5t57.5 27q650 12 750 15q0 -1 4.5 0.5t10.5 -2.5t12 -11t10 -25.5t3 -44.5q3 -71 -486 -701z" />
    <glyph glyph-name="florin" unicode="&#x192;" horiz-adv-x="1402" 
d="M1291 1969q28 -44 21.5 -87.5t-41.5 -68.5t-73 -7q-6 4 -17 8.5t-40.5 11t-55 3t-52.5 -27t-40 -68.5l-60 -323l127 -2q26 0 44.5 -18.5t18.5 -44.5v-43q0 -26 -18.5 -44t-44.5 -18h-160l-123 -665q-3 -17 -25 -152q-27 -187 -51 -252q-39 -107 -128 -144
q-122 -51 -422 0q-51 13 -61 59.5t18.5 86.5t74.5 39q73 -12 127 -15t92.5 -1t65.5 20.5t42.5 33t27 53t16.5 64.5t13 83q5 26 13 82.5t12 78.5l118 629h-81q-26 0 -44 19t-18 46v42q0 26 18 44.5t44 18.5h113l68 361q0 5 2 7q16 61 42 106.5t54.5 72.5t63.5 43t67.5 20.5
t68 2t62 -9t54 -16t40.5 -15.5t23 -11z" />
    <glyph glyph-name="Sigma" unicode="&#x3a3;" horiz-adv-x="923" 
d="M205 448l198 262l-303 399q-11 15 -11 42t8.5 53.5t27.5 46t42 19.5q299 0 600 -2q28 0 48 -20t20 -48v-47q0 -28 -20 -47.5t-48 -19.5h-420q66 -86 162 -197q45 -52 62.5 -72.5t33 -53.5t13 -47.5t-18 -49t-39 -63.5t-69.5 -86q-75 -93 -123 -155h399q28 0 48 -21
t20 -49v-45q0 -28 -20 -49t-48 -21l-600 3q-172 1 38 268z" />
    <glyph glyph-name="Omegagreek" unicode="&#x3a9;" horiz-adv-x="1583" 
d="M931 257v53q0 27 35 49.5t63 27.5q131 174 112.5 316.5t-124.5 235t-243 102.5q-68 5 -129.5 -15t-113.5 -66.5t-84.5 -130t-36.5 -194.5q-10 -179 117 -248h68q24 0 41 -23.5t17 -55.5v-51q0 -33 -17.5 -56.5t-40.5 -23.5l-449 3q-25 0 -41.5 22.5t-16.5 54.5v53
q0 32 16.5 54.5t41.5 22.5h211q-55 137 -65 278t24 259t98.5 211t162 145t209.5 51q229 -2 354.5 -138t135.5 -406q0 -29 -0.5 -75t-11.5 -139.5t-32 -129.5q-12 -37 -23 -56h229q25 0 41.5 -23t16.5 -56v-51q0 -33 -16.5 -56.5t-41.5 -23.5l-470 2q-23 0 -30 20t-7 58z" />
    <glyph glyph-name="pi" unicode="&#x3c0;" horiz-adv-x="1132" 
d="M88 887v40q0 24 18 41t43 17h836q25 0 42.5 -18t17.5 -43v-39q0 -25 -17.5 -42t-42.5 -17h-112v-588q0 -25 -18 -43t-43 -18h-40q-24 0 -41 18t-17 43v588h-294v-588q-2 -25 -19.5 -43t-41.5 -18h-40q-24 0 -41 18t-17 43v588h-112q-25 2 -43 19.5t-18 41.5z" />
    <glyph glyph-name="quoteleft" unicode="&#x2018;" horiz-adv-x="518" 
d="M358 1298q-30 -20 -38 -56.5t-2.5 -69.5t1 -66t-28.5 -48q-47 -28 -102.5 -24t-77.5 40q-37 64 -14 156q22 88 87.5 137.5t148.5 51.5q7 2 17.5 4.5t35.5 -3t41 -26.5q1 -2 2.5 -5.5t1 -14t-6 -21.5t-22 -26t-43.5 -29z" />
    <glyph glyph-name="quoteright" unicode="&#x2019;" horiz-adv-x="520" 
d="M162 1158q30 20 38 57t2.5 70.5t-1 67t28.5 48.5q47 28 102 23.5t77 -40.5q36 -64 14 -158q-22 -88 -87.5 -137.5t-148.5 -51.5q-7 -2 -17.5 -4t-36 3.5t-41.5 25.5q-1 2 -2.5 5.5t-1 14t6 21.5t23 26t44.5 29z" />
    <glyph glyph-name="quotedblleft" unicode="&#x201c;" horiz-adv-x="792" 
d="M356 1300q-30 -20 -38 -57t-2 -70t1.5 -66t-28.5 -47q-47 -30 -102.5 -26t-77.5 42q-35 59 -12 157q20 87 86 137t148 52q7 2 17.5 4.5t36 -3.5t41.5 -27q1 -2 2.5 -5.5t1 -14t-6 -21.5t-23 -26t-44.5 -29zM632 1300q-30 -20 -38 -57t-2.5 -70t1 -66t-28.5 -47
q-47 -30 -102.5 -26t-77.5 42q-34 57 -11 157q20 88 85.5 137.5t147.5 51.5q7 2 17.5 4.5t36.5 -3.5t42 -27q1 -2 2.5 -5.5t1 -14t-6 -21.5t-23 -26t-44.5 -29z" />
    <glyph glyph-name="quotedblright" unicode="&#x201d;" horiz-adv-x="792" 
d="M437 1160q30 20 37.5 57t1.5 70t-1 66t30 48q45 28 101 23.5t77 -40.5q37 -59 14 -156q-22 -88 -87 -137.5t-147 -51.5q-7 -2 -18 -4.5t-36.5 3.5t-41.5 27q-1 2 -2.5 5.5t-1 14t6 21t23 25.5t44.5 29zM162 1160q30 20 37.5 57t1.5 70t-1 66t30 48q45 28 100.5 24
t76.5 -40q37 -59 14 -157q-22 -88 -86.5 -137.5t-146.5 -51.5q-7 -2 -17.5 -4.5t-36.5 3.5t-42 27q-1 2 -2.5 5.5t-1 14t6 21t23 25.5t44.5 29z" />
    <glyph glyph-name="quotedblbase" unicode="&#x201e;" horiz-adv-x="792" 
d="M437 126q30 20 37.5 57t1.5 70t-1 66t30 48q45 28 100.5 23.5t76.5 -40.5q37 -59 14 -156q-22 -88 -86.5 -137.5t-146.5 -51.5q-7 -2 -17.5 -4.5t-36.5 3t-42 26.5q-1 2 -2.5 5.5t-1 14t6 21.5t23 26t44.5 29zM162 126q30 20 37.5 57t1.5 70t-1.5 66t29.5 48
q47 28 102.5 23.5t77.5 -40.5q34 -61 12 -156q-20 -88 -85.5 -137.5t-147.5 -51.5q-7 -2 -17.5 -4.5t-36.5 3t-42 26.5q-1 2 -2.5 5.5t-1 14t6 21.5t23 26t44.5 29z" />
    <glyph glyph-name="Euro" unicode="&#x20ac;" horiz-adv-x="1157" 
d="M249 1086q11 82 32.5 148t61.5 126t106 97.5t155 48.5q8 2 22 4.5t56 6t81.5 1.5t90 -15t90.5 -37t74.5 -71t50.5 -111q0 -3 0.5 -8.5t0 -19.5t-3 -24.5t-10.5 -20.5t-20 -11h-9q-19 7 -24 61v2q-1 3 -2.5 8.5t-8.5 22t-16.5 28.5t-26.5 28.5t-38 23t-51 11t-67 -7.5
q-3 -1 -9 -2t-22.5 -9t-33 -19.5t-38 -35t-39 -52.5t-34.5 -75t-27 -101h98q32 0 54.5 -22.5t22.5 -54.5v-51q0 -31 -22.5 -54t-54.5 -23h-114q-5 -58 -5 -94h119q32 0 54.5 -23t22.5 -54v-51q0 -32 -22.5 -54.5t-54.5 -22.5h-91q54 -152 192 -152h11.5t28.5 6.5t39.5 20
t40.5 44.5t36 76q1 3 2 7t7 14.5t13.5 18t21.5 13t31 3.5l5 -2.5t9.5 -9.5t9 -19.5t-0.5 -33.5t-14 -49q-5 -7 -13.5 -19t-37.5 -44t-60.5 -59t-80.5 -55.5t-98.5 -41.5t-113 -8t-126.5 35q-177 84 -231 257h-103q-32 0 -54.5 22t-22.5 55v52q0 32 23 54.5t54 22.5h75
q0 15 -1 45.5t-1 47.5h-73q-32 0 -54.5 22t-22.5 55v52q0 31 23 54t54 23h84z" />
    </font>
</defs>
</svg>
